<svg version="1" xmlns="http://www.w3.org/2000/svg" width="800" height="800" viewBox="0 0 600.000000 600.000000"><path d="M75.7 40.1c-11.5 2.7-24.9 13.1-30.6 23.8C38.7 76 39 62.2 39 299.6c0 150.9.3 217.8 1.1 222 2.4 13.5 12.5 27.2 24.6 33.7 11.2 6-.8 5.7 235.4 5.7 140.1 0 218.5-.4 222-1 12.7-2.4 26.4-12.1 32.9-23.5 6.4-11.2 6 5 6-237.1 0-216.8 0-220.3-2-226.6-3.7-12.1-11.9-22.2-22.8-28.1-9.4-5.1-14.1-5.7-45.2-5.7l-28.5.1-64.8 102.5C362 198 333 244.3 333.2 244.5c.2.2 22.4 2.5 49.3 5.1 27 2.6 49.3 5 49.7 5.3.6.5-78.4 82.5-274.5 285.1-8.1 8.4-15 15-15.3 14.7-.3-.2 30.5-49.5 68.5-109.3l69-108.9-62.5-2.6c-34.3-1.4-62.6-2.7-62.8-3-.3-.3 13.9-22.3 31.6-48.9C219.1 232.2 344 40.4 344 39.5c0-.9-264.4-.3-268.3.6z"/></svg>