<?xml version="1.0" standalone="no"?>
<!DOCTYPE svg PUBLIC "-//W3C//DTD SVG 20010904//EN"
 "http://www.w3.org/TR/2001/REC-SVG-20010904/DTD/svg10.dtd">
<svg version="1.0" xmlns="http://www.w3.org/2000/svg"
 width="600.000000pt" height="600.000000pt" viewBox="0 0 600.000000 600.000000"
 preserveAspectRatio="xMidYMid meet">
<metadata>
Created by potrace 1.11, written by Peter Selinger 2001-2013
</metadata>
<g transform="translate(0.000000,600.000000) scale(0.100000,-0.100000)"
fill="#000000" stroke="none">
<path d="M757 5599 c-115 -27 -249 -131 -306 -238 -64 -121 -61 17 -61 -2357
0 -1509 3 -2178 11 -2220 24 -135 125 -272 246 -337 112 -60 -8 -57 2354 -57
1401 0 2185 4 2220 10 127 24 264 121 329 235 64 112 60 -50 60 2371 0 2168 0
2203 -20 2266 -37 121 -119 222 -228 281 -94 51 -141 57 -452 57 l-285 -1
-648 -1025 c-357 -564 -647 -1027 -645 -1029 2 -2 224 -25 493 -51 270 -26
493 -50 497 -53 6 -5 -784 -825 -2745 -2851 -81 -84 -150 -150 -153 -147 -3 2
305 495 685 1093 l690 1089 -625 26 c-343 14 -626 27 -628 30 -3 3 139 223
316 489 329 498 1578 2416 1578 2425 0 9 -2644 3 -2683 -6z"/>
</g>
</svg>
