<?xml version="1.0" encoding="utf-8"?>
<!-- Generator: Adobe Illustrator 22.0.0, SVG Export Plug-In . SVG Version: 6.00 Build 0)  -->
<svg version="1.1" id="Layer_1" xmlns="http://www.w3.org/2000/svg" xmlns:xlink="http://www.w3.org/1999/xlink" x="0px" y="0px"
	 viewBox="0 0 565 565" style="enable-background:new 0 0 565 565;" xml:space="preserve">
<style type="text/css">
	.st0{display:none;}
	.st1{display:inline;fill:#333333;}
	.st2{display:inline;}
	.st3{fill:#BD202D;}
	.st4{fill:#333333;}
</style>
<g>
	<g>
		<path class="st4" d="M371.5,440l-0.8-3.5c-29.8,0-53.2,60-83.2,91l234.6,6.6c26.9,0,17.2-22.1,20.9-48.8
			c-1.7,0.2-109.7,1.5-154,2.5C366.5,488.3,380.8,460.5,371.5,440z"/>
		<path class="st4" d="M297.3,253.3L260,288.6c-19.6,0-29.6,14.6-49.3,28.8l167.8,3c0-19.2-2.4-10.2,0.1-22.5
			c-1.1,0.1-72.1,0.7-101.2,1.1C262.7,299.4,303.4,262.8,297.3,253.3z"/>
		<path class="st4" d="M254.3,428.7H130.2c-29.8,0-54-24.2-54-54V52.8c0-2.5,0.2-5,0.5-7.5C50,49.1,30.2,71.9,30.2,98.8v321.9
			c0,29.8,24.2,54,54,54h245.5c26.9,0,33.6-21.4,37.3-48.1C364.5,426.9,256.8,428.7,254.3,428.7z"/>
		<g>
			<path class="st4" d="M542,263c-2.9-1.2-6.2-0.5-8.5,1.7L510.2,288V129.8c0-4.3-3.5-7.8-7.8-7.8h-59.7l21.7-21.7c0,0,0,0,0,0
				l20.9-20.9c4.5-4.5,6.9-10.4,6.9-16.7s-2.5-12.3-6.9-16.7l-24.1-24.1c-4.5-4.5-10.4-6.9-16.7-6.9s-12.3,2.5-16.7,6.9l-20.9,20.9
				L381.6,68l-54.1,54.1H86.5V45.2c0-4.3-3.5-7.8-7.8-7.8c-33.7,0-61.1,27.4-61.1,61.1v329.8c0,0.6,0.1,1.1,0.2,1.7
				c1.1,14.3,7.3,27.6,17.6,37.6c11,10.8,25.6,16.7,41.1,16.7h237.3l-44.7,44.7c-2.2,2.2-2.9,5.6-1.7,8.5c1.2,2.9,4,4.8,7.2,4.8H539
				c4.3,0,7.8-3.5,7.8-7.8V270.2C546.8,267.1,544.9,264.2,542,263z M438.7,32.9c3.2-3.2,8.3-3.2,11.5,0L474.4,57
				c3.2,3.2,3.2,8.3,0,11.5L459,83.9l-35.7-35.7L438.7,32.9z M412.3,59.3L448,94.9l-14.2,14.2l-35.7-35.7L412.3,59.3z M531.2,357.5
				h-14.3c-4.3,0-7.8,3.5-7.8,7.8c0,4.3,3.5,7.8,7.8,7.8h14.3v23.4h-14.3c-4.3,0-7.8,3.5-7.8,7.8s3.5,7.8,7.8,7.8h14.3v23.4h-14.3
				c-4.3,0-7.8,3.5-7.8,7.8c0,4.3,3.5,7.8,7.8,7.8h14.3v23.4h-14.3c-4.3,0-7.8,3.5-7.8,7.8c0,4.3,3.5,7.8,7.8,7.8h14.3v37H293.3
				l78.4-78.4c3-3,3-8,0-11c-0.3-0.3-0.7-0.6-1.1-0.9c-3-2.1-7.2-1.8-9.9,0.9l-31.5,31.5H76.5c-23.6,0-42.5-18.4-43.3-41.9
				c0-1.5,0.2-2.9,0.3-4.4c0,0,0,0,0,0c0.1-0.7,0.2-1.4,0.3-2.1c0-0.1,0-0.2,0-0.2c0.1-0.6,0.2-1.2,0.4-1.8c0-0.2,0.1-0.3,0.1-0.5
				c0.1-0.5,0.2-1,0.4-1.5c0.1-0.3,0.2-0.5,0.2-0.8c0.1-0.4,0.2-0.8,0.4-1.2c0.1-0.4,0.3-0.8,0.4-1.2c0.1-0.3,0.2-0.5,0.3-0.8
				c0.2-0.5,0.4-1,0.6-1.5c0.1-0.1,0.1-0.3,0.2-0.4c0.3-0.6,0.5-1.2,0.8-1.8c0,0,0-0.1,0-0.1c6.1-12.6,17.8-21.9,31.8-24.9
				c0,0,0.1,0,0.1,0c0.6-0.1,1.3-0.2,1.9-0.3c0.1,0,0.2,0,0.3-0.1c0.6-0.1,1.2-0.2,1.8-0.2c0.2,0,0.3,0,0.5-0.1
				c0.6-0.1,1.2-0.1,1.7-0.1c0.2,0,0.4,0,0.6,0c0.8,0,1.5-0.1,2.3-0.1c4.3,0,7.8-3.5,7.8-7.8v-56.3c0-4.3-3.5-7.8-7.8-7.8
				c-4.3,0-7.8,3.5-7.8,7.8v49c-13.1,1.7-25.3,7.5-34.9,16.9c-1,1-2,2-2.9,3.1V98.6c0-22.5,16.4-41.2,37.8-44.9v76.2v157.9v0
				c0,4.3,3.5,7.8,7.8,7.8c4.3,0,7.8-3.5,7.8-7.8v0V137.6H312l-42.9,42.9c-3,3-3,8,0,11c3,3,8,3,11,0l56.2-56.2c0,0,0,0,0,0
				l50.8-50.8l35.7,35.7l-4.2,4.2c0,0,0,0,0,0L262,280.9l-35.7-35.7l30.9-30.9c3-3,3-8,0-11c-3-3-8-3-11,0l-36.4,36.4
				c-0.2,0.2-0.4,0.4-0.5,0.6c-0.1,0.1-0.1,0.1-0.2,0.2c-0.1,0.1-0.2,0.3-0.3,0.4c-0.1,0.1-0.1,0.2-0.2,0.3
				c-0.1,0.1-0.2,0.3-0.2,0.4c0,0.1-0.1,0.2-0.1,0.3c-0.1,0.2-0.1,0.3-0.2,0.5c0,0.1,0,0.1-0.1,0.2l-15.1,42.9l-10.3,29.2
				c-0.1,0.4-0.2,0.8-0.3,1.2h-25.8c-4.3,0-7.8,3.5-7.8,7.8c0,4.3,3.5,7.8,7.8,7.8h215.1c4.3,0,7.8-3.5,7.8-7.8
				c0-4.3-3.5-7.8-7.8-7.8H217.2l47.4-16.7c0,0,0.1,0,0.1,0c0.2-0.1,0.4-0.1,0.5-0.2c0.1,0,0.1-0.1,0.2-0.1c0.2-0.1,0.4-0.2,0.5-0.3
				c0.1,0,0.1-0.1,0.2-0.1c0.2-0.1,0.4-0.3,0.5-0.4c0,0,0.1-0.1,0.1-0.1c0.2-0.2,0.4-0.4,0.6-0.6l159.8-159.8h67.4v165.9
				L383.6,414.6c-3,3-3,8,0,11c0.2,0.2,0.4,0.4,0.6,0.5c1.4,1.2,3.2,1.7,4.9,1.7s3.5-0.6,4.9-1.7c0.2-0.2,0.4-0.3,0.6-0.5
				c0,0,0,0,0,0L531.2,289V357.5z M247.8,288.7l-22.2,7.9l-14.8-14.8l7.9-22.2L247.8,288.7z"/>
		</g>
	</g>
	<g>
		<path class="st4" d="M371.5,440l-0.8-3.5c-29.8,0-53.2,60-83.2,91l234.6,6.6c26.9,0,17.2-22.1,20.9-48.8
			c-1.7,0.2-109.7,1.5-154,2.5C366.5,488.3,380.8,460.5,371.5,440z"/>
		<path class="st4" d="M297.3,253.3L260,288.6c-19.6,0-29.6,14.6-49.3,28.8l167.8,3c0-19.2-2.4-10.2,0.1-22.5
			c-1.1,0.1-72.1,0.7-101.2,1.1C262.7,299.4,303.4,262.8,297.3,253.3z"/>
		<path class="st4" d="M254.3,428.7H130.2c-29.8,0-54-24.2-54-54V52.8c0-2.5,0.2-5,0.5-7.5C50,49.1,30.2,71.9,30.2,98.8v321.9
			c0,29.8,24.2,54,54,54h245.5c26.9,0,33.6-21.4,37.3-48.1C364.5,426.9,256.8,428.7,254.3,428.7z"/>
		<g>
			<path class="st3" d="M542,263c-2.9-1.2-6.2-0.5-8.5,1.7L510.2,288V129.8c0-4.3-3.5-7.8-7.8-7.8h-59.7l21.7-21.7c0,0,0,0,0,0
				l20.9-20.9c4.5-4.5,6.9-10.4,6.9-16.7s-2.5-12.3-6.9-16.7l-24.1-24.1c-4.5-4.5-10.4-6.9-16.7-6.9s-12.3,2.5-16.7,6.9l-20.9,20.9
				L381.6,68l-54.1,54.1H86.5V45.2c0-4.3-3.5-7.8-7.8-7.8c-33.7,0-61.1,27.4-61.1,61.1v329.8c0,0.6,0.1,1.1,0.2,1.7
				c1.1,14.3,7.3,27.6,17.6,37.6c11,10.8,25.6,16.7,41.1,16.7h237.3l-44.7,44.7c-2.2,2.2-2.9,5.6-1.7,8.5c1.2,2.9,4,4.8,7.2,4.8H539
				c4.3,0,7.8-3.5,7.8-7.8V270.2C546.8,267.1,544.9,264.2,542,263z M438.7,32.9c3.2-3.2,8.3-3.2,11.5,0L474.4,57
				c3.2,3.2,3.2,8.3,0,11.5L459,83.9l-35.7-35.7L438.7,32.9z M412.3,59.3L448,94.9l-14.2,14.2l-35.7-35.7L412.3,59.3z M531.2,357.5
				h-14.3c-4.3,0-7.8,3.5-7.8,7.8c0,4.3,3.5,7.8,7.8,7.8h14.3v23.4h-14.3c-4.3,0-7.8,3.5-7.8,7.8s3.5,7.8,7.8,7.8h14.3v23.4h-14.3
				c-4.3,0-7.8,3.5-7.8,7.8c0,4.3,3.5,7.8,7.8,7.8h14.3v23.4h-14.3c-4.3,0-7.8,3.5-7.8,7.8c0,4.3,3.5,7.8,7.8,7.8h14.3v37H293.3
				l78.4-78.4c3-3,3-8,0-11c-0.3-0.3-0.7-0.6-1.1-0.9c-3-2.1-7.2-1.8-9.9,0.9l-31.5,31.5H76.5c-23.6,0-42.5-18.4-43.3-41.9
				c0-1.5,0.2-2.9,0.3-4.4c0,0,0,0,0,0c0.1-0.7,0.2-1.4,0.3-2.1c0-0.1,0-0.2,0-0.2c0.1-0.6,0.2-1.2,0.4-1.8c0-0.2,0.1-0.3,0.1-0.5
				c0.1-0.5,0.2-1,0.4-1.5c0.1-0.3,0.2-0.5,0.2-0.8c0.1-0.4,0.2-0.8,0.4-1.2c0.1-0.4,0.3-0.8,0.4-1.2c0.1-0.3,0.2-0.5,0.3-0.8
				c0.2-0.5,0.4-1,0.6-1.5c0.1-0.1,0.1-0.3,0.2-0.4c0.3-0.6,0.5-1.2,0.8-1.8c0,0,0-0.1,0-0.1c6.1-12.6,17.8-21.9,31.8-24.9
				c0,0,0.1,0,0.1,0c0.6-0.1,1.3-0.2,1.9-0.3c0.1,0,0.2,0,0.3-0.1c0.6-0.1,1.2-0.2,1.8-0.2c0.2,0,0.3,0,0.5-0.1
				c0.6-0.1,1.2-0.1,1.7-0.1c0.2,0,0.4,0,0.6,0c0.8,0,1.5-0.1,2.3-0.1c4.3,0,7.8-3.5,7.8-7.8v-56.3c0-4.3-3.5-7.8-7.8-7.8
				c-4.3,0-7.8,3.5-7.8,7.8v49c-13.1,1.7-25.3,7.5-34.9,16.9c-1,1-2,2-2.9,3.1V98.6c0-22.5,16.4-41.2,37.8-44.9v76.2v157.9v0
				c0,4.3,3.5,7.8,7.8,7.8c4.3,0,7.8-3.5,7.8-7.8v0V137.6H312l-42.9,42.9c-3,3-3,8,0,11c3,3,8,3,11,0l56.2-56.2c0,0,0,0,0,0
				l50.8-50.8l35.7,35.7l-4.2,4.2c0,0,0,0,0,0L262,280.9l-35.7-35.7l30.9-30.9c3-3,3-8,0-11c-3-3-8-3-11,0l-36.4,36.4
				c-0.2,0.2-0.4,0.4-0.5,0.6c-0.1,0.1-0.1,0.1-0.2,0.2c-0.1,0.1-0.2,0.3-0.3,0.4c-0.1,0.1-0.1,0.2-0.2,0.3
				c-0.1,0.1-0.2,0.3-0.2,0.4c0,0.1-0.1,0.2-0.1,0.3c-0.1,0.2-0.1,0.3-0.2,0.5c0,0.1,0,0.1-0.1,0.2l-15.1,42.9l-10.3,29.2
				c-0.1,0.4-0.2,0.8-0.3,1.2h-25.8c-4.3,0-7.8,3.5-7.8,7.8c0,4.3,3.5,7.8,7.8,7.8h215.1c4.3,0,7.8-3.5,7.8-7.8
				c0-4.3-3.5-7.8-7.8-7.8H217.2l47.4-16.7c0,0,0.1,0,0.1,0c0.2-0.1,0.4-0.1,0.5-0.2c0.1,0,0.1-0.1,0.2-0.1c0.2-0.1,0.4-0.2,0.5-0.3
				c0.1,0,0.1-0.1,0.2-0.1c0.2-0.1,0.4-0.3,0.5-0.4c0,0,0.1-0.1,0.1-0.1c0.2-0.2,0.4-0.4,0.6-0.6l159.8-159.8h67.4v165.9
				L383.6,414.6c-3,3-3,8,0,11c0.2,0.2,0.4,0.4,0.6,0.5c1.4,1.2,3.2,1.7,4.9,1.7s3.5-0.6,4.9-1.7c0.2-0.2,0.4-0.3,0.6-0.5
				c0,0,0,0,0,0L531.2,289V357.5z M247.8,288.7l-22.2,7.9l-14.8-14.8l7.9-22.2L247.8,288.7z"/>
		</g>
	</g>
</g>
</svg>
