<?xml version="1.0" encoding="utf-8"?>
<!-- Generator: Adobe Illustrator 22.0.0, SVG Export Plug-In . SVG Version: 6.00 Build 0)  -->
<svg version="1.1" id="Layer_1" xmlns="http://www.w3.org/2000/svg" xmlns:xlink="http://www.w3.org/1999/xlink" x="0px" y="0px"
	 viewBox="0 0 1000 1000" style="enable-background:new 0 0 1000 1000;" xml:space="preserve">
<style type="text/css">
	.st0{fill:#FFFFFF;}
	.st1{fill:#231F20;}
	.st2{fill:none;stroke:#000000;stroke-width:16.0994;stroke-miterlimit:10;}
	.st3{fill:#B72026;}
	.st4{fill:#040707;}
	.st5{fill:#C33F45;}
	.st6{fill:#CC6468;}
	.st7{fill:#CA5F63;}
	.st8{fill:#D98F92;}
	.st9{fill:#BC343A;}
</style>
<g>
	<g>
		<g>
			<rect x="156.2" y="167" class="st0" width="664.3" height="664.3"/>
			<g>
				<g>
					<g>
						<g>
							<path class="st1" d="M179.6,508v-69.7l126.9-118c10.9-9.9,20.9-20.7,29.9-32c8.5-10.7,12.6-23.2,12.6-38.1
								c0-14-4.2-25.2-12.9-34.2c-8.7-8.9-19.7-13.3-33.6-13.3c-16.7,0-29,5.4-37.6,16.5c-8.8,11.4-13.1,24.9-12.8,40.2l0,11.6
								l-76.3-0.6v-18.7c0-33.4,12.1-62.7,35.9-87c23.9-24.4,53.1-36.8,86.9-36.8c35.4,0,65.6,12,90,35.7
								c24.4,23.7,36.8,53.9,36.8,89.6c0,15.3-2.7,30-8,43.5c-5.3,13.4-12.5,26.1-21.6,37.9l-0.2,0.2l-46,48l-58.6,52.4h134.4V508
								H179.6z"/>
							<path class="st0" d="M298.5,133.4c34,0,62.8,11.4,86.2,34.1c23.4,22.7,35.1,51.3,35.1,85.6c0,14.7-2.5,28.6-7.6,41.5
								c-5.1,12.9-12,25.1-20.9,36.6l-45.6,47.6l-69.2,61.8h143.3v61.8H185.1v-61.8l125.2-116.3c11.1-10.2,21.3-21,30.4-32.6
								s13.8-25.4,13.8-41.5c0-15.4-4.8-28.1-14.5-38c-9.7-10-22.2-15-37.6-15c-18.3,0-32.3,6.2-42,18.6c-9.6,12.4-14.3,27-14,43.7
								v5.9l-65.3-0.5v-13.2c0-32.1,11.4-59.8,34.3-83.2C238.4,145.1,266.1,133.4,298.5,133.4 M298.5,122.4
								c-35.3,0-65.9,12.9-90.8,38.4c-24.9,25.4-37.5,56-37.5,90.9V265v10.9l10.9,0.1l65.3,0.5l11.1,0.1v-11.1v-5.9v-0.1l0-0.1
								c-0.3-14.2,3.5-26.2,11.7-36.7c7.5-9.7,18.4-14.4,33.3-14.4c12.4,0,22.1,3.8,29.7,11.6c7.7,7.9,11.4,17.9,11.4,30.4
								c0,13.6-3.7,25-11.4,34.7c-8.8,11.1-18.6,21.7-29.2,31.3l0,0l0,0L177.6,432.6l-3.5,3.3v4.8v61.8v11h11h234.6h11v-11v-61.8
								v-11h-11H305.2l47.7-42.6l0.3-0.3l0.3-0.3l45.6-47.6l0.4-0.4l0.4-0.5c9.4-12.2,16.9-25.4,22.4-39.2
								c5.6-14.2,8.4-29.5,8.4-45.5c0-37.3-12.9-68.7-38.4-93.5C366.9,134.9,335.3,122.4,298.5,122.4L298.5,122.4z"/>
						</g>
						<g>
							<path class="st1" d="M583.6,709.6l-93-3.8l50-75.3l79.5-122.6c-8,1-14.7,1.5-19.9,1.5c-49.7,0-92.1-18-126-53.5
								c-33.8-35.4-51-79.6-51-131.4c0-55.5,18.2-102.6,54.2-140.2c36-37.6,81.1-56.7,133.9-56.7c51.8,0,96.8,18.9,133.9,56.2
								c37.1,37.3,55.8,82.8,55.8,135.1c0,40.2-14,82.5-41.5,125.8L639.9,633.3l78.2,7.6l-12.3,10.9L458.2,907.6L583.6,709.6z
								 M611.4,207.1c-28.5,0-52.2,10.5-72.6,32.1c-20.2,21.3-30.4,47.5-30.4,77.7c0,31.3,10.1,58.3,30.1,80.1
								c20.1,22,43.7,32.8,72.1,32.8c29,0,53.3-10.2,74.2-31.3c20.6-20.8,31.1-46.7,31.1-76.8v-4c0-30.2-10.4-56.4-30.8-78.1
								C664.8,218.1,640,207.1,611.4,207.1z"/>
							<path class="st0" d="M611.4,133.1c50.5,0,93.8,18.2,130,54.6c36.1,36.4,54.2,80.1,54.2,131.2c0,39.3-13.6,80.3-40.7,122.8
								L630.4,637.9l74.5,7.3l-3,2.7L491.6,865.2l101.8-160.7l-92.8-3.8l44.6-67.2l86.1-132.8c-13.3,2.1-23.7,3.2-31.1,3.2
								c-48.4,0-89-17.3-122-51.8c-33-34.5-49.4-77.1-49.4-127.6c0-54.2,17.5-99.7,52.6-136.4C516.5,151.4,559.8,133.1,611.4,133.1
								 M610.6,435.3c30.3,0,56.3-11,78.1-33c21.8-22,32.7-48.9,32.7-80.7v-4c0-31.8-10.8-59.1-32.3-81.9
								c-21.5-22.8-47.4-34.2-77.8-34.2c-29.8,0-55.3,11.3-76.6,33.8c-21.3,22.5-31.9,49.7-31.9,81.4c0,32.8,10.5,60.8,31.5,83.8
								C555.5,423.8,580.8,435.3,610.6,435.3 M611.4,122.1c-54.4,0-100.8,19.7-137.9,58.4c-36.9,38.6-55.7,87-55.7,144
								c0,53.2,17.7,98.7,52.5,135.2c35,36.7,78.7,55.2,129.9,55.2c2.7,0,5.7-0.1,9-0.4l-73.3,113l-44.6,67.1l-10.8,16.3l19.5,0.8
								l73.7,3l-91.6,144.6L424.8,950l74.7-77.2l210-217.1l2.7-2.4l18.9-16.7l-25.2-2.5l-56.7-5.5l114.9-181.1
								c28.1-44.1,42.4-87.4,42.4-128.7c0-53.8-19.3-100.5-57.4-138.9C711,141.5,664.7,122.1,611.4,122.1L611.4,122.1z M610.6,424.3
								c-26.8,0-49.1-10.1-68-31c-19.3-21.1-28.6-46.1-28.6-76.4c0-29.2,9.4-53.3,28.9-73.9c19.3-20.4,41.7-30.3,68.6-30.3
								c27.4,0,50.2,10.1,69.8,30.7c19.7,20.9,29.3,45.2,29.3,74.3v4c0,29-9.7,52.9-29.5,72.9C661.1,414.5,638.1,424.3,610.6,424.3
								L610.6,424.3z"/>
						</g>
					</g>
				</g>
			</g>
			<g>
				<g>
					<g>
						<g>
							<path d="M345.6,378.9l-69.2,61.8h143.3v61.8H185.1v-61.8l125.2-116.3c11.1-10.2,21.3-21,30.4-32.6
								c9.2-11.6,13.8-25.4,13.8-41.5c0-15.4-4.8-28.1-14.5-38c-9.7-10-22.2-15-37.6-15c-18.3,0-32.3,6.2-42,18.6s-14.3,27-14,43.7
								v5.9l-65.3-0.5v-13.2c0-32.1,11.4-59.8,34.3-83.2c22.9-23.4,50.6-35.1,82.9-35.1c34,0,62.8,11.4,86.2,34.1
								c23.4,22.7,35.1,51.3,35.1,85.6c0,14.7-2.5,28.6-7.6,41.5c-5.1,12.9-12,25.1-20.9,36.6L345.6,378.9z"/>
						</g>
						<g>
							<path d="M795.6,318.9c0-51-18.1-94.7-54.2-131.2c-36.1-36.4-79.5-54.6-130-54.6c-51.6,0-94.9,18.3-130,55
								c-35.1,36.7-52.6,82.1-52.6,136.4c0,50.5,16.5,93,49.4,127.6c33,34.6,73.6,51.8,122,51.8c7.4,0,17.8-1.1,31.1-3.2
								l-86.1,132.8l-44.6,67.2l92.8,3.8L491.6,865.2l210.3-217.4l3-2.7l-74.5-7.3l124.5-196.2C782.1,399.1,795.6,358.2,795.6,318.9
								z M721.5,321.6c0,31.8-10.9,58.7-32.7,80.7c-21.8,22-47.8,33-78.1,33c-29.8,0-55.2-11.5-76.2-34.6c-21-23-31.5-51-31.5-83.8
								c0-31.8,10.6-59,31.9-81.4c21.3-22.5,46.8-33.8,76.6-33.8c30.3,0,56.2,11.4,77.8,34.2c21.5,22.8,32.3,50.1,32.3,81.9V321.6z"
								/>
						</g>
					</g>
				</g>
			</g>
		</g>
		<g>
			<g>
				<polygon points="332.5,695.8 233.4,543.1 184.8,543.1 				"/>
			</g>
			<g>
				<polygon points="526.1,771.3 427,618.5 378.4,618.6 				"/>
			</g>
			<g>
				<polygon points="184.8,695.8 283.9,543.1 332.5,543.1 				"/>
			</g>
			<circle class="st2" cx="408" cy="615.4" r="66.8"/>
		</g>
	</g>
	<g>
		<path class="st3" d="M493.1,862.1c6.1-9.8,12.2-19.6,18.4-29.4c16.6-26.2,33.2-52.3,49.7-78.5c9.8-15.4,19.5-30.8,29.3-46.2
			c0.5-0.8,1-1.7,1.8-3.1c-30.8-1.3-61.2-2.5-91.6-3.8c-0.3-2.1,1.1-3.2,1.9-4.5c9.3-14,18.7-27.8,27.8-41.9
			c22.1-33.8,44-67.6,66-101.4c10.5-16.2,20.9-32.4,31.4-48.6c0.6-0.9,1.2-1.7,1.3-3c-5.2,0.6-10.3,1-15.4,1.7
			c-6.3,0.9-12.7,1-19.1,0.8c-17-0.4-33.6-3-49.7-8.3c-22-7.3-41.3-19-58.4-34.7c-14.4-13.3-26.5-28.3-36-45.4
			c-11.7-21.2-18.5-43.9-21-67.9c-0.9-8.2-1.5-16.5-1.3-24.8c0.5-27,4.6-53.3,15.1-78.4c7.9-18.7,18.6-35.7,32.1-50.9
			c15.1-17,32.4-31.3,52.6-41.8c13.9-7.2,28.5-12.3,43.9-15.4c17.2-3.5,34.6-4.6,52.1-3.5c31.5,2,60.7,11.4,87.1,29
			c26.2,17.5,47.3,39.9,62.6,67.4c12.3,22.1,19.1,45.8,21.4,71c3.2,35.5-3.7,68.9-18,101.2c-8,18.1-18.3,34.9-28.9,51.5
			c-19.2,30.1-38.3,60.3-57.5,90.5c-16.4,25.8-32.7,51.6-49.1,77.3c-3.4,5.3-6.8,10.7-10.4,16.5c24.9,2.5,49.2,4.9,74.3,7.3
			c-3.8,3.9-7.1,7.2-10.3,10.6c-7.1,7.6-14.5,14.9-21.7,22.3c-13.8,14.3-27.7,28.5-41.5,42.8c-8.3,8.5-16.5,17.1-24.7,25.6
			c-13.7,14.2-27.4,28.3-41.1,42.5c-8.6,8.8-17.1,17.7-25.7,26.5c-13.5,14-27,27.9-40.5,41.9c-1.9,2-3.6,4.4-5.8,6.1
			C493.3,863.4,492.9,863.1,493.1,862.1z"/>
		<path class="st4" d="M277.9,440.6c2.1,0,3.6,0,5.1,0c43.9,0,87.9,0,131.8,0c6.3,0,5.3-0.6,5.3,5.5c0,17.5,0,35,0,52.5
			c0,3.9,0.8,4.3-3.9,4.3c-75.8,0-151.7,0-227.5,0c-3.6,0-3.7,0-3.7-3.6c0-18.6,0-37.1-0.1-55.7c0-2.4,0.8-3.9,2.4-5.4
			c7.2-6.6,14.3-13.4,21.4-20c7.5-6.9,15-13.8,22.5-20.8c9.7-8.9,19.4-17.9,29-26.9c7.2-6.7,14.3-13.4,21.4-20
			c9.5-8.9,19.2-17.6,28.6-26.6c11.8-11.3,23.6-22.6,32.8-36.2c11.7-17.4,14.5-36.5,8.1-56.4c-5.5-16.9-17.3-28.1-34.9-32.3
			c-14.4-3.5-28.5-2.2-41.7,5c-11.9,6.5-18.9,17.2-23.7,29.5c-3.2,8.2-4.4,16.8-4.2,25.6c0,1.5-0.1,3,0,4.5c0.1,1.8-0.8,2.2-2.4,2.2
			c-2.8,0-5.6-0.6-8.4-0.6c-16.3,0.1-32.7,0-49,0c-1.2,0-2.4,0-3.6,0c-1.7-0.1-2.6-0.8-2.6-2.8c-0.2-14.8,0.5-29.6,4.6-43.9
			c4.5-15.7,12.2-29.8,22.7-42.3c10.7-12.7,23.1-23.4,37.9-31c13.9-7.1,28.6-10.9,44.2-11.8c20.9-1.3,41,1.6,60.2,10.2
			c15.8,7,29.2,17.3,40.7,30.1c11.4,12.8,19.6,27.4,24.2,43.9c2.4,8.4,3.5,17,4.3,25.7c1.4,16.3-0.6,32.1-5.8,47.6
			c-5,14.5-12.5,27.8-21.9,39.9c-2.8,3.6-6.2,6.8-9.3,10.1c-8.9,9.3-18.1,18.3-26.8,27.8c-11.8,12.9-25.4,24-38.4,35.6
			c-12.8,11.5-25.6,22.9-38.3,34.4C278.6,439.2,278.5,439.7,277.9,440.6z"/>
		<path class="st3" d="M521.1,766.9c-13.2-13.6-26.4-27.2-39.6-40.8c-11-11.4-22-22.9-33-34.3c-3.1-3.2-3.1-3.1-6.6-1.6
			c-23.8,10.2-47.6,10.1-70.8-1.7c-26.3-13.4-41.2-35.2-44.4-64.4c-2.6-23.3,3.8-44.5,19.3-62.3c13.4-15.4,30.4-24.8,50.8-27.4
			c23.5-3,44.7,2.7,63.1,17.7c15.7,12.9,25.6,29.4,28.8,49.6c4,25.3-2.3,47.8-18.7,67.5c-1.1,1.4-2.4,2.7-3.7,3.8
			c-1.7,1.4-1.8,2.5-0.5,4.5c7.7,11.6,15.2,23.3,22.8,35c11.4,17.5,22.7,35.1,34.1,52.6c0.5,0.5,0.3,1.4,1,1.7l0,0
			c0.1,0.4,0.5,0.7,0.7,1l0,0c0.7,0.9,0.6,1.5-0.7,1.6l-0.1-0.1c-0.4-0.2-0.6-0.4-0.8-0.8l-0.1-0.1c-0.4-0.2-0.6-0.4-0.8-0.8
			l-0.1-0.1C521.5,767.5,521.2,767.3,521.1,766.9z"/>
		<path class="st3" d="M331.1,694.9c-12.1-12.6-24.3-25.1-36.4-37.7c-4.1-4.3-8.4-8.4-12.4-12.7c-7.6-8.1-15.5-15.9-23.4-24
			c-2.5,1.3-3.7,3.8-5.5,5.6c-7.6,7.5-15.1,15.1-22.5,22.8c-13.6,14.2-27.2,28.5-41.2,42.5c-1.7,0.1-1.6-0.8-1-1.9
			c5.7-8.9,11.3-17.7,17-26.5c11.8-18.1,23.6-36.3,35.4-54.4c0.6-0.9,1-1.8,1.6-2.7c0.7-1.1,0.5-2-0.4-2.8c-0.4-0.4-0.8-0.8-1.3-1.3
			c-7.3-7.4-14.6-14.8-21.8-22.2c-11.3-11.7-22.6-23.5-33.9-35.3c-0.2-0.2-0.3-0.5-0.4-0.8c0.6-1.3,1.8-0.6,2.7-0.7
			c14.1,0,28.2,0.1,42.3-0.1c3,0,4.5,1,6,3.4c7,11,14.1,21.9,21.3,32.8c0.4,0.6,0.8,1.2,1.5,2.2c3.5-5.4,6.9-10.6,10.3-15.8
			c4.4-6.7,8.8-13.4,13.1-20.2c1.1-1.7,2.3-2.4,4.3-2.4c15,0.1,30,0,45,0.1c0.3,0,0.5,0.1,0.9,0.2c0.6,1.3-0.6,1.8-1.2,2.5
			c-11.1,11.5-22.3,22.9-33.5,34.4c-7.2,7.4-14.3,15-21.6,22.4c-1.7,1.7-1.8,2.9-0.5,4.9c9.4,14.2,18.6,28.5,27.9,42.8
			c9.5,14.7,19.1,29.3,28.6,44C332.3,694.9,331.9,695.1,331.1,694.9z"/>
		<path class="st5" d="M188.6,689.4c0.1,0.8,0.2,1.5,1,1.9c-0.7,1.6-2,2.7-3.4,3.6c-0.4,0.2-0.7,0.2-1.1-0.1
			C186.1,692.9,187.1,691,188.6,689.4z"/>
		<path class="st6" d="M493.1,862.1c0.4,0.4,0.7,0.7,1.1,1.1c-0.6,1.2-1.3,2.1-3,2.4C491.2,864,492,863,493.1,862.1z"/>
		<path class="st7" d="M523.7,769.5c0.7-0.3,0.6-1,0.7-1.6c1,0.8,1.9,1.7,1.9,3.5C524.9,771.3,524.2,770.6,523.7,769.5z"/>
		<path class="st8" d="M331.1,694.9c0.3-0.3,0.6-0.6,0.9-0.9c0.9,0.5,1.5,1.3,0.6,2C332,696.5,331.3,695.7,331.1,694.9z"/>
		<path class="st7" d="M523.7,766.9c-0.8-0.3-1.1-0.9-1-1.7C523.4,765.5,523.6,766.1,523.7,766.9z"/>
		<path class="st9" d="M185.2,694.8c0.4,0,0.7,0.1,1.1,0.1c-0.3,0.3-0.5,0.8-0.8,0.8C185.1,695.7,185,695.2,185.2,694.8z"/>
		<path class="st7" d="M521.1,766.9c0.5,0,0.7,0.3,0.8,0.8C521.4,767.6,521.1,767.4,521.1,766.9z"/>
		<path class="st7" d="M524.4,767.9c-0.5-0.2-0.7-0.5-0.7-1C524.1,767,524.4,767.3,524.4,767.9z"/>
		<path class="st7" d="M521.9,767.8c0.5,0.1,0.7,0.3,0.8,0.8C522.2,768.5,522,768.2,521.9,767.8z"/>
		<path class="st7" d="M522.8,768.7c0.5,0.1,0.7,0.3,0.8,0.8C523.1,769.4,522.9,769.1,522.8,768.7z"/>
		<path class="st0" d="M720.7,320c0.6,16.4-2.1,32.4-8.9,47.5c-12.7,28.1-33.2,48.7-61.9,60c-27.7,10.9-55.6,10.3-82.8-2.5
			c-11.9-5.6-22-13.8-30.9-23.5c-8.7-9.3-15.8-19.6-21.2-31.1c-6.4-13.5-9.8-27.9-11-42.8c-1-13.1-0.3-26,2.7-38.8
			c4.2-18.3,12.6-34.4,24.8-48.6c9.6-11.1,20.6-20.5,33.7-27.1c16.3-8.3,33.7-11.7,52-10.7c25.3,1.4,46.9,10.9,65.5,28.1
			c22.7,21.1,35.5,47,38.1,77.9C721,312.1,720.7,316,720.7,320z"/>
		<path class="st0" d="M422.3,665c-24.7,7.4-51-5.3-61.4-28.5c-10.9-24.2-1.4-52.1,20.8-65.3c22.3-13.3,49.4-8,65.6,11
			c17.3,20.3,15.8,48.3,0.1,66.2c-1.9-1.8-3.1-4.2-4.5-6.3c-4.6-7.1-9.2-14.2-13.8-21.3c-1-1.5-2-2.7-4.1-2.7
			c-15.4,0.1-30.9,0-46.2,0c-0.9,1.5,0.3,2,1,2.7c10.4,10.8,20.9,21.5,31.3,32.2C414.7,656.8,418.3,660.7,422.3,665z"/>
	</g>
</g>
</svg>
