<svg id="Layer_1" xmlns="http://www.w3.org/2000/svg" width="1000" height="1000"><style>.st0{fill:#fff}.st1{fill:#231f20}.st3{fill:#b72026}.st7{fill:#ca5f63}</style><path class="st0" d="M194.1 194.1h611.8v611.8H194.1z"/><path class="st1" d="M211.7 512.1v-69.9l118.1-109.8c9.9-9 19-18.8 27.1-29 7.2-9.1 10.7-19.8 10.7-32.6 0-11.8-3.5-21.2-10.8-28.8-7.2-7.4-16.4-11-28.1-11-14.1 0-24.4 4.5-31.5 13.7-7.7 9.9-11.2 21.2-11 34.5v14.7l-78.1-.6v-21.1c0-31.8 11.5-59.7 34.2-82.9 22.8-23.2 50.6-35 82.8-35 33.6 0 62.4 11.4 85.6 34 23.3 22.6 35 51.3 35 85.3 0 14.6-2.6 28.6-7.6 41.5-5 12.7-11.9 24.8-20.5 35.9l-.3.4-42.6 44.5-46.4 41.5h117.4v75h-234z"/><path class="st0" d="M325.1 163.2c31.3 0 57.8 10.5 79.3 31.4s32.3 47.2 32.3 78.9c0 13.6-2.3 26.3-7 38.2-4.7 11.9-11.1 23.1-19.2 33.7l-42 43.9-63.7 57h132v57H220.7v-57L336 339.2c10.3-9.3 19.6-19.4 28-30.1 8.4-10.7 12.7-23.4 12.7-38.2 0-14.2-4.5-25.8-13.3-35-8.9-9.2-20.4-13.8-34.6-13.8-16.9 0-29.8 5.7-38.7 17.2-8.9 11.4-13.2 24.9-12.9 40.2v5.4l-60.1-.5v-12.2c0-29.5 10.5-55.1 31.6-76.6 21.1-21.6 46.6-32.4 76.4-32.4m0-18c-34.7 0-64.7 12.7-89.3 37.7-24.4 24.9-36.8 54.9-36.8 89.2V302.2l17.9.1 60.1.5 18.1.1V279c-.2-11.2 2.7-20.7 9.1-28.8 3.4-4.4 9.6-10.2 24.4-10.2 9.3 0 16.2 2.6 21.7 8.3 5.6 5.8 8.3 13 8.3 22.5 0 10.7-2.9 19.5-8.8 27-7.8 9.9-16.6 19.3-26 27.9l-.1.1-.1.1L208.4 433l-5.7 5.3v82.8h252.1v-93H352l28.6-25.5.5-.5.5-.5 42-43.9.7-.7.6-.8c9.1-11.8 16.4-24.6 21.7-38.1 5.5-14 8.3-29.1 8.3-44.8 0-36.5-12.7-67.4-37.8-91.8-25.1-24-56-36.3-92-36.3z"/><g><path class="st1" d="M580.7 697.5l-85.8-3.5 49.9-75.2 68.7-105.9c-4 .3-7.4.5-10.5.5-46.9 0-86.9-17-118.9-50.5-31.9-33.4-48-75-48-123.7 0-52.1 17.1-96.5 51-131.8C521 171.9 563.5 154 613.3 154c48.8 0 91.2 17.8 126.1 53 34.9 35.2 52.6 77.9 52.6 127.1 0 37.8-13.1 77.5-38.9 117.9L646.2 620.2l74.6 7.3-18 15.9-254.5 263.1 132.4-209zM613.3 235c-25.1 0-46 9.3-64 28.3-18.1 19.1-26.9 41.7-26.9 68.8 0 28.2 8.7 51.5 26.7 71.1 17.7 19.4 38.5 28.9 63.5 28.9 25.7 0 47.1-9.1 65.6-27.7 18.5-18.7 27.5-40.9 27.5-68v-3.6c0-27.1-8.9-49.8-27.3-69.2-18.3-19.2-39.6-28.6-65.1-28.6z"/><path class="st0" d="M613.3 162.9c46.5 0 86.4 16.8 119.7 50.3S783 287 783 334c0 36.2-12.5 73.9-37.5 113.1L630.8 627.8l68.6 6.7-2.8 2.5-193.7 200.1 93.8-148-85.4-3.5 41.1-61.9 79.3-122.3c-12.2 1.9-21.8 2.9-28.6 2.9-44.6 0-82-15.9-112.3-47.7-30.4-31.8-45.5-71-45.5-117.5 0-49.9 16.1-91.8 48.5-125.6 32.1-33.7 72-50.6 119.5-50.6m-.7 278.3c27.9 0 51.9-10.1 72-30.4 20.1-20.3 30.1-45 30.1-74.3v-3.6c0-29.3-9.9-54.4-29.7-75.4-19.8-21-43.7-31.5-71.6-31.5-27.4 0-50.9 10.4-70.5 31.1-19.6 20.7-29.4 45.7-29.4 75 0 30.2 9.7 56 29 77.2 19.3 21.3 42.6 31.9 70.1 31.9m.7-296.3c-52.4 0-97 18.9-132.7 56.2-35.5 37.1-53.5 83.5-53.5 138 0 51.1 17 94.8 50.5 129.9 32.3 33.9 72.3 51.7 119.1 53.2l-59.4 91.6-41 61.8-17.7 26.6 31.9 1.3 54.3 2.2-77.1 121.6-94.1 148.5 122.2-126.3L709 649.8l2.3-2 31-27.4-41.2-4-39.5-3.9 99-156c26.7-41.9 40.3-83.2 40.3-122.7 0-51.7-18.6-96.6-55.2-133.5-36.6-36.7-81.2-55.4-132.4-55.4zm-.7 278.3c-22.3 0-40.9-8.5-56.8-25.9-16.4-18-24.3-39.2-24.3-65.1 0-24.8 8-45.2 24.4-62.6 16.2-17.2 35-25.5 57.4-25.5 22.9 0 42.1 8.5 58.5 25.8 16.7 17.7 24.8 38.3 24.8 63v3.6c0 24.6-8.1 44.7-24.9 61.6-16.7 16.9-36 25.1-59.1 25.1z"/></g><g><path d="M357.1 681L266 540.6h-44.7zM535.1 750.4L444 609.9l-44.7.1z"/><path d="M221.3 681l91.1-140.4h44.7z"/><circle cx="426.5" cy="607.1" r="61.4" fill="none" stroke="#000" stroke-width="16.0994" stroke-miterlimit="10"/><g><path class="st3" d="M504.8 833.9c5.6-9 11.2-18 16.9-27 15.3-24.1 30.5-48.1 45.7-72.2 9-14.2 17.9-28.3 26.9-42.5.5-.7.9-1.6 1.7-2.9-28.3-1.2-56.3-2.3-84.2-3.5-.3-1.9 1-2.9 1.7-4.1 8.6-12.9 17.2-25.6 25.6-38.5 20.3-31.1 40.5-62.2 60.7-93.2 9.7-14.9 19.2-29.8 28.9-44.7.6-.8 1.1-1.6 1.2-2.8-4.8.6-9.5.9-14.2 1.6-5.8.8-11.7.9-17.6.7-15.6-.4-30.9-2.8-45.7-7.6-20.2-6.7-38-17.5-53.7-31.9-13.2-12.2-24.4-26-33.1-41.7-10.8-19.5-17-40.4-19.3-62.4-.8-7.5-1.4-15.2-1.2-22.8.5-24.8 4.2-49 13.9-72.1 7.3-17.2 17.1-32.8 29.5-46.8 13.9-15.6 29.8-28.8 48.4-38.4 12.8-6.6 26.2-11.3 40.4-14.2 15.8-3.2 31.8-4.2 47.9-3.2 29 1.8 55.8 10.5 80.1 26.7 24.1 16.1 43.5 36.7 57.6 62 11.3 20.3 17.6 42.1 19.7 65.3 2.9 32.6-3.4 63.4-16.6 93.1-7.4 16.6-16.8 32.1-26.6 47.4-17.7 27.7-35.2 55.4-52.9 83.2-15.1 23.7-30.1 47.4-45.1 71.1-3.1 4.9-6.3 9.8-9.6 15.2 22.9 2.3 45.2 4.5 68.3 6.7-3.5 3.6-6.5 6.6-9.5 9.7-6.5 7-13.3 13.7-20 20.5-12.7 13.1-25.5 26.2-38.2 39.4-7.6 7.8-15.2 15.7-22.7 23.5-12.6 13.1-25.2 26-37.8 39.1-7.9 8.1-15.7 16.3-23.6 24.4-12.4 12.9-24.8 25.7-37.2 38.5-1.7 1.8-3.3 4-5.3 5.6-.9 0-1.2-.3-1-1.2z"/><path d="M306.9 446.3h125.9c5.8 0 4.9-.6 4.9 5.1v48.3c0 3.6.7 4-3.6 4H224.9c-3.3 0-3.4 0-3.4-3.3 0-17.1 0-34.1-.1-51.2 0-2.2.7-3.6 2.2-5 6.6-6.1 13.1-12.3 19.7-18.4 6.9-6.3 13.8-12.7 20.7-19.1 8.9-8.2 17.8-16.5 26.7-24.7 6.6-6.2 13.1-12.3 19.7-18.4 8.7-8.2 17.7-16.2 26.3-24.5 10.9-10.4 21.7-20.8 30.2-33.3 10.8-16 13.3-33.6 7.4-51.9-5.1-15.5-15.9-25.8-32.1-29.7-13.2-3.2-26.2-2-38.3 4.6-10.9 6-17.4 15.8-21.8 27.1-2.9 7.5-4 15.4-3.9 23.5 0 1.4-.1 2.8 0 4.1.1 1.7-.7 2-2.2 2-2.6 0-5.1-.6-7.7-.6-15 .1-30.1 0-45.1 0h-3.3c-1.6-.1-2.4-.7-2.4-2.6-.2-13.6.5-27.2 4.2-40.4 4.1-14.4 11.2-27.4 20.9-38.9 9.8-11.7 21.2-21.5 34.8-28.5 12.8-6.5 26.3-10 40.6-10.9 19.2-1.2 37.7 1.5 55.4 9.4 14.5 6.4 26.8 15.9 37.4 27.7 10.5 11.8 18 25.2 22.3 40.4 2.2 7.7 3.2 15.6 4 23.6 1.3 15-.6 29.5-5.3 43.8-4.6 13.3-11.5 25.6-20.1 36.7-2.6 3.3-5.7 6.3-8.6 9.3-8.2 8.6-16.6 16.8-24.6 25.6-11 12-23.5 22.2-35.5 32.9-11.8 10.6-23.5 21.1-35.2 31.6-.3.4-.4.9-.9 1.7z" fill="#040707"/><path class="st3" d="M530.5 746.4c-12.1-12.5-24.3-25-36.4-37.5-10.1-10.5-20.2-21.1-30.3-31.5-2.9-2.9-2.9-2.9-6.1-1.5-21.9 9.4-43.8 9.3-65.1-1.6-24.2-12.3-37.9-32.4-40.8-59.2-2.4-21.4 3.5-40.9 17.7-57.3 12.3-14.2 28-22.8 46.7-25.2 21.6-2.8 41.1 2.5 58 16.3 14.4 11.9 23.5 27 26.5 45.6 3.7 23.3-2.1 44-17.2 62.1-1 1.3-2.2 2.5-3.4 3.5-1.6 1.3-1.7 2.3-.5 4.1 7.1 10.7 14 21.4 21 32.2 10.5 16.1 20.9 32.3 31.4 48.4.5.5.3 1.3.9 1.6.1.4.5.6.6.9.6.8.6 1.4-.6 1.5l-.1-.1c-.4-.2-.6-.4-.7-.7l-.1-.1c-.4-.2-.6-.4-.7-.7l-.1-.1c-.3-.2-.6-.4-.7-.7z"/><path class="st3" d="M355.8 680.2c-11.1-11.6-22.3-23.1-33.5-34.7-3.8-4-7.7-7.7-11.4-11.7-7-7.4-14.3-14.6-21.5-22.1-2.3 1.2-3.4 3.5-5.1 5.1-7 6.9-13.9 13.9-20.7 21-12.5 13.1-25 26.2-37.9 39.1-1.6.1-1.5-.7-.9-1.7 5.2-8.2 10.4-16.3 15.6-24.4 10.9-16.6 21.7-33.4 32.6-50 .6-.8.9-1.7 1.5-2.5.6-1 .5-1.8-.4-2.6l-1.2-1.2c-6.7-6.8-13.4-13.6-20-20.4-10.4-10.8-20.8-21.6-31.2-32.5-.2-.2-.3-.5-.4-.7.6-1.2 1.7-.6 2.5-.6 13 0 25.9.1 38.9-.1 2.8 0 4.1.9 5.5 3.1 6.4 10.1 13 20.1 19.6 30.2.4.6.7 1.1 1.4 2 3.2-5 6.3-9.7 9.5-14.5 4-6.2 8.1-12.3 12-18.6 1-1.6 2.1-2.2 4-2.2 13.8.1 27.6 0 41.4.1.3 0 .5.1.8.2.6 1.2-.6 1.7-1.1 2.3-10.2 10.6-20.5 21.1-30.8 31.6-6.6 6.8-13.1 13.8-19.9 20.6-1.6 1.6-1.7 2.7-.5 4.5 8.6 13.1 17.1 26.2 25.7 39.4 8.7 13.5 17.6 26.9 26.3 40.5.3.8-.1.9-.8.8z"/><path d="M224.8 675.1c.1.7.2 1.4.9 1.7-.6 1.5-1.8 2.5-3.1 3.3-.4.2-.6.2-1-.1.9-1.7 1.8-3.4 3.2-4.9z" fill="#c33f45"/><path d="M504.8 833.9l1 1c-.6 1.1-1.2 1.9-2.8 2.2 0-1.4.7-2.4 1.8-3.2z" fill="#cc6468"/><path class="st7" d="M532.9 748.8c.6-.3.6-.9.6-1.5.9.7 1.7 1.6 1.7 3.2-1.2-.1-1.8-.7-2.3-1.7z"/><path d="M355.8 680.2l.8-.8c.8.5 1.4 1.2.6 1.8-.6.4-1.2-.3-1.4-1z" fill="#d98f92"/><path class="st7" d="M532.9 746.4c-.7-.3-1-.8-.9-1.6.6.3.8.8.9 1.6z"/><path d="M221.6 680.1c.4 0 .6.1 1 .1-.3.3-.5.7-.7.7-.3 0-.4-.5-.3-.8z" fill="#bc343a"/><path class="st7" d="M530.5 746.4c.5 0 .6.3.7.7-.4-.1-.7-.3-.7-.7zM533.5 747.3c-.5-.2-.6-.5-.6-.9.4.1.6.3.6.9zM531.2 747.2c.5.1.6.3.7.7-.4-.1-.6-.3-.7-.7zM532.1 748c.5.1.6.3.7.7-.5 0-.6-.3-.7-.7z"/><path class="st0" d="M714 335.4c.6 15.1-1.9 29.8-8.2 43.7-11.7 25.8-30.5 44.8-56.9 55.2-25.5 10-51.1 9.5-76.1-2.3-10.9-5.1-20.2-12.7-28.4-21.6-8-8.6-14.5-18-19.5-28.6-5.9-12.4-9-25.7-10.1-39.4-.9-12-.3-23.9 2.5-35.7 3.9-16.8 11.6-31.6 22.8-44.7 8.8-10.2 18.9-18.8 31-24.9 15-7.6 31-10.8 47.8-9.8 23.3 1.3 43.1 10 60.2 25.8 20.9 19.4 32.6 43.2 35 71.6.2 3.5-.1 7.1-.1 10.7zM439.7 652.7c-22.7 6.8-46.9-4.9-56.5-26.2-10-22.3-1.3-47.9 19.1-60 20.5-12.2 45.4-7.4 60.3 10.1 15.9 18.7 14.5 44.4.1 60.9-1.7-1.7-2.9-3.9-4.1-5.8-4.2-6.5-8.5-13.1-12.7-19.6-.9-1.4-1.8-2.5-3.8-2.5-14.2.1-28.4 0-42.5 0-.8 1.4.3 1.8.9 2.5 9.6 9.9 19.2 19.8 28.8 29.6 3.4 3.4 6.7 7 10.4 11z"/></g></g></svg>