<?xml version="1.0" encoding="utf-8"?>
<!-- Generator: Adobe Illustrator 22.0.0, SVG Export Plug-In . SVG Version: 6.00 Build 0)  -->
<svg version="1.1" id="Layer_1" xmlns="http://www.w3.org/2000/svg" xmlns:xlink="http://www.w3.org/1999/xlink" x="0px" y="0px"
	 width="512px" height="512px" viewBox="0 0 512 512" style="enable-background:new 0 0 512 512;" xml:space="preserve">
<style type="text/css">
	.st0{fill:#333333;}
	.st1{fill:#BD202D;}
</style>
<g>
	<path class="st0" d="M120.4,374.9l51.5,86.7c0,0,5,10,27.5-3.5s4.1,19,4.1,19l-27.1,10.5l-30.9-29l-42.5-80.1l18-8.4L120.4,374.9z"
		/>
	<path class="st0" d="M33.4,281.3c0,0,10.8,76.3,30.8,64.8c27.9-16.1,34.8-11.9,53.3,19c-29.2,23.9-23.5,17.5-23.5,17.5l-42,2.5
		l-29.5-19l-11.5-35.5l9-35.5L33.4,281.3z"/>
	<g>
		<g>
			<path d="M139.2,315.3c-0.5,1.9-1.8,3.5-3.5,4.5c-1.7,1-3.8,1.3-5.7,0.8c-1.9-0.5-3.6-1.8-4.6-3.5c-1-1.7-1.3-3.8-0.7-5.7
				c0.5-1.9,1.8-3.5,3.5-4.5c1.2-0.7,2.5-1,3.7-1c2.6,0,5.1,1.3,6.5,3.7C139.5,311.3,139.7,313.3,139.2,315.3z"/>
			<path class="st1" d="M139.2,315.3c-0.5,1.9-1.8,3.5-3.5,4.5c-1.7,1-3.8,1.3-5.7,0.8c-1.9-0.5-3.6-1.8-4.6-3.5
				c-1-1.7-1.3-3.8-0.7-5.7c0.5-1.9,1.8-3.5,3.5-4.5c1.2-0.7,2.5-1,3.7-1c2.6,0,5.1,1.3,6.5,3.7
				C139.5,311.3,139.7,313.3,139.2,315.3z"/>
		</g>
		<g>
			<path class="st1" d="M416,253.8l-34-58.9l22.1-33.5c1.6-2.4,1.7-5.4,0.2-7.9l-20-34.6c-1.4-2.4-4.2-3.9-7-3.7l-40,2.4l-37.7-65.2
				c-4.9-8.5-13.7-13.6-23.5-13.8h-0.4c-9.4,0-18.1,4.7-23.2,12.7l-0.1,0.2L121.6,218.3l-0.4,0.3l-84.9,49
				c-15.6,9-26.8,23.5-31.4,41c-4.7,17.4-2.3,35.6,6.7,51.2c16.7,28.9,52.6,41.3,83.5,28.9l2-0.8l51.4,89.1
				c5,8.7,13.1,14.9,22.8,17.5c9.7,2.6,19.8,1.3,28.4-3.7c8.7-5,14.9-13.1,17.5-22.8c2.6-9.7,1.3-19.8-3.8-28.5l-31.3-54.1
				l28.1-16.3c3.6-2.1,4.8-6.7,2.7-10.2l-14.8-25.6l3.4-0.7c1.6-0.3,12.2-2.4,190.6-37.4l1.3-0.2c9.6-0.5,18.1-5.9,22.7-14.4
				C420.9,272.2,420.8,262.2,416,253.8z M373.6,130.5l15.4,26.6l-15.4,23.3l-27.9-48.3L373.6,130.5z M96.3,371.5
				c-8.3,4.8-17.3,7-26.2,7c-18.2,0-35.8-9.4-45.6-26.2c-4.6-8-7-17-7-26.2c0-18.7,10.1-36.2,26.3-45.5l80.1-46.3l52.5,90.9
				L96.3,371.5z M200.4,446.9C200.4,446.9,200.4,446.9,200.4,446.9c0,0.1,0.1,0.1,0.1,0.1c2,3.5,3,7.3,3,11.2c0,2-0.3,3.9-0.8,5.8
				c-1.6,5.8-5.3,10.7-10.5,13.7c-3.4,2-7.3,3-11.2,3c-2,0-4-0.3-5.9-0.8c-5.8-1.6-10.6-5.3-13.6-10.5l-51.3-88.8l39-22.5l31.4,54.3
				C196.9,440.7,200,446.1,200.4,446.9z M174.7,372.4l-12.5-21.6l21.6-12.5l12.5,21.6L174.7,372.4z M190.4,319.6l-54.8-94.9
				L250.9,77.9l119.2,206.5L190.4,319.6z M403,273.7c-2.2,3.9-6.1,6.3-10.6,6.4c-0.7,0-1.1,0.1-2.4,0.4c-0.7,0.1-1.5,0.3-2.7,0.5
				l-1.7,0.3L260.9,65.2l1-1.3c0.9-1.1,1.5-1.9,2-2.5c0.9-1.1,1-1.3,1.3-1.7c3.3-5.4,8.6-6,10.6-6h0.3c2.1,0,7.4,0.7,10.6,6.2
				L403,261.3C405.2,265.2,405.2,269.8,403,273.7z"/>
		</g>
		<g>
			<path class="st1" d="M509.2,68.3c-0.5,1.9-1.8,3.5-3.6,4.5l-55.7,31c-1.8,1-3.8,1.2-5.7,0.7c-1.9-0.6-3.5-1.8-4.5-3.6
				c-2-3.6-0.7-8.2,2.9-10.2l55.7-31c1.1-0.6,2.4-1,3.6-1c0.7,0,1.4,0.1,2.1,0.3c1.9,0.5,3.5,1.8,4.5,3.6
				C509.5,64.3,509.8,66.4,509.2,68.3z"/>
		</g>
		<g>
			<path class="st1" d="M452,153.1c-0.6-0.2-1.3-0.3-1.9-0.3c-3.3,0-6.4,2.2-7.2,5.6c-1.1,4,1.3,8.1,5.3,9.2l38.6,10.4
				c1.9,0.5,4,0.3,5.7-0.8c1.7-1,3-2.6,3.5-4.5c0.5-1.9,0.3-4-0.8-5.7c-1-1.7-2.6-3-4.6-3.5h0"/>
		</g>
		<g>
			<path class="st1" d="M411.1,25.7l-10.3,38.6c-1.1,4-5.2,6.4-9.2,5.3c-4-1.1-6.4-5.2-5.3-9.2l10.4-38.6c0.5-1.9,1.8-3.5,3.5-4.5
				c1.2-0.7,2.4-1,3.7-1c0.7,0,1.3,0.1,2,0.3C409.8,17.6,412.2,21.7,411.1,25.7z"/>
		</g>
	</g>
</g>
</svg>
