<?xml version="1.0" encoding="utf-8"?>
<!-- Generator: Adobe Illustrator 22.0.0, SVG Export Plug-In . SVG Version: 6.00 Build 0)  -->
<svg version="1.1" id="Layer_1" xmlns="http://www.w3.org/2000/svg" xmlns:xlink="http://www.w3.org/1999/xlink" x="0px" y="0px"
	 width="511px" height="511px" viewBox="0 0 511 511" style="enable-background:new 0 0 511 511;" xml:space="preserve">
<style type="text/css">
	.st0{fill:#333333;}
	.st1{fill:#BD202D;}
	.st2{fill:#FFFFFF;}
</style>
<path class="st0" d="M163.5,441.3h116h49c0,0,62.4-1.3,62.2,11.3c-0.3,13-22,19.2-22,19.2H129.8l-9.1-410.2"/>
<g>
	<g>
		<g>
			<g>
				<g>
					<g>
						<path class="st1" d="M305.6,202.3c-5-5.2-10.9-7.9-17.9-7.9c-6.8,0-12.7,2.6-17.6,7.8c-4.9,5.2-7.3,11.4-7.3,18.7
							c0,7.5,2.4,14,7.2,19.3c4.8,5.3,10.7,7.9,17.5,7.9c7,0,13-2.5,18-7.6s7.5-11.2,7.5-18.5v-0.9
							C313.1,213.8,310.6,207.6,305.6,202.3z M298.1,222c0,3.4-0.9,5.7-3.2,8c-2.2,2.2-4.4,3.2-7.3,3.2c-1.9,0-4-0.4-6.4-3
							c-2.3-2.5-3.3-5.4-3.3-9.2c0-3.5,1-6,3.2-8.4c2.1-2.2,4-3.1,6.7-3.1c2.8,0,4.9,0.9,7,3.2c2.3,2.5,3.3,5,3.3,8.5V222z
							 M305.6,202.3c-5-5.2-10.9-7.9-17.9-7.9c-6.8,0-12.7,2.6-17.6,7.8c-4.9,5.2-7.3,11.4-7.3,18.7c0,7.5,2.4,14,7.2,19.3
							c4.8,5.3,10.7,7.9,17.5,7.9c7,0,13-2.5,18-7.6s7.5-11.2,7.5-18.5v-0.9C313.1,213.8,310.6,207.6,305.6,202.3z M298.1,222
							c0,3.4-0.9,5.7-3.2,8c-2.2,2.2-4.4,3.2-7.3,3.2c-1.9,0-4-0.4-6.4-3c-2.3-2.5-3.3-5.4-3.3-9.2c0-3.5,1-6,3.2-8.4
							c2.1-2.2,4-3.1,6.7-3.1c2.8,0,4.9,0.9,7,3.2c2.3,2.5,3.3,5,3.3,8.5V222z M305.6,202.3c-5-5.2-10.9-7.9-17.9-7.9
							c-6.8,0-12.7,2.6-17.6,7.8c-4.9,5.2-7.3,11.4-7.3,18.7c0,7.5,2.4,14,7.2,19.3c4.8,5.3,10.7,7.9,17.5,7.9c7,0,13-2.5,18-7.6
							s7.5-11.2,7.5-18.5v-0.9C313.1,213.8,310.6,207.6,305.6,202.3z M298.1,222c0,3.4-0.9,5.7-3.2,8c-2.2,2.2-4.4,3.2-7.3,3.2
							c-1.9,0-4-0.4-6.4-3c-2.3-2.5-3.3-5.4-3.3-9.2c0-3.5,1-6,3.2-8.4c2.1-2.2,4-3.1,6.7-3.1c2.8,0,4.9,0.9,7,3.2
							c2.3,2.5,3.3,5,3.3,8.5V222z M305.6,202.3c-5-5.2-10.9-7.9-17.9-7.9c-6.8,0-12.7,2.6-17.6,7.8c-4.9,5.2-7.3,11.4-7.3,18.7
							c0,7.5,2.4,14,7.2,19.3c4.8,5.3,10.7,7.9,17.5,7.9c7,0,13-2.5,18-7.6s7.5-11.2,7.5-18.5v-0.9
							C313.1,213.8,310.6,207.6,305.6,202.3z M298.1,222c0,3.4-0.9,5.7-3.2,8c-2.2,2.2-4.4,3.2-7.3,3.2c-1.9,0-4-0.4-6.4-3
							c-2.3-2.5-3.3-5.4-3.3-9.2c0-3.5,1-6,3.2-8.4c2.1-2.2,4-3.1,6.7-3.1c2.8,0,4.9,0.9,7,3.2c2.3,2.5,3.3,5,3.3,8.5V222z
							 M305.6,202.3c-5-5.2-10.9-7.9-17.9-7.9c-6.8,0-12.7,2.6-17.6,7.8c-4.9,5.2-7.3,11.4-7.3,18.7c0,7.5,2.4,14,7.2,19.3
							c4.8,5.3,10.7,7.9,17.5,7.9c7,0,13-2.5,18-7.6s7.5-11.2,7.5-18.5v-0.9C313.1,213.8,310.6,207.6,305.6,202.3z M298.1,222
							c0,3.4-0.9,5.7-3.2,8c-2.2,2.2-4.4,3.2-7.3,3.2c-1.9,0-4-0.4-6.4-3c-2.3-2.5-3.3-5.4-3.3-9.2c0-3.5,1-6,3.2-8.4
							c2.1-2.2,4-3.1,6.7-3.1c2.8,0,4.9,0.9,7,3.2c2.3,2.5,3.3,5,3.3,8.5V222z M305.6,202.3c-5-5.2-10.9-7.9-17.9-7.9
							c-6.8,0-12.7,2.6-17.6,7.8c-4.9,5.2-7.3,11.4-7.3,18.7c0,7.5,2.4,14,7.2,19.3c4.8,5.3,10.7,7.9,17.5,7.9c7,0,13-2.5,18-7.6
							s7.5-11.2,7.5-18.5v-0.9C313.1,213.8,310.6,207.6,305.6,202.3z M298.1,222c0,3.4-0.9,5.7-3.2,8c-2.2,2.2-4.4,3.2-7.3,3.2
							c-1.9,0-4-0.4-6.4-3c-2.3-2.5-3.3-5.4-3.3-9.2c0-3.5,1-6,3.2-8.4c2.1-2.2,4-3.1,6.7-3.1c2.8,0,4.9,0.9,7,3.2
							c2.3,2.5,3.3,5,3.3,8.5V222z M275.9,309.7l-9.2-0.4l7.7,11.9c0.4,0.6,0.7,1.2,0.9,1.9l4.6-7.2l3.7-5.8L275.9,309.7z
							 M305.6,202.3c-5-5.2-10.9-7.9-17.9-7.9c-6.8,0-12.7,2.6-17.6,7.8c-4.9,5.2-7.3,11.4-7.3,18.7c0,7.5,2.4,14,7.2,19.3
							c4.8,5.3,10.7,7.9,17.5,7.9c7,0,13-2.5,18-7.6s7.5-11.2,7.5-18.5v-0.9C313.1,213.8,310.6,207.6,305.6,202.3z M298.1,222
							c0,3.4-0.9,5.7-3.2,8c-2.2,2.2-4.4,3.2-7.3,3.2c-1.9,0-4-0.4-6.4-3c-2.3-2.5-3.3-5.4-3.3-9.2c0-3.5,1-6,3.2-8.4
							c2.1-2.2,4-3.1,6.7-3.1c2.8,0,4.9,0.9,7,3.2c2.3,2.5,3.3,5,3.3,8.5V222z M305.6,202.3c-5-5.2-10.9-7.9-17.9-7.9
							c-6.8,0-12.7,2.6-17.6,7.8c-4.9,5.2-7.3,11.4-7.3,18.7c0,7.5,2.4,14,7.2,19.3c4.8,5.3,10.7,7.9,17.5,7.9c7,0,13-2.5,18-7.6
							s7.5-11.2,7.5-18.5v-0.9C313.1,213.8,310.6,207.6,305.6,202.3z M298.1,222c0,3.4-0.9,5.7-3.2,8c-2.2,2.2-4.4,3.2-7.3,3.2
							c-1.9,0-4-0.4-6.4-3c-2.3-2.5-3.3-5.4-3.3-9.2c0-3.5,1-6,3.2-8.4c2.1-2.2,4-3.1,6.7-3.1c2.8,0,4.9,0.9,7,3.2
							c2.3,2.5,3.3,5,3.3,8.5V222z M305.6,202.3c-5-5.2-10.9-7.9-17.9-7.9c-6.8,0-12.7,2.6-17.6,7.8c-4.9,5.2-7.3,11.4-7.3,18.7
							c0,7.5,2.4,14,7.2,19.3c4.8,5.3,10.7,7.9,17.5,7.9c7,0,13-2.5,18-7.6s7.5-11.2,7.5-18.5v-0.9
							C313.1,213.8,310.6,207.6,305.6,202.3z M298.1,222c0,3.4-0.9,5.7-3.2,8c-2.2,2.2-4.4,3.2-7.3,3.2c-1.9,0-4-0.4-6.4-3
							c-2.3-2.5-3.3-5.4-3.3-9.2c0-3.5,1-6,3.2-8.4c2.1-2.2,4-3.1,6.7-3.1c2.8,0,4.9,0.9,7,3.2c2.3,2.5,3.3,5,3.3,8.5V222z
							 M305.6,202.3c-5-5.2-10.9-7.9-17.9-7.9c-6.8,0-12.7,2.6-17.6,7.8c-4.9,5.2-7.3,11.4-7.3,18.7c0,7.5,2.4,14,7.2,19.3
							c4.8,5.3,10.7,7.9,17.5,7.9c7,0,13-2.5,18-7.6s7.5-11.2,7.5-18.5v-0.9C313.1,213.8,310.6,207.6,305.6,202.3z M298.1,222
							c0,3.4-0.9,5.7-3.2,8c-2.2,2.2-4.4,3.2-7.3,3.2c-1.9,0-4-0.4-6.4-3c-2.3-2.5-3.3-5.4-3.3-9.2c0-3.5,1-6,3.2-8.4
							c2.1-2.2,4-3.1,6.7-3.1c2.8,0,4.9,0.9,7,3.2c2.3,2.5,3.3,5,3.3,8.5V222z M305.6,202.3c-5-5.2-10.9-7.9-17.9-7.9
							c-6.8,0-12.7,2.6-17.6,7.8c-4.9,5.2-7.3,11.4-7.3,18.7c0,7.5,2.4,14,7.2,19.3c4.8,5.3,10.7,7.9,17.5,7.9c7,0,13-2.5,18-7.6
							s7.5-11.2,7.5-18.5v-0.9C313.1,213.8,310.6,207.6,305.6,202.3z M298.1,222c0,3.4-0.9,5.7-3.2,8c-2.2,2.2-4.4,3.2-7.3,3.2
							c-1.9,0-4-0.4-6.4-3c-2.3-2.5-3.3-5.4-3.3-9.2c0-3.5,1-6,3.2-8.4c2.1-2.2,4-3.1,6.7-3.1c2.8,0,4.9,0.9,7,3.2
							c2.3,2.5,3.3,5,3.3,8.5V222z M305.6,202.3c-5-5.2-10.9-7.9-17.9-7.9c-6.8,0-12.7,2.6-17.6,7.8c-4.9,5.2-7.3,11.4-7.3,18.7
							c0,7.5,2.4,14,7.2,19.3c4.8,5.3,10.7,7.9,17.5,7.9c7,0,13-2.5,18-7.6s7.5-11.2,7.5-18.5v-0.9
							C313.1,213.8,310.6,207.6,305.6,202.3z M298.1,222c0,3.4-0.9,5.7-3.2,8c-2.2,2.2-4.4,3.2-7.3,3.2c-1.9,0-4-0.4-6.4-3
							c-2.3-2.5-3.3-5.4-3.3-9.2c0-3.5,1-6,3.2-8.4c2.1-2.2,4-3.1,6.7-3.1c2.8,0,4.9,0.9,7,3.2c2.3,2.5,3.3,5,3.3,8.5V222z
							 M305.6,202.3c-5-5.2-10.9-7.9-17.9-7.9c-6.8,0-12.7,2.6-17.6,7.8c-4.9,5.2-7.3,11.4-7.3,18.7c0,7.5,2.4,14,7.2,19.3
							c4.8,5.3,10.7,7.9,17.5,7.9c7,0,13-2.5,18-7.6s7.5-11.2,7.5-18.5v-0.9C313.1,213.8,310.6,207.6,305.6,202.3z M298.1,222
							c0,3.4-0.9,5.7-3.2,8c-2.2,2.2-4.4,3.2-7.3,3.2c-1.9,0-4-0.4-6.4-3c-2.3-2.5-3.3-5.4-3.3-9.2c0-3.5,1-6,3.2-8.4
							c2.1-2.2,4-3.1,6.7-3.1c2.8,0,4.9,0.9,7,3.2c2.3,2.5,3.3,5,3.3,8.5V222z M305.6,202.3c-5-5.2-10.9-7.9-17.9-7.9
							c-6.8,0-12.7,2.6-17.6,7.8c-4.9,5.2-7.3,11.4-7.3,18.7c0,7.5,2.4,14,7.2,19.3c4.8,5.3,10.7,7.9,17.5,7.9c7,0,13-2.5,18-7.6
							s7.5-11.2,7.5-18.5v-0.9C313.1,213.8,310.6,207.6,305.6,202.3z M298.1,222c0,3.4-0.9,5.7-3.2,8c-2.2,2.2-4.4,3.2-7.3,3.2
							c-1.9,0-4-0.4-6.4-3c-2.3-2.5-3.3-5.4-3.3-9.2c0-3.5,1-6,3.2-8.4c2.1-2.2,4-3.1,6.7-3.1c2.8,0,4.9,0.9,7,3.2
							c2.3,2.5,3.3,5,3.3,8.5V222z M275.9,309.7l-9.2-0.4l7.7,11.9c0.4,0.6,0.7,1.2,0.9,1.9l4.6-7.2l3.7-5.8L275.9,309.7z
							 M283,323.4l-16.3,16.9c0.5,0.1,1,0.1,1.5,0.1c3.3,0,6.6-1.1,9.3-3.3C281.7,333.7,283.7,328.4,283,323.4z M305.6,202.3
							c-5-5.2-10.9-7.9-17.9-7.9c-6.8,0-12.7,2.6-17.6,7.8c-4.9,5.2-7.3,11.4-7.3,18.7c0,7.5,2.4,14,7.2,19.3
							c4.8,5.3,10.7,7.9,17.5,7.9c7,0,13-2.5,18-7.6s7.5-11.2,7.5-18.5v-0.9C313.1,213.8,310.6,207.6,305.6,202.3z M298.1,222
							c0,3.4-0.9,5.7-3.2,8c-2.2,2.2-4.4,3.2-7.3,3.2c-1.9,0-4-0.4-6.4-3c-2.3-2.5-3.3-5.4-3.3-9.2c0-3.5,1-6,3.2-8.4
							c2.1-2.2,4-3.1,6.7-3.1c2.8,0,4.9,0.9,7,3.2c2.3,2.5,3.3,5,3.3,8.5V222z M305.6,202.3c-5-5.2-10.9-7.9-17.9-7.9
							c-6.8,0-12.7,2.6-17.6,7.8c-4.9,5.2-7.3,11.4-7.3,18.7c0,7.5,2.4,14,7.2,19.3c4.8,5.3,10.7,7.9,17.5,7.9c7,0,13-2.5,18-7.6
							s7.5-11.2,7.5-18.5v-0.9C313.1,213.8,310.6,207.6,305.6,202.3z M298.1,222c0,3.4-0.9,5.7-3.2,8c-2.2,2.2-4.4,3.2-7.3,3.2
							c-1.9,0-4-0.4-6.4-3c-2.3-2.5-3.3-5.4-3.3-9.2c0-3.5,1-6,3.2-8.4c2.1-2.2,4-3.1,6.7-3.1c2.8,0,4.9,0.9,7,3.2
							c2.3,2.5,3.3,5,3.3,8.5V222z M275.9,309.7l-9.2-0.4l7.7,11.9c0.4,0.6,0.7,1.2,0.9,1.9l4.6-7.2l3.7-5.8L275.9,309.7z
							 M262.5,316.7l4.1,6.3l3.8-5.9L262.5,316.7z M266.6,322.9l-0.3,0.5l1.9,1.9L266.6,322.9z M305.6,202.3
							c-5-5.2-10.9-7.9-17.9-7.9c-6.8,0-12.7,2.6-17.6,7.8c-4.9,5.2-7.3,11.4-7.3,18.7c0,7.5,2.4,14,7.2,19.3
							c4.8,5.3,10.7,7.9,17.5,7.9c7,0,13-2.5,18-7.6s7.5-11.2,7.5-18.5v-0.9C313.1,213.8,310.6,207.6,305.6,202.3z M298.1,222
							c0,3.4-0.9,5.7-3.2,8c-2.2,2.2-4.4,3.2-7.3,3.2c-1.9,0-4-0.4-6.4-3c-2.3-2.5-3.3-5.4-3.3-9.2c0-3.5,1-6,3.2-8.4
							c2.1-2.2,4-3.1,6.7-3.1c2.8,0,4.9,0.9,7,3.2c2.3,2.5,3.3,5,3.3,8.5V222z M305.6,202.3c-5-5.2-10.9-7.9-17.9-7.9
							c-6.8,0-12.7,2.6-17.6,7.8c-4.9,5.2-7.3,11.4-7.3,18.7c0,7.5,2.4,14,7.2,19.3c4.8,5.3,10.7,7.9,17.5,7.9c7,0,13-2.5,18-7.6
							s7.5-11.2,7.5-18.5v-0.9C313.1,213.8,310.6,207.6,305.6,202.3z M298.1,222c0,3.4-0.9,5.7-3.2,8c-2.2,2.2-4.4,3.2-7.3,3.2
							c-1.9,0-4-0.4-6.4-3c-2.3-2.5-3.3-5.4-3.3-9.2c0-3.5,1-6,3.2-8.4c2.1-2.2,4-3.1,6.7-3.1c2.8,0,4.9,0.9,7,3.2
							c2.3,2.5,3.3,5,3.3,8.5V222z M305.6,202.3c-5-5.2-10.9-7.9-17.9-7.9c-6.8,0-12.7,2.6-17.6,7.8c-4.9,5.2-7.3,11.4-7.3,18.7
							c0,7.5,2.4,14,7.2,19.3c4.8,5.3,10.7,7.9,17.5,7.9c7,0,13-2.5,18-7.6s7.5-11.2,7.5-18.5v-0.9
							C313.1,213.8,310.6,207.6,305.6,202.3z M298.1,222c0,3.4-0.9,5.7-3.2,8c-2.2,2.2-4.4,3.2-7.3,3.2c-1.9,0-4-0.4-6.4-3
							c-2.3-2.5-3.3-5.4-3.3-9.2c0-3.5,1-6,3.2-8.4c2.1-2.2,4-3.1,6.7-3.1c2.8,0,4.9,0.9,7,3.2c2.3,2.5,3.3,5,3.3,8.5V222z
							 M305.6,202.3c-5-5.2-10.9-7.9-17.9-7.9c-6.8,0-12.7,2.6-17.6,7.8c-4.9,5.2-7.3,11.4-7.3,18.7c0,7.5,2.4,14,7.2,19.3
							c4.8,5.3,10.7,7.9,17.5,7.9c7,0,13-2.5,18-7.6s7.5-11.2,7.5-18.5v-0.9C313.1,213.8,310.6,207.6,305.6,202.3z M298.1,222
							c0,3.4-0.9,5.7-3.2,8c-2.2,2.2-4.4,3.2-7.3,3.2c-1.9,0-4-0.4-6.4-3c-2.3-2.5-3.3-5.4-3.3-9.2c0-3.5,1-6,3.2-8.4
							c2.1-2.2,4-3.1,6.7-3.1c2.8,0,4.9,0.9,7,3.2c2.3,2.5,3.3,5,3.3,8.5V222z M305.6,202.3c-5-5.2-10.9-7.9-17.9-7.9
							c-6.8,0-12.7,2.6-17.6,7.8c-4.9,5.2-7.3,11.4-7.3,18.7c0,7.5,2.4,14,7.2,19.3c4.8,5.3,10.7,7.9,17.5,7.9c7,0,13-2.5,18-7.6
							s7.5-11.2,7.5-18.5v-0.9C313.1,213.8,310.6,207.6,305.6,202.3z M298.1,222c0,3.4-0.9,5.7-3.2,8c-2.2,2.2-4.4,3.2-7.3,3.2
							c-1.9,0-4-0.4-6.4-3c-2.3-2.5-3.3-5.4-3.3-9.2c0-3.5,1-6,3.2-8.4c2.1-2.2,4-3.1,6.7-3.1c2.8,0,4.9,0.9,7,3.2
							c2.3,2.5,3.3,5,3.3,8.5V222z M305.6,202.3c-5-5.2-10.9-7.9-17.9-7.9c-6.8,0-12.7,2.6-17.6,7.8c-4.9,5.2-7.3,11.4-7.3,18.7
							c0,7.5,2.4,14,7.2,19.3c4.8,5.3,10.7,7.9,17.5,7.9c7,0,13-2.5,18-7.6s7.5-11.2,7.5-18.5v-0.9
							C313.1,213.8,310.6,207.6,305.6,202.3z M298.1,222c0,3.4-0.9,5.7-3.2,8c-2.2,2.2-4.4,3.2-7.3,3.2c-1.9,0-4-0.4-6.4-3
							c-2.3-2.5-3.3-5.4-3.3-9.2c0-3.5,1-6,3.2-8.4c2.1-2.2,4-3.1,6.7-3.1c2.8,0,4.9,0.9,7,3.2c2.3,2.5,3.3,5,3.3,8.5V222z
							 M275.9,309.7l-9.2-0.4l7.7,11.9c0.4,0.6,0.7,1.2,0.9,1.9l4.6-7.2l3.7-5.8L275.9,309.7z M305.6,202.3
							c-5-5.2-10.9-7.9-17.9-7.9c-6.8,0-12.7,2.6-17.6,7.8c-4.9,5.2-7.3,11.4-7.3,18.7c0,7.5,2.4,14,7.2,19.3
							c4.8,5.3,10.7,7.9,17.5,7.9c7,0,13-2.5,18-7.6s7.5-11.2,7.5-18.5v-0.9C313.1,213.8,310.6,207.6,305.6,202.3z M298.1,222
							c0,3.4-0.9,5.7-3.2,8c-2.2,2.2-4.4,3.2-7.3,3.2c-1.9,0-4-0.4-6.4-3c-2.3-2.5-3.3-5.4-3.3-9.2c0-3.5,1-6,3.2-8.4
							c2.1-2.2,4-3.1,6.7-3.1c2.8,0,4.9,0.9,7,3.2c2.3,2.5,3.3,5,3.3,8.5V222z M305.6,202.3c-5-5.2-10.9-7.9-17.9-7.9
							c-6.8,0-12.7,2.6-17.6,7.8c-4.9,5.2-7.3,11.4-7.3,18.7c0,7.5,2.4,14,7.2,19.3c4.8,5.3,10.7,7.9,17.5,7.9c7,0,13-2.5,18-7.6
							s7.5-11.2,7.5-18.5v-0.9C313.1,213.8,310.6,207.6,305.6,202.3z M298.1,222c0,3.4-0.9,5.7-3.2,8c-2.2,2.2-4.4,3.2-7.3,3.2
							c-1.9,0-4-0.4-6.4-3c-2.3-2.5-3.3-5.4-3.3-9.2c0-3.5,1-6,3.2-8.4c2.1-2.2,4-3.1,6.7-3.1c2.8,0,4.9,0.9,7,3.2
							c2.3,2.5,3.3,5,3.3,8.5V222z M275.9,309.7l-9.2-0.4l7.7,11.9c0.4,0.6,0.7,1.2,0.9,1.9l4.6-7.2l3.7-5.8L275.9,309.7z
							 M305.6,202.3c-5-5.2-10.9-7.9-17.9-7.9c-6.8,0-12.7,2.6-17.6,7.8c-4.9,5.2-7.3,11.4-7.3,18.7c0,7.5,2.4,14,7.2,19.3
							c4.8,5.3,10.7,7.9,17.5,7.9c7,0,13-2.5,18-7.6s7.5-11.2,7.5-18.5v-0.9C313.1,213.8,310.6,207.6,305.6,202.3z M298.1,222
							c0,3.4-0.9,5.7-3.2,8c-2.2,2.2-4.4,3.2-7.3,3.2c-1.9,0-4-0.4-6.4-3c-2.3-2.5-3.3-5.4-3.3-9.2c0-3.5,1-6,3.2-8.4
							c2.1-2.2,4-3.1,6.7-3.1c2.8,0,4.9,0.9,7,3.2c2.3,2.5,3.3,5,3.3,8.5V222z M305.6,202.3c-5-5.2-10.9-7.9-17.9-7.9
							c-6.8,0-12.7,2.6-17.6,7.8c-4.9,5.2-7.3,11.4-7.3,18.7c0,7.5,2.4,14,7.2,19.3c4.8,5.3,10.7,7.9,17.5,7.9c7,0,13-2.5,18-7.6
							s7.5-11.2,7.5-18.5v-0.9C313.1,213.8,310.6,207.6,305.6,202.3z M298.1,222c0,3.4-0.9,5.7-3.2,8c-2.2,2.2-4.4,3.2-7.3,3.2
							c-1.9,0-4-0.4-6.4-3c-2.3-2.5-3.3-5.4-3.3-9.2c0-3.5,1-6,3.2-8.4c2.1-2.2,4-3.1,6.7-3.1c2.8,0,4.9,0.9,7,3.2
							c2.3,2.5,3.3,5,3.3,8.5V222z"/>
						<path class="st1" d="M233.8,241.9h-3.4l1.3-1.1c0.2-0.1,0.3-0.3,0.4-0.4l1-1C233.3,240.2,233.6,241.1,233.8,241.9z"/>
						<path class="st1" d="M345.1,221.4c0-15.8-5.6-29.5-16.8-40.7c-11.2-11.3-24.8-17-40.5-17c-15.1,0-28.1,5.2-38.7,15.3
							c-0.9-1.1-1.9-2.1-2.9-3.1c-8.1-7.9-18.6-12.1-30.3-12.1c-11.4,0-21.7,4.3-29.8,12.6c-8,8.1-12.2,18.4-12.2,29.6v3
							c0,8.2,6.6,14.9,14.9,15l6.3,0l-15.4,14.4c-3.1,2.8-4.8,6.8-4.8,11v14.2c0,1.6,0.3,3.2,0.7,4.6c-1.7,5.3-0.4,11.1,3.5,15.1
							l5.3,5.5l-7.1,11c-4.2,6.5-2.8,15.1,3.2,19.9c2.8,2.2,6,3.3,9.3,3.3c3.9,0,7.9-1.5,10.8-4.6l6.2-6.4l6.2,6.4
							c2.9,3,6.8,4.6,10.8,4.6c2.2,0,4.4-0.5,6.5-1.5c3.4,1.2,7,1.8,10.8,1.8c1.4,0,2.7-0.1,4.1-0.3l7.6,7.8l-5.1,8.1
							c-4.1,6.5-2.7,15.1,3.4,19.8c2.7,2.2,6,3.2,9.3,3.2c3.9,0,7.9-1.5,10.8-4.6l47.9-49.5l0.2-0.2c4.5-3.9,6.3-10.2,4.4-15.9
							c-1.1-3.5-3.5-6.4-6.5-8.3l16.4-25.9C341.2,245.5,345.1,233.3,345.1,221.4z M189.8,249.4l28.8-26.7c2.6-2.3,4.9-4.8,7-7.5
							c2.1-2.7,3.2-5.8,3.2-9.5c0-3.5-1.1-6.5-3.3-8.7c-2.2-2.3-5.1-3.4-8.6-3.4c-4.2,0-7.4,1.4-9.7,4.3c-2.2,2.8-3.3,6.2-3.2,10
							v1.3l-15-0.1v-3c0-7.4,2.6-13.7,7.9-19.1s11.6-8.1,19.1-8.1c7.8,0,14.4,2.6,19.8,7.8c1,1,1.9,2,2.7,3.1
							c0.2,0.2,0.3,0.5,0.5,0.7c0.2,0.2,0.3,0.4,0.4,0.6c0,0.1,0.1,0.2,0.1,0.2c0.2,0.3,0.4,0.5,0.5,0.8c0.7,1.2,1.3,2.4,1.8,3.7
							c0.1,0.3,0.3,0.6,0.3,0.9c0.1,0.3,0.2,0.6,0.3,0.8c0.1,0.4,0.2,0.8,0.3,1.2c0,0,0,0,0,0c0.1,0.4,0.2,0.8,0.3,1.2v0
							c0.1,0.5,0.2,1,0.3,1.5c0,0.3,0.1,0.5,0.1,0.8c0,0.1,0,0.2,0,0.2c0,0.3,0.1,0.6,0.1,0.9c0,0.4,0.1,0.8,0.1,1.2
							c0,0.1,0,0.3,0,0.4c0,0.4,0,0.8,0,1.3c0,3.4-0.6,6.6-1.8,9.5c-0.1,0.3-0.2,0.6-0.4,0.9c-0.1,0.2-0.2,0.5-0.3,0.7
							c-0.8,1.8-1.8,3.6-3,5.3c-0.1,0.2-0.3,0.4-0.4,0.6c-0.2,0.3-0.5,0.7-0.7,1l-5.9,6.2v0l-4.6,4.8l-15.9,14.2h32.9v14.2h-53.9
							V249.4z M218,302.1l-10.7-11l-0.5-0.6l-17,17.5l13.6-21l-8.1-8.4l-5.5-5.7l11.2,0l3.7,5.7l2.1,3.2l2.1-3.2l0.5-0.8l0,0
							l3.2-4.9l8.2,0h3l-5.5,5.7l-1.8,1.9l-6.3,6.5l5.3,8.2l8.3,12.8L218,302.1z M259.1,315.9l-1.5-1.6l-2.1-2.1l-5.8-6
							c-0.1,0.1-0.2,0.1-0.3,0.2c-0.1,0-0.2,0.1-0.3,0.1c-0.1,0.1-0.2,0.1-0.3,0.1c-0.1,0-0.1,0.1-0.2,0.1c-0.2,0.1-0.5,0.2-0.7,0.3
							c-0.1,0-0.3,0.1-0.4,0.1c-0.3,0.1-0.5,0.2-0.8,0.3c-0.2,0.1-0.4,0.1-0.6,0.2c-0.2,0.1-0.4,0.1-0.6,0.2c0,0,0,0-0.1,0
							c0,0,0,0-0.1,0c-0.2,0-0.3,0.1-0.5,0.1c0,0-0.1,0-0.2,0c-0.1,0-0.2,0-0.3,0.1c-0.1,0-0.2,0-0.4,0.1c-0.1,0-0.1,0-0.2,0
							c-0.1,0-0.3,0-0.4,0c-0.1,0-0.2,0-0.3,0c0,0,0,0-0.1,0c-0.3,0-0.6,0.1-0.9,0.1c-0.4,0-0.8,0-1.2,0c-0.3,0-0.5,0-0.7,0
							c-0.1,0-0.3,0-0.4,0c-0.4,0-0.8,0-1.2-0.1c0,0,0,0,0,0c0,0-0.1,0-0.1,0c-0.2,0-0.5-0.1-0.7-0.1c-0.1,0-0.2,0-0.2,0
							c-0.1,0-0.1,0-0.1,0c0,0-0.1,0-0.1,0c-0.2,0-0.3-0.1-0.5-0.1c-0.1,0-0.2,0-0.3-0.1c-0.2,0-0.4-0.1-0.6-0.2
							c-0.2,0-0.3-0.1-0.4-0.1c0,0-0.1,0-0.1,0c-0.2-0.1-0.3-0.1-0.5-0.2c-0.1,0-0.2-0.1-0.3-0.1c-0.2-0.1-0.4-0.2-0.6-0.2
							c0,0-0.1,0-0.2-0.1c-0.3-0.1-0.5-0.2-0.8-0.3c0,0,0,0,0,0c-0.2-0.1-0.4-0.2-0.5-0.3c0,0,0,0-0.1,0c-0.1-0.1-0.3-0.1-0.4-0.2
							c0,0-0.1,0-0.1,0c0,0,0,0,0,0c-0.2-0.1-0.4-0.2-0.5-0.3c0,0,0,0-0.1,0c-0.2-0.1-0.4-0.2-0.6-0.4l-0.2-0.1c0,0-0.1-0.1-0.1-0.1
							c-0.3-0.2-0.6-0.4-0.9-0.6c-0.1,0-0.1-0.1-0.2-0.2c-0.1-0.1-0.3-0.2-0.4-0.4c0,0,0,0,0,0c-0.1,0-0.1-0.1-0.2-0.2
							c0,0-0.1-0.1-0.2-0.2c0,0,0,0,0,0c0,0,0,0,0,0c0,0,0,0-0.1-0.1c0,0-0.1-0.1-0.1-0.1c-0.1-0.1-0.3-0.2-0.4-0.4
							c-0.1,0-0.1-0.1-0.2-0.2c-0.2-0.2-0.5-0.5-0.7-0.7c0,0,0,0,0,0c0,0,0,0,0,0c0,0,0,0-0.1-0.1c-0.1-0.1-0.2-0.2-0.2-0.3
							c-0.2-0.2-0.3-0.3-0.4-0.5c-0.2-0.2-0.4-0.4-0.5-0.7c-0.2-0.2-0.3-0.5-0.5-0.7c-0.1-0.1-0.2-0.3-0.3-0.4
							c0-0.1-0.1-0.1-0.1-0.2c0-0.1-0.1-0.2-0.1-0.2c-0.1-0.2-0.2-0.4-0.3-0.5c-0.1-0.2-0.3-0.5-0.4-0.7c0-0.1-0.1-0.2-0.1-0.3
							c-0.1-0.2-0.2-0.4-0.3-0.7c-0.1-0.2-0.2-0.5-0.3-0.7c-0.1-0.2-0.1-0.4-0.2-0.5c-0.1-0.2-0.2-0.4-0.2-0.6
							c-0.1-0.2-0.1-0.4-0.2-0.7c-0.1-0.3-0.2-0.6-0.2-1c0,0,0,0,0,0c-0.1-0.3-0.1-0.7-0.2-1v0c0,0,0,0,0-0.1c0,0,0,0,0-0.1
							c0,0,0,0,0-0.1c0-0.1,0-0.2,0-0.2c0-0.1,0-0.2,0-0.4c0-0.3,0-0.5-0.1-0.8c0-0.1,0-0.3,0-0.4c0-0.1,0-0.2,0-0.4
							c0-0.1,0-0.3,0-0.4c0-0.4,0-0.7,0-1.1c0-0.3,0-0.7,0.1-1c0-0.1,0-0.2,0-0.3c0,0,0-0.1,0-0.1c0-0.1,0-0.2,0-0.3c0,0,0,0,0-0.1
							c0-0.1,0-0.3,0.1-0.4c0-0.1,0-0.1,0-0.2c0-0.1,0-0.1,0-0.2c0,0,0-0.1,0-0.1c0,0,0,0,0-0.1c0,0,0-0.1,0-0.1
							c0-0.1,0-0.2,0.1-0.2c0-0.1,0.1-0.3,0.1-0.4c0-0.1,0-0.2,0.1-0.2c0,0,0-0.1,0-0.1c0-0.1,0.1-0.2,0.1-0.3
							c0-0.1,0.1-0.3,0.1-0.4c0.1-0.2,0.1-0.4,0.2-0.6c0.1-0.3,0.2-0.5,0.3-0.8c0.1-0.2,0.2-0.4,0.3-0.6c0.1-0.2,0.1-0.3,0.2-0.5
							c0.1-0.3,0.3-0.5,0.4-0.8c0.1-0.2,0.2-0.4,0.3-0.6c0,0,0,0,0,0c0-0.1,0-0.1,0.1-0.2c0.1-0.2,0.2-0.3,0.3-0.4
							c0.2-0.3,0.3-0.5,0.5-0.8c0.2-0.3,0.4-0.5,0.6-0.7c0.2-0.2,0.4-0.5,0.6-0.7c0.4-0.5,0.8-0.9,1.3-1.3c0.2-0.2,0.3-0.3,0.5-0.5
							c0.2-0.2,0.3-0.3,0.5-0.5l0,0c0.2-0.1,0.4-0.3,0.5-0.4c0.2-0.1,0.4-0.3,0.6-0.4c0.3-0.2,0.5-0.3,0.8-0.5
							c0.1-0.1,0.3-0.2,0.4-0.3c0.1,0,0.1-0.1,0.2-0.1c0.1-0.1,0.2-0.1,0.3-0.2c0.1,0,0.1,0,0.1-0.1c0.1,0,0.2-0.1,0.3-0.1
							c0.1,0,0.2-0.1,0.3-0.1c0,0,0,0,0,0c0,0,0.1,0,0.1,0c0,0,0,0,0,0c0.2-0.1,0.3-0.2,0.5-0.2c0.2-0.1,0.5-0.2,0.7-0.3
							c0,0,0.1,0,0.2-0.1c0,0,0.1,0,0.1-0.1c0.2-0.1,0.4-0.2,0.6-0.2c0.1,0,0.1,0,0.2,0c0.3-0.1,0.6-0.2,0.9-0.3c0,0,0,0,0.1,0
							s0,0,0.1,0c0,0,0.1,0,0.1,0c0,0,0,0,0,0c0.1,0,0.1,0,0.2-0.1c0,0,0,0,0,0c0,0,0.1,0,0.2,0c0,0,0.1,0,0.1,0c0,0,0,0,0,0
							c0.1,0,0.2,0,0.4-0.1c0,0,0.1,0,0.1,0h0c0.4-0.1,0.7-0.1,1.1-0.2c0.4-0.1,0.9-0.1,1.3-0.1c0.1,0,0.3,0,0.4,0
							c0.2,0,0.5,0,0.7,0c0.3,0,0.6,0,0.9,0c0.3,0,0.5,0,0.8,0.1c0.1,0,0.1,0,0.2,0c0,0,0.1,0,0.1,0c0.1,0,0.2,0,0.3,0
							c0.1,0,0.3,0,0.4,0c0.1,0,0.2,0,0.2,0c0.2,0,0.3,0.1,0.5,0.1c0,0,0,0,0,0c0,0,0,0,0,0c0.2,0,0.4,0.1,0.6,0.1
							c0.2,0,0.4,0.1,0.6,0.1c0.2,0.1,0.4,0.1,0.6,0.2c0.2,0,0.4,0.1,0.6,0.2c0.3,0.1,0.5,0.2,0.7,0.3c0.8,0.3,1.5,0.6,2.2,1
							c0.2,0.1,0.4,0.2,0.6,0.3c0.1,0.1,0.3,0.2,0.5,0.3c0.4,0.2,0.8,0.5,1.1,0.8c0.2,0.1,0.3,0.2,0.5,0.3c0.1,0.1,0.2,0.2,0.3,0.3
							c0.1,0.1,0.3,0.2,0.4,0.3c0,0,0,0,0.1,0c0.1,0.1,0.2,0.2,0.4,0.3c0.1,0,0.1,0.1,0.2,0.2c0.1,0.1,0.3,0.3,0.4,0.4
							c0.1,0.1,0.1,0.2,0.2,0.2c0.3,0.3,0.6,0.6,0.8,0.9c0.3,0.3,0.5,0.6,0.8,0.9c0.2,0.2,0.3,0.4,0.5,0.7c0.2,0.2,0.3,0.4,0.4,0.7
							c0.1,0.1,0.2,0.2,0.2,0.3c0.1,0.3,0.3,0.5,0.4,0.8c0.1,0.1,0.1,0.2,0.2,0.3c0.1,0.3,0.3,0.5,0.4,0.8c0,0.1,0,0.1,0.1,0.2
							c0.1,0.3,0.2,0.5,0.3,0.8c0,0,0,0,0,0.1c0,0,0,0.1,0.1,0.1c0,0,0,0,0,0.1c0.1,0.3,0.2,0.6,0.3,0.9c0.1,0.3,0.2,0.5,0.2,0.8
							l0.2,0.6c0,0.1,0,0.2,0.1,0.3c0,0.2,0.1,0.4,0.1,0.6c0,0.1,0,0.1,0,0.1c0,0,0,0.1,0,0.1c0.1,0.3,0.1,0.5,0.1,0.8
							c0,0.1,0,0.1,0,0.2c0,0,0,0.1,0,0.1c0,0.3,0.1,0.5,0.1,0.8c0,0.1,0,0.2,0,0.2s0,0.2,0,0.2c0,0.3,0,0.6,0,0.8
							c0,5.4-2.3,10.3-6,13.7l1.7,2.6l7,10.8l7.8,0.3l-3.8,5.9l1.6,2.4l-1.9-1.9L259.1,315.9z M320.8,249.6l-28.6,45.1l17.1,1.7
							l-0.7,0.6L283,323.4c0.7,5.1-1.3,10.3-5.5,13.7c-2.8,2.2-6.1,3.3-9.3,3.3c-0.5,0-1,0-1.5-0.1l-6.5,6.7l4.5-7l4.5-7.2l6.1-9.6
							c-0.2-0.6-0.5-1.3-0.9-1.9l-7.7-11.9h0l-4.4-0.2l2.2-3.3l7.9-11.9l2.4-3.7l17.6-27.1c-3,0.5-5.4,0.7-7.1,0.7
							c-10.4,0-19.2-3.5-26.5-10.4c-0.5-0.5-1-1-1.5-1.5c-7.1-7.5-10.9-16.5-11.3-27.2c0-0.7,0-1.4,0-2.1c0-8.1,1.7-15.3,5.1-21.7
							c1.6-3,3.5-5.7,5.8-8.3c0.4-0.5,0.8-0.9,1.3-1.4c8.1-8.4,18-12.7,29.9-12.7c11.6,0,21.6,4.2,29.9,12.6s12.5,18.4,12.5,30.1
							C330.1,230.5,327,239.9,320.8,249.6z"/>
					</g>
				</g>
			</g>
		</g>
		<g>
			<g>
				<g>
					<path class="st1" d="M237.5,278.2c-0.1,0-0.1,0-0.2,0.1c-0.4,0.1-0.7,0.3-1.1,0.4h1.3c0.1-0.2,0.2-0.4,0.2-0.5
						C237.7,278.1,237.6,278.1,237.5,278.2z M238.6,270.9c-0.4,0-0.7,0.1-1.1,0.2h1.1C238.6,271.1,238.6,271,238.6,270.9z
						 M225,279.8c0,0-0.1,0.1-0.1,0.2c0.1-0.2,0.2-0.4,0.4-0.6C225.1,279.6,225.1,279.7,225,279.8z M236.4,271.4
						C236.3,271.4,236.3,271.4,236.4,271.4c0.1,0,0.1,0,0.2-0.1C236.5,271.3,236.4,271.3,236.4,271.4z M237.6,278.6
						c0.1-0.2,0.2-0.4,0.2-0.5c-0.1,0-0.2,0-0.3,0.1c-0.1,0-0.1,0-0.2,0.1c-0.4,0.1-0.7,0.3-1.1,0.4c-0.2,0.1-0.4,0.2-0.6,0.3
						c-0.1,0.1-0.2,0.1-0.3,0.2c-0.4,0.2-0.8,0.4-1.1,0.7l-0.5,0.4c0,0,0,0,0,0c0,0,0,0-0.1,0.1c-0.1,0-0.1,0.1-0.2,0.2
						c-0.1,0.1-0.2,0.1-0.2,0.2c-0.1,0.1-0.2,0.2-0.3,0.3c-0.1,0.1-0.2,0.2-0.3,0.3c-0.1,0.1-0.2,0.2-0.3,0.3c0,0,0,0,0,0.1
						c-0.2,0.2-0.4,0.4-0.5,0.7c-0.1,0.1-0.2,0.2-0.2,0.3c-0.1,0.1-0.2,0.3-0.3,0.4c-0.2,0.2-0.3,0.5-0.5,0.7
						c-0.1,0.2-0.3,0.5-0.4,0.7c-0.1,0.1-0.1,0.2-0.2,0.4c0,0.1-0.1,0.2-0.1,0.3c-0.1,0.2-0.1,0.3-0.2,0.5c-0.1,0.2-0.1,0.3-0.2,0.5
						c-0.1,0.2-0.1,0.4-0.2,0.6c0,0.1-0.1,0.2-0.1,0.4c-0.1,0.3-0.1,0.5-0.1,0.8c0,0,0,0,0,0c0,0.2-0.1,0.3-0.1,0.5
						c0,0.1,0,0.1,0,0.2c0,0,0,0,0,0.1c0,0.2,0,0.3,0,0.5c0,0.2,0,0.4,0,0.6c0,0.1,0,0.3,0,0.4c0,0.1,0,0.1,0,0.2c0,0.1,0,0.2,0,0.3
						v0.1c0,0,0,0.1,0,0.1c0,0,0,0.1,0,0.1c0,0.1,0,0.2,0,0.2c0,0.2,0,0.4,0.1,0.6c0,0.1,0,0.3,0.1,0.5c0,0,0,0,0,0.1
						c0,0.1,0,0.2,0.1,0.2c0,0,0,0.1,0,0.1c0,0.2,0.1,0.4,0.2,0.6c0,0,0,0,0,0.1c0,0.2,0.1,0.3,0.2,0.5c0.1,0.2,0.2,0.4,0.3,0.6
						c0,0.1,0.1,0.2,0.1,0.3c0,0.1,0,0.1,0.1,0.2c0,0,0,0.1,0.1,0.2c0,0.1,0.1,0.2,0.1,0.3c0,0,0,0.1,0.1,0.1
						c0.1,0.1,0.1,0.3,0.2,0.4c0.2,0.3,0.3,0.5,0.5,0.7c0.1,0.1,0.2,0.2,0.3,0.4c0.2,0.2,0.4,0.5,0.6,0.7c0.1,0.1,0.2,0.2,0.3,0.3
						c0.2,0.2,0.4,0.4,0.6,0.6c0.2,0.2,0.4,0.3,0.5,0.5c0.2,0.2,0.4,0.3,0.7,0.5c0,0,0.1,0.1,0.2,0.1c0.1,0,0.1,0.1,0.2,0.1
						c0.1,0.1,0.2,0.1,0.3,0.2c0.1,0.1,0.1,0.1,0.2,0.1c0,0,0.1,0,0.1,0.1h0c0.1,0,0.1,0.1,0.2,0.1c0.1,0,0.1,0.1,0.2,0.1
						c0.1,0.1,0.3,0.1,0.4,0.2c0.3,0.1,0.5,0.2,0.8,0.3c-0.1-0.3-0.3-0.5-0.5-0.8l-7.1-11l5.3-5.5
						C235.9,282,236.9,280.3,237.6,278.6z"/>
				</g>
			</g>
		</g>
		<g>
			<g>
				<path class="st1" d="M262.5,316.7l4.1,6.3l3.8-5.9L262.5,316.7z M283,323.4l-16.3,16.9c0.5,0.1,1,0.1,1.5,0.1
					c3.3,0,6.6-1.1,9.3-3.3C281.7,333.7,283.7,328.4,283,323.4z M225.4,299.9c0.1,0.2,0.3,0.5,0.5,0.7c0.2,0.2,0.3,0.5,0.5,0.7
					C226,300.8,225.7,300.4,225.4,299.9z M275.9,309.7l-9.2-0.4l7.7,11.9c0.4,0.6,0.7,1.2,0.9,1.9l4.6-7.2L275.9,309.7z
					 M262.5,316.7l4.1,6.3l3.8-5.9L262.5,316.7z M262.5,316.7l4.1,6.3l3.8-5.9L262.5,316.7z M262.5,316.7l4.1,6.3l3.8-5.9
					L262.5,316.7z M252.9,289.1c0-0.3,0-0.5,0-0.8c0,0,0-0.1,0-0.1c0,0,0,0,0,0c0-0.1,0-0.2,0-0.3c0,0,0-0.1,0-0.1
					c0-0.1,0-0.3-0.1-0.4c0-0.1,0-0.2-0.1-0.3c0-0.2-0.1-0.3-0.1-0.5c0-0.2-0.1-0.3-0.1-0.5c-0.1-0.2-0.1-0.4-0.2-0.6
					c0-0.1,0-0.2-0.1-0.2c0-0.1-0.1-0.3-0.2-0.4c0-0.1-0.1-0.2-0.1-0.3c-0.2-0.4-0.4-0.8-0.6-1.1c-0.1-0.1-0.1-0.2-0.2-0.4
					c0-0.1-0.1-0.2-0.2-0.2c-0.1-0.1-0.2-0.2-0.2-0.3c0,0,0,0,0,0c-0.1-0.2-0.2-0.3-0.4-0.5c-0.1-0.1-0.2-0.2-0.3-0.3
					c-0.1-0.1-0.2-0.2-0.3-0.3c0,0,0,0,0,0c-0.2-0.2-0.3-0.3-0.5-0.5c-0.2-0.2-0.4-0.3-0.6-0.5c-0.3-0.2-0.5-0.4-0.8-0.6
					c-0.1-0.1-0.2-0.1-0.3-0.2c0,0-0.1,0-0.1-0.1c-0.1-0.1-0.2-0.1-0.3-0.2c-0.3-0.2-0.5-0.3-0.8-0.4s-0.5-0.3-0.8-0.4
					c-0.2-0.1-0.4-0.2-0.7-0.2c0,0-0.1,0-0.1,0c-0.1,0-0.2-0.1-0.3-0.1c-0.2-0.1-0.3-0.1-0.5-0.1c-0.2-0.1-0.4-0.1-0.6-0.1
					c-0.3-0.1-0.6-0.1-0.9-0.1c0,0-0.1,0-0.1,0c0,0-0.1,0-0.1,0c0,0-0.1,0-0.1,0c-0.1,0-0.2,0-0.3,0c0,0-0.1,0-0.1,0
					c-0.2,0-0.4,0-0.6,0c-0.2,0-0.4,0-0.6,0c-0.2,0-0.4,0-0.6,0c-0.1,0-0.2,0-0.2,0c-0.1,0-0.3,0-0.4,0c-0.5,0.1-1,0.2-1.4,0.3
					c-0.1,0-0.2,0-0.3,0.1c-0.1,0-0.1,0-0.2,0.1c-0.4,0.1-0.7,0.3-1.1,0.4c-0.2,0.1-0.4,0.2-0.6,0.3c-0.1,0.1-0.2,0.1-0.3,0.2
					c-0.4,0.2-0.8,0.4-1.1,0.7l-0.5,0.4c0,0,0,0,0,0c0,0,0,0-0.1,0.1c-0.2,0.1-0.3,0.3-0.5,0.4c-0.1,0.1-0.2,0.2-0.3,0.3
					c-0.1,0.1-0.2,0.2-0.3,0.3c-0.1,0.1-0.2,0.2-0.3,0.3c0,0,0,0,0,0.1c-0.2,0.2-0.4,0.4-0.5,0.7c-0.1,0.1-0.2,0.2-0.2,0.3
					c-0.1,0.1-0.2,0.3-0.3,0.4c-0.2,0.2-0.3,0.5-0.5,0.7c-0.1,0.2-0.3,0.5-0.4,0.7c-0.1,0.1-0.1,0.2-0.2,0.4c0,0.1-0.1,0.2-0.1,0.3
					c-0.1,0.2-0.1,0.3-0.2,0.5c-0.1,0.2-0.1,0.3-0.2,0.5c-0.1,0.2-0.1,0.4-0.2,0.6c0,0.1-0.1,0.2-0.1,0.4c-0.1,0.3-0.1,0.5-0.1,0.8
					c0,0,0,0,0,0c0,0.2-0.1,0.3-0.1,0.5c0,0.1,0,0.1,0,0.2c0,0,0,0,0,0.1c0,0.2,0,0.3,0,0.5c0,0.2,0,0.4,0,0.6c0,0.1,0,0.3,0,0.4
					c0,0.1,0,0.1,0,0.2c0,0.1,0,0.2,0,0.3v0.1c0,0,0,0.1,0,0.1c0,0,0,0.1,0,0.1c0,0.1,0,0.2,0,0.2c0,0.2,0,0.4,0.1,0.6
					c0,0.1,0,0.3,0.1,0.5c0,0,0,0,0,0.1c0,0.1,0,0.2,0.1,0.2c0,0,0,0.1,0,0.1c0,0.2,0.1,0.4,0.2,0.6c0,0,0,0,0,0.1
					c0,0.2,0.1,0.3,0.2,0.5c0.1,0.2,0.2,0.4,0.3,0.6c0,0.1,0.1,0.2,0.1,0.3c0,0.1,0.1,0.2,0.2,0.4c0,0.1,0.1,0.2,0.1,0.3
					c0,0,0,0.1,0.1,0.1c0.1,0.1,0.1,0.3,0.2,0.4c0.2,0.3,0.3,0.5,0.5,0.7c0.1,0.1,0.2,0.2,0.3,0.4c0.2,0.2,0.4,0.5,0.6,0.7
					c0.1,0.1,0.2,0.2,0.3,0.3c0.2,0.2,0.4,0.4,0.6,0.6c0.2,0.2,0.4,0.3,0.5,0.5c0.2,0.2,0.4,0.3,0.7,0.5c0,0,0.1,0.1,0.2,0.1
					c0.1,0,0.1,0.1,0.2,0.1c0.1,0.1,0.2,0.1,0.3,0.2c0.1,0.1,0.1,0.1,0.2,0.1c0,0,0.1,0,0.1,0.1h0c0.1,0,0.1,0.1,0.2,0.1
					c0.1,0,0.1,0.1,0.2,0.1c0.1,0.1,0.3,0.1,0.4,0.2c0.3,0.1,0.5,0.2,0.8,0.3c0.2,0.1,0.3,0.1,0.5,0.2c0.1,0,0.3,0.1,0.4,0.1
					c0.2,0.1,0.4,0.1,0.6,0.2c0.1,0,0.3,0.1,0.4,0.1c0.4,0.1,0.8,0.1,1.2,0.2c0.4,0,0.7,0,1.1,0c1.2,0,2.4-0.2,3.5-0.5l-10.3-10.7
					l11.2,0l4.6,7.1c1.8-2.1,2.9-4.8,2.9-7.8C252.9,289.4,252.9,289.2,252.9,289.1z M252.9,289.1c0-0.3,0-0.5,0-0.8c0,0,0-0.1,0-0.1
					c0,0,0,0,0,0c0-0.1,0-0.2,0-0.3c0,0,0-0.1,0-0.1c0-0.1,0-0.3-0.1-0.4c0-0.1,0-0.2-0.1-0.3c0-0.2-0.1-0.3-0.1-0.5
					c0-0.2-0.1-0.3-0.1-0.5c-0.1-0.2-0.1-0.4-0.2-0.6c0-0.1,0-0.2-0.1-0.2c0-0.1-0.1-0.3-0.2-0.4c0-0.1-0.1-0.2-0.1-0.3
					c-0.2-0.4-0.4-0.8-0.6-1.1c-0.1-0.1-0.1-0.2-0.2-0.4c0-0.1-0.1-0.2-0.2-0.2c-0.1-0.1-0.2-0.2-0.2-0.3c0,0,0,0,0,0
					c-0.1-0.2-0.2-0.3-0.4-0.5c-0.1-0.1-0.2-0.2-0.3-0.3c-0.1-0.1-0.2-0.2-0.3-0.3c0,0,0,0,0,0c-0.2-0.2-0.3-0.3-0.5-0.5
					c-0.2-0.2-0.4-0.3-0.6-0.5c-0.3-0.2-0.5-0.4-0.8-0.6c-0.1-0.1-0.2-0.1-0.3-0.2c0,0-0.1,0-0.1-0.1c-0.1-0.1-0.2-0.1-0.3-0.2
					c-0.3-0.2-0.5-0.3-0.8-0.4s-0.5-0.3-0.8-0.4c-0.2-0.1-0.4-0.2-0.7-0.2c0,0-0.1,0-0.1,0c-0.1,0-0.2-0.1-0.3-0.1
					c-0.2-0.1-0.3-0.1-0.5-0.1c-0.2-0.1-0.4-0.1-0.6-0.1c-0.3-0.1-0.6-0.1-0.9-0.1c0,0-0.1,0-0.1,0c0,0-0.1,0-0.1,0c0,0-0.1,0-0.1,0
					c-0.1,0-0.2,0-0.3,0c0,0-0.1,0-0.1,0c-0.2,0-0.4,0-0.6,0c-0.2,0-0.4,0-0.6,0c-0.2,0-0.4,0-0.6,0c-0.1,0-0.2,0-0.2,0
					c-0.1,0-0.3,0-0.4,0c-0.5,0.1-1,0.2-1.4,0.3c-0.1,0-0.2,0-0.3,0.1c-0.1,0-0.1,0-0.2,0.1c-0.4,0.1-0.7,0.3-1.1,0.4
					c-0.2,0.1-0.4,0.2-0.6,0.3c-0.1,0.1-0.2,0.1-0.3,0.2c-0.4,0.2-0.8,0.4-1.1,0.7l-0.5,0.4c0,0,0,0,0,0c0,0,0,0-0.1,0.1
					c-0.2,0.1-0.3,0.3-0.5,0.4c-0.1,0.1-0.2,0.2-0.3,0.3c-0.1,0.1-0.2,0.2-0.3,0.3c-0.1,0.1-0.2,0.2-0.3,0.3c0,0,0,0,0,0.1
					c-0.2,0.2-0.4,0.4-0.5,0.7c-0.1,0.1-0.2,0.2-0.2,0.3c-0.1,0.1-0.2,0.3-0.3,0.4c-0.2,0.2-0.3,0.5-0.5,0.7
					c-0.1,0.2-0.3,0.5-0.4,0.7c-0.1,0.1-0.1,0.2-0.2,0.4c0,0.1-0.1,0.2-0.1,0.3c-0.1,0.2-0.1,0.3-0.2,0.5c-0.1,0.2-0.1,0.3-0.2,0.5
					c-0.1,0.2-0.1,0.4-0.2,0.6c0,0.1-0.1,0.2-0.1,0.4c-0.1,0.3-0.1,0.5-0.1,0.8c0,0,0,0,0,0c0,0.2-0.1,0.3-0.1,0.5
					c0,0.1,0,0.1,0,0.2c0,0,0,0,0,0.1c0,0.2,0,0.3,0,0.5c0,0.2,0,0.4,0,0.6c0,0.1,0,0.3,0,0.4c0,0.1,0,0.1,0,0.2c0,0.1,0,0.2,0,0.3
					v0.1c0,0,0,0.1,0,0.1c0,0,0,0.1,0,0.1c0,0.1,0,0.2,0,0.2c0,0.2,0,0.4,0.1,0.6c0,0.1,0,0.3,0.1,0.5c0,0,0,0,0,0.1
					c0,0.1,0,0.2,0.1,0.2c0,0,0,0.1,0,0.1c0,0.2,0.1,0.4,0.2,0.6c0,0,0,0,0,0.1c0,0.2,0.1,0.3,0.2,0.5c0.1,0.2,0.2,0.4,0.3,0.6
					c0,0.1,0.1,0.2,0.1,0.3c0,0.1,0.1,0.2,0.2,0.4c0,0.1,0.1,0.2,0.1,0.3c0,0,0,0.1,0.1,0.1c0.1,0.1,0.1,0.3,0.2,0.4
					c0.2,0.3,0.3,0.5,0.5,0.7c0.1,0.1,0.2,0.2,0.3,0.4c0.2,0.2,0.4,0.5,0.6,0.7c0.1,0.1,0.2,0.2,0.3,0.3c0.2,0.2,0.4,0.4,0.6,0.6
					c0.2,0.2,0.4,0.3,0.5,0.5c0.2,0.2,0.4,0.3,0.7,0.5c0,0,0.1,0.1,0.2,0.1c0.1,0,0.1,0.1,0.2,0.1c0.1,0.1,0.2,0.1,0.3,0.2
					c0.1,0.1,0.1,0.1,0.2,0.1c0,0,0.1,0,0.1,0.1h0c0.1,0,0.1,0.1,0.2,0.1c0.1,0,0.1,0.1,0.2,0.1c0.1,0.1,0.3,0.1,0.4,0.2
					c0.3,0.1,0.5,0.2,0.8,0.3c0.2,0.1,0.3,0.1,0.5,0.2c0.1,0,0.3,0.1,0.4,0.1c0.2,0.1,0.4,0.1,0.6,0.2c0.1,0,0.3,0.1,0.4,0.1
					c0.4,0.1,0.8,0.1,1.2,0.2c0.4,0,0.7,0,1.1,0c1.2,0,2.4-0.2,3.5-0.5l-10.3-10.7l11.2,0l4.6,7.1c1.8-2.1,2.9-4.8,2.9-7.8
					C252.9,289.4,252.9,289.2,252.9,289.1z M252.9,289.1c0-0.3,0-0.5,0-0.8c0,0,0-0.1,0-0.1c0,0,0,0,0,0c0-0.1,0-0.2,0-0.3
					c0,0,0-0.1,0-0.1c0-0.1,0-0.3-0.1-0.4c0-0.1,0-0.2-0.1-0.3c0-0.2-0.1-0.3-0.1-0.5c0-0.2-0.1-0.3-0.1-0.5
					c-0.1-0.2-0.1-0.4-0.2-0.6c0-0.1,0-0.2-0.1-0.2c0-0.1-0.1-0.3-0.2-0.4c0-0.1-0.1-0.2-0.1-0.3c-0.2-0.4-0.4-0.8-0.6-1.1
					c-0.1-0.1-0.1-0.2-0.2-0.4c0-0.1-0.1-0.2-0.2-0.2c-0.1-0.1-0.2-0.2-0.2-0.3c0,0,0,0,0,0c-0.1-0.2-0.2-0.3-0.4-0.5
					c-0.1-0.1-0.2-0.2-0.3-0.3c-0.1-0.1-0.2-0.2-0.3-0.3c0,0,0,0,0,0c-0.2-0.2-0.3-0.3-0.5-0.5c-0.2-0.2-0.4-0.3-0.6-0.5
					c-0.3-0.2-0.5-0.4-0.8-0.6c-0.1-0.1-0.2-0.1-0.3-0.2c0,0-0.1,0-0.1-0.1c-0.1-0.1-0.2-0.1-0.3-0.2c-0.3-0.2-0.5-0.3-0.8-0.4
					s-0.5-0.3-0.8-0.4c-0.2-0.1-0.4-0.2-0.7-0.2c0,0-0.1,0-0.1,0c-0.1,0-0.2-0.1-0.3-0.1c-0.2-0.1-0.3-0.1-0.5-0.1
					c-0.2-0.1-0.4-0.1-0.6-0.1c-0.3-0.1-0.6-0.1-0.9-0.1c0,0-0.1,0-0.1,0c0,0-0.1,0-0.1,0c0,0-0.1,0-0.1,0c-0.1,0-0.2,0-0.3,0
					c0,0-0.1,0-0.1,0c-0.2,0-0.4,0-0.6,0c-0.2,0-0.4,0-0.6,0c-0.2,0-0.4,0-0.6,0c-0.1,0-0.2,0-0.2,0c-0.1,0-0.3,0-0.4,0
					c-0.5,0.1-1,0.2-1.4,0.3c-0.1,0-0.2,0-0.3,0.1c-0.1,0-0.1,0-0.2,0.1c-0.4,0.1-0.7,0.3-1.1,0.4c-0.2,0.1-0.4,0.2-0.6,0.3
					c-0.1,0.1-0.2,0.1-0.3,0.2c-0.4,0.2-0.8,0.4-1.1,0.7l-0.5,0.4c0,0,0,0,0,0c0,0,0,0-0.1,0.1c-0.2,0.1-0.3,0.3-0.5,0.4
					c-0.1,0.1-0.2,0.2-0.3,0.3c-0.1,0.1-0.2,0.2-0.3,0.3c-0.1,0.1-0.2,0.2-0.3,0.3c0,0,0,0,0,0.1c-0.2,0.2-0.4,0.4-0.5,0.7
					c-0.1,0.1-0.2,0.2-0.2,0.3c-0.1,0.1-0.2,0.3-0.3,0.4c-0.2,0.2-0.3,0.5-0.5,0.7c-0.1,0.2-0.3,0.5-0.4,0.7
					c-0.1,0.1-0.1,0.2-0.2,0.4c0,0.1-0.1,0.2-0.1,0.3c-0.1,0.2-0.1,0.3-0.2,0.5c-0.1,0.2-0.1,0.3-0.2,0.5c-0.1,0.2-0.1,0.4-0.2,0.6
					c0,0.1-0.1,0.2-0.1,0.4c-0.1,0.3-0.1,0.5-0.1,0.8c0,0,0,0,0,0c0,0.2-0.1,0.3-0.1,0.5c0,0.1,0,0.1,0,0.2c0,0,0,0,0,0.1
					c0,0.2,0,0.3,0,0.5c0,0.2,0,0.4,0,0.6c0,0.1,0,0.3,0,0.4c0,0.1,0,0.1,0,0.2c0,0.1,0,0.2,0,0.3v0.1c0,0,0,0.1,0,0.1
					c0,0,0,0.1,0,0.1c0,0.1,0,0.2,0,0.2c0,0.2,0,0.4,0.1,0.6c0,0.1,0,0.3,0.1,0.5c0,0,0,0,0,0.1c0,0.1,0,0.2,0.1,0.2
					c0,0,0,0.1,0,0.1c0,0.2,0.1,0.4,0.2,0.6c0,0,0,0,0,0.1c0,0.2,0.1,0.3,0.2,0.5c0.1,0.2,0.2,0.4,0.3,0.6c0,0.1,0.1,0.2,0.1,0.3
					c0,0.1,0.1,0.2,0.2,0.4c0,0.1,0.1,0.2,0.1,0.3c0,0,0,0.1,0.1,0.1c0.1,0.1,0.1,0.3,0.2,0.4c0.2,0.3,0.3,0.5,0.5,0.7
					c0.1,0.1,0.2,0.2,0.3,0.4c0.2,0.2,0.4,0.5,0.6,0.7c0.1,0.1,0.2,0.2,0.3,0.3c0.2,0.2,0.4,0.4,0.6,0.6c0.2,0.2,0.4,0.3,0.5,0.5
					c0.2,0.2,0.4,0.3,0.7,0.5c0,0,0.1,0.1,0.2,0.1c0.1,0,0.1,0.1,0.2,0.1c0.1,0.1,0.2,0.1,0.3,0.2c0.1,0.1,0.1,0.1,0.2,0.1
					c0,0,0.1,0,0.1,0.1h0c0.1,0,0.1,0.1,0.2,0.1c0.1,0,0.1,0.1,0.2,0.1c0.1,0.1,0.3,0.1,0.4,0.2c0.3,0.1,0.5,0.2,0.8,0.3
					c0.2,0.1,0.3,0.1,0.5,0.2c0.1,0,0.3,0.1,0.4,0.1c0.2,0.1,0.4,0.1,0.6,0.2c0.1,0,0.3,0.1,0.4,0.1c0.4,0.1,0.8,0.1,1.2,0.2
					c0.4,0,0.7,0,1.1,0c1.2,0,2.4-0.2,3.5-0.5l-10.3-10.7l11.2,0l4.6,7.1c1.8-2.1,2.9-4.8,2.9-7.8
					C252.9,289.4,252.9,289.2,252.9,289.1z M252.9,289.1c0-0.3,0-0.5,0-0.8c0,0,0-0.1,0-0.1c0,0,0,0,0,0c0-0.1,0-0.2,0-0.3
					c0,0,0-0.1,0-0.1c0-0.1,0-0.3-0.1-0.4c0-0.1,0-0.2-0.1-0.3c0-0.2-0.1-0.3-0.1-0.5c0-0.2-0.1-0.3-0.1-0.5
					c-0.1-0.2-0.1-0.4-0.2-0.6c0-0.1,0-0.2-0.1-0.2c0-0.1-0.1-0.3-0.2-0.4c0-0.1-0.1-0.2-0.1-0.3c-0.2-0.4-0.4-0.8-0.6-1.1
					c-0.1-0.1-0.1-0.2-0.2-0.4c0-0.1-0.1-0.2-0.2-0.2c-0.1-0.1-0.2-0.2-0.2-0.3c0,0,0,0,0,0c-0.1-0.2-0.2-0.3-0.4-0.5
					c-0.1-0.1-0.2-0.2-0.3-0.3c-0.1-0.1-0.2-0.2-0.3-0.3c0,0,0,0,0,0c-0.2-0.2-0.3-0.3-0.5-0.5c-0.2-0.2-0.4-0.3-0.6-0.5
					c-0.3-0.2-0.5-0.4-0.8-0.6c-0.1-0.1-0.2-0.1-0.3-0.2c0,0-0.1,0-0.1-0.1c-0.1-0.1-0.2-0.1-0.3-0.2c-0.3-0.2-0.5-0.3-0.8-0.4
					s-0.5-0.3-0.8-0.4c-0.2-0.1-0.4-0.2-0.7-0.2c0,0-0.1,0-0.1,0c-0.1,0-0.2-0.1-0.3-0.1c-0.2-0.1-0.3-0.1-0.5-0.1
					c-0.2-0.1-0.4-0.1-0.6-0.1c-0.3-0.1-0.6-0.1-0.9-0.1c0,0-0.1,0-0.1,0c0,0-0.1,0-0.1,0c0,0-0.1,0-0.1,0c-0.1,0-0.2,0-0.3,0
					c0,0-0.1,0-0.1,0c-0.2,0-0.4,0-0.6,0c-0.2,0-0.4,0-0.6,0c-0.2,0-0.4,0-0.6,0c-0.1,0-0.2,0-0.2,0c-0.1,0-0.3,0-0.4,0
					c-0.5,0.1-1,0.2-1.4,0.3c-0.1,0-0.2,0-0.3,0.1c-0.1,0-0.1,0-0.2,0.1c-0.4,0.1-0.7,0.3-1.1,0.4c-0.2,0.1-0.4,0.2-0.6,0.3
					c-0.1,0.1-0.2,0.1-0.3,0.2c-0.4,0.2-0.8,0.4-1.1,0.7l-0.5,0.4c0,0,0,0,0,0c0,0,0,0-0.1,0.1c-0.2,0.1-0.3,0.3-0.5,0.4
					c-0.1,0.1-0.2,0.2-0.3,0.3c-0.1,0.1-0.2,0.2-0.3,0.3c-0.1,0.1-0.2,0.2-0.3,0.3c0,0,0,0,0,0.1c-0.2,0.2-0.4,0.4-0.5,0.7
					c-0.1,0.1-0.2,0.2-0.2,0.3c-0.1,0.1-0.2,0.3-0.3,0.4c-0.2,0.2-0.3,0.5-0.5,0.7c-0.1,0.2-0.3,0.5-0.4,0.7
					c-0.1,0.1-0.1,0.2-0.2,0.4c0,0.1-0.1,0.2-0.1,0.3c-0.1,0.2-0.1,0.3-0.2,0.5c-0.1,0.2-0.1,0.3-0.2,0.5c-0.1,0.2-0.1,0.4-0.2,0.6
					c0,0.1-0.1,0.2-0.1,0.4c-0.1,0.3-0.1,0.5-0.1,0.8c0,0,0,0,0,0c0,0.2-0.1,0.3-0.1,0.5c0,0.1,0,0.1,0,0.2c0,0,0,0,0,0.1
					c0,0.2,0,0.3,0,0.5c0,0.2,0,0.4,0,0.6c0,0.1,0,0.3,0,0.4c0,0.1,0,0.1,0,0.2c0,0.1,0,0.2,0,0.3v0.1c0,0,0,0.1,0,0.1
					c0,0,0,0.1,0,0.1c0,0.1,0,0.2,0,0.2c0,0.2,0,0.4,0.1,0.6c0,0.1,0,0.3,0.1,0.5c0,0,0,0,0,0.1c0,0.1,0,0.2,0.1,0.2
					c0,0,0,0.1,0,0.1c0,0.2,0.1,0.4,0.2,0.6c0,0,0,0,0,0.1c0,0.2,0.1,0.3,0.2,0.5c0.1,0.2,0.2,0.4,0.3,0.6c0,0.1,0.1,0.2,0.1,0.3
					c0,0.1,0.1,0.2,0.2,0.4c0,0.1,0.1,0.2,0.1,0.3c0,0,0,0.1,0.1,0.1c0.1,0.1,0.1,0.3,0.2,0.4c0.2,0.3,0.3,0.5,0.5,0.7
					c0.1,0.1,0.2,0.2,0.3,0.4c0.2,0.2,0.4,0.5,0.6,0.7c0.1,0.1,0.2,0.2,0.3,0.3c0.2,0.2,0.4,0.4,0.6,0.6c0.2,0.2,0.4,0.3,0.5,0.5
					c0.2,0.2,0.4,0.3,0.7,0.5c0,0,0.1,0.1,0.2,0.1c0.1,0,0.1,0.1,0.2,0.1c0.1,0.1,0.2,0.1,0.3,0.2c0.1,0.1,0.1,0.1,0.2,0.1
					c0,0,0.1,0,0.1,0.1h0c0.1,0,0.1,0.1,0.2,0.1c0.1,0,0.1,0.1,0.2,0.1c0.1,0.1,0.3,0.1,0.4,0.2c0.3,0.1,0.5,0.2,0.8,0.3
					c0.2,0.1,0.3,0.1,0.5,0.2c0.1,0,0.3,0.1,0.4,0.1c0.2,0.1,0.4,0.1,0.6,0.2c0.1,0,0.3,0.1,0.4,0.1c0.4,0.1,0.8,0.1,1.2,0.2
					c0.4,0,0.7,0,1.1,0c1.2,0,2.4-0.2,3.5-0.5l-10.3-10.7l11.2,0l4.6,7.1c1.8-2.1,2.9-4.8,2.9-7.8
					C252.9,289.4,252.9,289.2,252.9,289.1z M252.9,289.1c0-0.3,0-0.5,0-0.8c0,0,0-0.1,0-0.1c0,0,0,0,0,0c0-0.1,0-0.2,0-0.3
					c0,0,0-0.1,0-0.1c0-0.1,0-0.3-0.1-0.4c0-0.1,0-0.2-0.1-0.3c0-0.2-0.1-0.3-0.1-0.5c0-0.2-0.1-0.3-0.1-0.5
					c-0.1-0.2-0.1-0.4-0.2-0.6c0-0.1,0-0.2-0.1-0.2c0-0.1-0.1-0.3-0.2-0.4c0-0.1-0.1-0.2-0.1-0.3c-0.2-0.4-0.4-0.8-0.6-1.1
					c-0.1-0.1-0.1-0.2-0.2-0.4c0-0.1-0.1-0.2-0.2-0.2c-0.1-0.1-0.2-0.2-0.2-0.3c0,0,0,0,0,0c-0.1-0.2-0.2-0.3-0.4-0.5
					c-0.1-0.1-0.2-0.2-0.3-0.3c-0.1-0.1-0.2-0.2-0.3-0.3c0,0,0,0,0,0c-0.2-0.2-0.3-0.3-0.5-0.5c-0.2-0.2-0.4-0.3-0.6-0.5
					c-0.3-0.2-0.5-0.4-0.8-0.6c-0.1-0.1-0.2-0.1-0.3-0.2c0,0-0.1,0-0.1-0.1c-0.1-0.1-0.2-0.1-0.3-0.2c-0.3-0.2-0.5-0.3-0.8-0.4
					s-0.5-0.3-0.8-0.4c-0.2-0.1-0.4-0.2-0.7-0.2c0,0-0.1,0-0.1,0c-0.1,0-0.2-0.1-0.3-0.1c-0.2-0.1-0.3-0.1-0.5-0.1
					c-0.2-0.1-0.4-0.1-0.6-0.1c-0.3-0.1-0.6-0.1-0.9-0.1c0,0-0.1,0-0.1,0c0,0-0.1,0-0.1,0c0,0-0.1,0-0.1,0c-0.1,0-0.2,0-0.3,0
					c0,0-0.1,0-0.1,0c-0.2,0-0.4,0-0.6,0c-0.2,0-0.4,0-0.6,0c-0.2,0-0.4,0-0.6,0c-0.1,0-0.2,0-0.2,0c-0.1,0-0.3,0-0.4,0
					c-0.5,0.1-1,0.2-1.4,0.3c-0.1,0-0.2,0-0.3,0.1c-0.1,0-0.1,0-0.2,0.1c-0.4,0.1-0.7,0.3-1.1,0.4c-0.2,0.1-0.4,0.2-0.6,0.3
					c-0.1,0.1-0.2,0.1-0.3,0.2c-0.4,0.2-0.8,0.4-1.1,0.7l-0.5,0.4c0,0,0,0,0,0c0,0,0,0-0.1,0.1c-0.2,0.1-0.3,0.3-0.5,0.4
					c-0.1,0.1-0.2,0.2-0.3,0.3c-0.1,0.1-0.2,0.2-0.3,0.3c-0.1,0.1-0.2,0.2-0.3,0.3c0,0,0,0,0,0.1c-0.2,0.2-0.4,0.4-0.5,0.7
					c-0.1,0.1-0.2,0.2-0.2,0.3c-0.1,0.1-0.2,0.3-0.3,0.4c-0.2,0.2-0.3,0.5-0.5,0.7c-0.1,0.2-0.3,0.5-0.4,0.7
					c-0.1,0.1-0.1,0.2-0.2,0.4c0,0.1-0.1,0.2-0.1,0.3c-0.1,0.2-0.1,0.3-0.2,0.5c-0.1,0.2-0.1,0.3-0.2,0.5c-0.1,0.2-0.1,0.4-0.2,0.6
					c0,0.1-0.1,0.2-0.1,0.4c-0.1,0.3-0.1,0.5-0.1,0.8c0,0,0,0,0,0c0,0.2-0.1,0.3-0.1,0.5c0,0.1,0,0.1,0,0.2c0,0,0,0,0,0.1
					c0,0.2,0,0.3,0,0.5c0,0.2,0,0.4,0,0.6c0,0.1,0,0.3,0,0.4c0,0.1,0,0.1,0,0.2c0,0.1,0,0.2,0,0.3v0.1c0,0,0,0.1,0,0.1
					c0,0,0,0.1,0,0.1c0,0.1,0,0.2,0,0.2c0,0.2,0,0.4,0.1,0.6c0,0.1,0,0.3,0.1,0.5c0,0,0,0,0,0.1c0,0.1,0,0.2,0.1,0.2
					c0,0,0,0.1,0,0.1c0,0.2,0.1,0.4,0.2,0.6c0,0,0,0,0,0.1c0,0.2,0.1,0.3,0.2,0.5c0.1,0.2,0.2,0.4,0.3,0.6c0,0.1,0.1,0.2,0.1,0.3
					c0,0.1,0.1,0.2,0.2,0.4c0,0.1,0.1,0.2,0.1,0.3c0,0,0,0.1,0.1,0.1c0.1,0.1,0.1,0.3,0.2,0.4c0.2,0.3,0.3,0.5,0.5,0.7
					c0.1,0.1,0.2,0.2,0.3,0.4c0.2,0.2,0.4,0.5,0.6,0.7c0.1,0.1,0.2,0.2,0.3,0.3c0.2,0.2,0.4,0.4,0.6,0.6c0.2,0.2,0.4,0.3,0.5,0.5
					c0.2,0.2,0.4,0.3,0.7,0.5c0,0,0.1,0.1,0.2,0.1c0.1,0,0.1,0.1,0.2,0.1c0.1,0.1,0.2,0.1,0.3,0.2c0.1,0.1,0.1,0.1,0.2,0.1
					c0,0,0.1,0,0.1,0.1h0c0.1,0,0.1,0.1,0.2,0.1c0.1,0,0.1,0.1,0.2,0.1c0.1,0.1,0.3,0.1,0.4,0.2c0.3,0.1,0.5,0.2,0.8,0.3
					c0.2,0.1,0.3,0.1,0.5,0.2c0.1,0,0.3,0.1,0.4,0.1c0.2,0.1,0.4,0.1,0.6,0.2c0.1,0,0.3,0.1,0.4,0.1c0.4,0.1,0.8,0.1,1.2,0.2
					c0.4,0,0.7,0,1.1,0c1.2,0,2.4-0.2,3.5-0.5l-10.3-10.7l11.2,0l4.6,7.1c1.8-2.1,2.9-4.8,2.9-7.8
					C252.9,289.4,252.9,289.2,252.9,289.1z M252.9,289.1c0-0.3,0-0.5,0-0.8c0,0,0-0.1,0-0.1c0,0,0,0,0,0c0-0.1,0-0.2,0-0.3
					c0,0,0-0.1,0-0.1c0-0.1,0-0.3-0.1-0.4c0-0.1,0-0.2-0.1-0.3c0-0.2-0.1-0.3-0.1-0.5c0-0.2-0.1-0.3-0.1-0.5
					c-0.1-0.2-0.1-0.4-0.2-0.6c0-0.1,0-0.2-0.1-0.2c0-0.1-0.1-0.3-0.2-0.4c0-0.1-0.1-0.2-0.1-0.3c-0.2-0.4-0.4-0.8-0.6-1.1
					c-0.1-0.1-0.1-0.2-0.2-0.4c0-0.1-0.1-0.2-0.2-0.2c-0.1-0.1-0.2-0.2-0.2-0.3c0,0,0,0,0,0c-0.1-0.2-0.2-0.3-0.4-0.5
					c-0.1-0.1-0.2-0.2-0.3-0.3c-0.1-0.1-0.2-0.2-0.3-0.3c0,0,0,0,0,0c-0.2-0.2-0.3-0.3-0.5-0.5c-0.2-0.2-0.4-0.3-0.6-0.5
					c-0.3-0.2-0.5-0.4-0.8-0.6c-0.1-0.1-0.2-0.1-0.3-0.2c0,0-0.1,0-0.1-0.1c-0.1-0.1-0.2-0.1-0.3-0.2c-0.3-0.2-0.5-0.3-0.8-0.4
					s-0.5-0.3-0.8-0.4c-0.2-0.1-0.4-0.2-0.7-0.2c0,0-0.1,0-0.1,0c-0.1,0-0.2-0.1-0.3-0.1c-0.2-0.1-0.3-0.1-0.5-0.1
					c-0.2-0.1-0.4-0.1-0.6-0.1c-0.3-0.1-0.6-0.1-0.9-0.1c0,0-0.1,0-0.1,0c0,0-0.1,0-0.1,0c0,0-0.1,0-0.1,0c-0.1,0-0.2,0-0.3,0
					c0,0-0.1,0-0.1,0c-0.2,0-0.4,0-0.6,0c-0.2,0-0.4,0-0.6,0c-0.2,0-0.4,0-0.6,0c-0.1,0-0.2,0-0.2,0c-0.1,0-0.3,0-0.4,0
					c-0.5,0.1-1,0.2-1.4,0.3c-0.1,0-0.2,0-0.3,0.1c-0.1,0-0.1,0-0.2,0.1c-0.4,0.1-0.7,0.3-1.1,0.4c-0.2,0.1-0.4,0.2-0.6,0.3
					c-0.1,0.1-0.2,0.1-0.3,0.2c-0.4,0.2-0.8,0.4-1.1,0.7l-0.5,0.4c0,0,0,0,0,0c0,0,0,0-0.1,0.1c-0.2,0.1-0.3,0.3-0.5,0.4
					c-0.1,0.1-0.2,0.2-0.3,0.3c-0.1,0.1-0.2,0.2-0.3,0.3c-0.1,0.1-0.2,0.2-0.3,0.3c0,0,0,0,0,0.1c-0.2,0.2-0.4,0.4-0.5,0.7
					c-0.1,0.1-0.2,0.2-0.2,0.3c-0.1,0.1-0.2,0.3-0.3,0.4c-0.2,0.2-0.3,0.5-0.5,0.7c-0.1,0.2-0.3,0.5-0.4,0.7
					c-0.1,0.1-0.1,0.2-0.2,0.4c0,0.1-0.1,0.2-0.1,0.3c-0.1,0.2-0.1,0.3-0.2,0.5c-0.1,0.2-0.1,0.3-0.2,0.5c-0.1,0.2-0.1,0.4-0.2,0.6
					c0,0.1-0.1,0.2-0.1,0.4c-0.1,0.3-0.1,0.5-0.1,0.8c0,0,0,0,0,0c0,0.2-0.1,0.3-0.1,0.5c0,0.1,0,0.1,0,0.2c0,0,0,0,0,0.1
					c0,0.2,0,0.3,0,0.5c0,0.2,0,0.4,0,0.6c0,0.1,0,0.3,0,0.4c0,0.1,0,0.1,0,0.2c0,0.1,0,0.2,0,0.3v0.1c0,0,0,0.1,0,0.1
					c0,0,0,0.1,0,0.1c0,0.1,0,0.2,0,0.2c0,0.2,0,0.4,0.1,0.6c0,0.1,0,0.3,0.1,0.5c0,0,0,0,0,0.1c0,0.1,0,0.2,0.1,0.2
					c0,0,0,0.1,0,0.1c0,0.2,0.1,0.4,0.2,0.6c0,0,0,0,0,0.1c0,0.2,0.1,0.3,0.2,0.5c0.1,0.2,0.2,0.4,0.3,0.6c0,0.1,0.1,0.2,0.1,0.3
					c0,0.1,0.1,0.2,0.2,0.4c0,0.1,0.1,0.2,0.1,0.3c0,0,0,0.1,0.1,0.1c0.1,0.1,0.1,0.3,0.2,0.4c0.2,0.3,0.3,0.5,0.5,0.7
					c0.1,0.1,0.2,0.2,0.3,0.4c0.2,0.2,0.4,0.5,0.6,0.7c0.1,0.1,0.2,0.2,0.3,0.3c0.2,0.2,0.4,0.4,0.6,0.6c0.2,0.2,0.4,0.3,0.5,0.5
					c0.2,0.2,0.4,0.3,0.7,0.5c0,0,0.1,0.1,0.2,0.1c0.1,0,0.1,0.1,0.2,0.1c0.1,0.1,0.2,0.1,0.3,0.2c0.1,0.1,0.1,0.1,0.2,0.1
					c0,0,0.1,0,0.1,0.1h0c0.1,0,0.1,0.1,0.2,0.1c0.1,0,0.1,0.1,0.2,0.1c0.1,0.1,0.3,0.1,0.4,0.2c0.3,0.1,0.5,0.2,0.8,0.3
					c0.2,0.1,0.3,0.1,0.5,0.2c0.1,0,0.3,0.1,0.4,0.1c0.2,0.1,0.4,0.1,0.6,0.2c0.1,0,0.3,0.1,0.4,0.1c0.4,0.1,0.8,0.1,1.2,0.2
					c0.4,0,0.7,0,1.1,0c1.2,0,2.4-0.2,3.5-0.5l-10.3-10.7l11.2,0l4.6,7.1c1.8-2.1,2.9-4.8,2.9-7.8
					C252.9,289.4,252.9,289.2,252.9,289.1z M252.9,289.1c0-0.3,0-0.5,0-0.8c0,0,0-0.1,0-0.1c0,0,0,0,0,0c0-0.1,0-0.2,0-0.3
					c0,0,0-0.1,0-0.1c0-0.1,0-0.3-0.1-0.4c0-0.1,0-0.2-0.1-0.3c0-0.2-0.1-0.3-0.1-0.5c0-0.2-0.1-0.3-0.1-0.5
					c-0.1-0.2-0.1-0.4-0.2-0.6c0-0.1,0-0.2-0.1-0.2c0-0.1-0.1-0.3-0.2-0.4c0-0.1-0.1-0.2-0.1-0.3c-0.2-0.4-0.4-0.8-0.6-1.1
					c-0.1-0.1-0.1-0.2-0.2-0.4c0-0.1-0.1-0.2-0.2-0.2c-0.1-0.1-0.2-0.2-0.2-0.3c0,0,0,0,0,0c-0.1-0.2-0.2-0.3-0.4-0.5
					c-0.1-0.1-0.2-0.2-0.3-0.3c-0.1-0.1-0.2-0.2-0.3-0.3c0,0,0,0,0,0c-0.2-0.2-0.3-0.3-0.5-0.5c-0.2-0.2-0.4-0.3-0.6-0.5
					c-0.3-0.2-0.5-0.4-0.8-0.6c-0.1-0.1-0.2-0.1-0.3-0.2c0,0-0.1,0-0.1-0.1c-0.1-0.1-0.2-0.1-0.3-0.2c-0.3-0.2-0.5-0.3-0.8-0.4
					s-0.5-0.3-0.8-0.4c-0.2-0.1-0.4-0.2-0.7-0.2c0,0-0.1,0-0.1,0c-0.1,0-0.2-0.1-0.3-0.1c-0.2-0.1-0.3-0.1-0.5-0.1
					c-0.2-0.1-0.4-0.1-0.6-0.1c-0.3-0.1-0.6-0.1-0.9-0.1c0,0-0.1,0-0.1,0c0,0-0.1,0-0.1,0c0,0-0.1,0-0.1,0c-0.1,0-0.2,0-0.3,0
					c0,0-0.1,0-0.1,0c-0.2,0-0.4,0-0.6,0c-0.2,0-0.4,0-0.6,0c-0.2,0-0.4,0-0.6,0c-0.1,0-0.2,0-0.2,0c-0.1,0-0.3,0-0.4,0
					c-0.5,0.1-1,0.2-1.4,0.3c-0.1,0-0.2,0-0.3,0.1c-0.1,0-0.1,0-0.2,0.1c-0.4,0.1-0.7,0.3-1.1,0.4c-0.2,0.1-0.4,0.2-0.6,0.3
					c-0.1,0.1-0.2,0.1-0.3,0.2c-0.4,0.2-0.8,0.4-1.1,0.7l-0.5,0.4c0,0,0,0,0,0c0,0,0,0-0.1,0.1c-0.2,0.1-0.3,0.3-0.5,0.4
					c-0.1,0.1-0.2,0.2-0.3,0.3c-0.1,0.1-0.2,0.2-0.3,0.3c-0.1,0.1-0.2,0.2-0.3,0.3c0,0,0,0,0,0.1c-0.2,0.2-0.4,0.4-0.5,0.7
					c-0.1,0.1-0.2,0.2-0.2,0.3c-0.1,0.1-0.2,0.3-0.3,0.4c-0.2,0.2-0.3,0.5-0.5,0.7c-0.1,0.2-0.3,0.5-0.4,0.7
					c-0.1,0.1-0.1,0.2-0.2,0.4c0,0.1-0.1,0.2-0.1,0.3c-0.1,0.2-0.1,0.3-0.2,0.5c-0.1,0.2-0.1,0.3-0.2,0.5c-0.1,0.2-0.1,0.4-0.2,0.6
					c0,0.1-0.1,0.2-0.1,0.4c-0.1,0.3-0.1,0.5-0.1,0.8c0,0,0,0,0,0c0,0.2-0.1,0.3-0.1,0.5c0,0.1,0,0.1,0,0.2c0,0,0,0,0,0.1
					c0,0.2,0,0.3,0,0.5c0,0.2,0,0.4,0,0.6c0,0.1,0,0.3,0,0.4c0,0.1,0,0.1,0,0.2c0,0.1,0,0.2,0,0.3v0.1c0,0,0,0.1,0,0.1
					c0,0,0,0.1,0,0.1c0,0.1,0,0.2,0,0.2c0,0.2,0,0.4,0.1,0.6c0,0.1,0,0.3,0.1,0.5c0,0,0,0,0,0.1c0,0.1,0,0.2,0.1,0.2
					c0,0,0,0.1,0,0.1c0,0.2,0.1,0.4,0.2,0.6c0,0,0,0,0,0.1c0,0.2,0.1,0.3,0.2,0.5c0.1,0.2,0.2,0.4,0.3,0.6c0,0.1,0.1,0.2,0.1,0.3
					c0,0.1,0.1,0.2,0.2,0.4c0,0.1,0.1,0.2,0.1,0.3c0,0,0,0.1,0.1,0.1c0.1,0.1,0.1,0.3,0.2,0.4c0.2,0.3,0.3,0.5,0.5,0.7
					c0.1,0.1,0.2,0.2,0.3,0.4c0.2,0.2,0.4,0.5,0.6,0.7c0.1,0.1,0.2,0.2,0.3,0.3c0.2,0.2,0.4,0.4,0.6,0.6c0.2,0.2,0.4,0.3,0.5,0.5
					c0.2,0.2,0.4,0.3,0.7,0.5c0,0,0.1,0.1,0.2,0.1c0.1,0,0.1,0.1,0.2,0.1c0.1,0.1,0.2,0.1,0.3,0.2c0.1,0.1,0.1,0.1,0.2,0.1
					c0,0,0.1,0,0.1,0.1h0c0.1,0,0.1,0.1,0.2,0.1c0.1,0,0.1,0.1,0.2,0.1c0.1,0.1,0.3,0.1,0.4,0.2c0.3,0.1,0.5,0.2,0.8,0.3
					c0.2,0.1,0.3,0.1,0.5,0.2c0.1,0,0.3,0.1,0.4,0.1c0.2,0.1,0.4,0.1,0.6,0.2c0.1,0,0.3,0.1,0.4,0.1c0.4,0.1,0.8,0.1,1.2,0.2
					c0.4,0,0.7,0,1.1,0c1.2,0,2.4-0.2,3.5-0.5l-10.3-10.7l11.2,0l4.6,7.1c1.8-2.1,2.9-4.8,2.9-7.8
					C252.9,289.4,252.9,289.2,252.9,289.1z M252.9,289.1c0-0.3,0-0.5,0-0.8c0,0,0-0.1,0-0.1c0,0,0,0,0,0c0-0.1,0-0.2,0-0.3
					c0,0,0-0.1,0-0.1c0-0.1,0-0.3-0.1-0.4c0-0.1,0-0.2-0.1-0.3c0-0.2-0.1-0.3-0.1-0.5c0-0.2-0.1-0.3-0.1-0.5
					c-0.1-0.2-0.1-0.4-0.2-0.6c0-0.1,0-0.2-0.1-0.2c0-0.1-0.1-0.3-0.2-0.4c0-0.1-0.1-0.2-0.1-0.3c-0.2-0.4-0.4-0.8-0.6-1.1
					c-0.1-0.1-0.1-0.2-0.2-0.4c0-0.1-0.1-0.2-0.2-0.2c-0.1-0.1-0.2-0.2-0.2-0.3c0,0,0,0,0,0c-0.1-0.2-0.2-0.3-0.4-0.5
					c-0.1-0.1-0.2-0.2-0.3-0.3c-0.1-0.1-0.2-0.2-0.3-0.3c0,0,0,0,0,0c-0.2-0.2-0.3-0.3-0.5-0.5c-0.2-0.2-0.4-0.3-0.6-0.5
					c-0.3-0.2-0.5-0.4-0.8-0.6c-0.1-0.1-0.2-0.1-0.3-0.2c0,0-0.1,0-0.1-0.1c-0.1-0.1-0.2-0.1-0.3-0.2c-0.3-0.2-0.5-0.3-0.8-0.4
					s-0.5-0.3-0.8-0.4c-0.2-0.1-0.4-0.2-0.7-0.2c0,0-0.1,0-0.1,0c-0.1,0-0.2-0.1-0.3-0.1c-0.2-0.1-0.3-0.1-0.5-0.1
					c-0.2-0.1-0.4-0.1-0.6-0.1c-0.3-0.1-0.6-0.1-0.9-0.1c0,0-0.1,0-0.1,0c0,0-0.1,0-0.1,0c0,0-0.1,0-0.1,0c-0.1,0-0.2,0-0.3,0
					c0,0-0.1,0-0.1,0c-0.2,0-0.4,0-0.6,0c-0.2,0-0.4,0-0.6,0c-0.2,0-0.4,0-0.6,0c-0.1,0-0.2,0-0.2,0c-0.1,0-0.3,0-0.4,0
					c-0.5,0.1-1,0.2-1.4,0.3c-0.1,0-0.2,0-0.3,0.1c-0.1,0-0.1,0-0.2,0.1c-0.4,0.1-0.7,0.3-1.1,0.4c-0.2,0.1-0.4,0.2-0.6,0.3
					c-0.1,0.1-0.2,0.1-0.3,0.2c-0.4,0.2-0.8,0.4-1.1,0.7l-0.5,0.4c0,0,0,0,0,0c0,0,0,0-0.1,0.1c-0.2,0.1-0.3,0.3-0.5,0.4
					c-0.1,0.1-0.2,0.2-0.3,0.3c-0.1,0.1-0.2,0.2-0.3,0.3c-0.1,0.1-0.2,0.2-0.3,0.3c0,0,0,0,0,0.1c-0.2,0.2-0.4,0.4-0.5,0.7
					c-0.1,0.1-0.2,0.2-0.2,0.3c-0.1,0.1-0.2,0.3-0.3,0.4c-0.2,0.2-0.3,0.5-0.5,0.7c-0.1,0.2-0.3,0.5-0.4,0.7
					c-0.1,0.1-0.1,0.2-0.2,0.4c0,0.1-0.1,0.2-0.1,0.3c-0.1,0.2-0.1,0.3-0.2,0.5c-0.1,0.2-0.1,0.3-0.2,0.5c-0.1,0.2-0.1,0.4-0.2,0.6
					c0,0.1-0.1,0.2-0.1,0.4c-0.1,0.3-0.1,0.5-0.1,0.8c0,0,0,0,0,0c0,0.2-0.1,0.3-0.1,0.5c0,0.1,0,0.1,0,0.2c0,0,0,0,0,0.1
					c0,0.2,0,0.3,0,0.5c0,0.2,0,0.4,0,0.6c0,0.1,0,0.3,0,0.4c0,0.1,0,0.1,0,0.2c0,0.1,0,0.2,0,0.3v0.1c0,0,0,0.1,0,0.1
					c0,0,0,0.1,0,0.1c0,0.1,0,0.2,0,0.2c0,0.2,0,0.4,0.1,0.6c0,0.1,0,0.3,0.1,0.5c0,0,0,0,0,0.1c0,0.1,0,0.2,0.1,0.2
					c0,0,0,0.1,0,0.1c0,0.2,0.1,0.4,0.2,0.6c0,0,0,0,0,0.1c0,0.2,0.1,0.3,0.2,0.5c0.1,0.2,0.2,0.4,0.3,0.6c0,0.1,0.1,0.2,0.1,0.3
					c0,0.1,0.1,0.2,0.2,0.4c0,0.1,0.1,0.2,0.1,0.3c0,0,0,0.1,0.1,0.1c0.1,0.1,0.1,0.3,0.2,0.4c0.2,0.3,0.3,0.5,0.5,0.7
					c0.1,0.1,0.2,0.2,0.3,0.4c0.2,0.2,0.4,0.5,0.6,0.7c0.1,0.1,0.2,0.2,0.3,0.3c0.2,0.2,0.4,0.4,0.6,0.6c0.2,0.2,0.4,0.3,0.5,0.5
					c0.2,0.2,0.4,0.3,0.7,0.5c0,0,0.1,0.1,0.2,0.1c0.1,0,0.1,0.1,0.2,0.1c0.1,0.1,0.2,0.1,0.3,0.2c0.1,0.1,0.1,0.1,0.2,0.1
					c0,0,0.1,0,0.1,0.1h0c0.1,0,0.1,0.1,0.2,0.1c0.1,0,0.1,0.1,0.2,0.1c0.1,0.1,0.3,0.1,0.4,0.2c0.3,0.1,0.5,0.2,0.8,0.3
					c0.2,0.1,0.3,0.1,0.5,0.2c0.1,0,0.3,0.1,0.4,0.1c0.2,0.1,0.4,0.1,0.6,0.2c0.1,0,0.3,0.1,0.4,0.1c0.4,0.1,0.8,0.1,1.2,0.2
					c0.4,0,0.7,0,1.1,0c1.2,0,2.4-0.2,3.5-0.5l-10.3-10.7l11.2,0l4.6,7.1c1.8-2.1,2.9-4.8,2.9-7.8
					C252.9,289.4,252.9,289.2,252.9,289.1z M252.9,289.1c0-0.3,0-0.5,0-0.8c0,0,0-0.1,0-0.1c0,0,0,0,0,0c0-0.1,0-0.2,0-0.3
					c0,0,0-0.1,0-0.1c0-0.1,0-0.3-0.1-0.4c0-0.1,0-0.2-0.1-0.3c0-0.2-0.1-0.3-0.1-0.5c0-0.2-0.1-0.3-0.1-0.5
					c-0.1-0.2-0.1-0.4-0.2-0.6c0-0.1,0-0.2-0.1-0.2c0-0.1-0.1-0.3-0.2-0.4c0-0.1-0.1-0.2-0.1-0.3c-0.2-0.4-0.4-0.8-0.6-1.1
					c-0.1-0.1-0.1-0.2-0.2-0.4c0-0.1-0.1-0.2-0.2-0.2c-0.1-0.1-0.2-0.2-0.2-0.3c0,0,0,0,0,0c-0.1-0.2-0.2-0.3-0.4-0.5
					c-0.1-0.1-0.2-0.2-0.3-0.3c-0.1-0.1-0.2-0.2-0.3-0.3c0,0,0,0,0,0c-0.2-0.2-0.3-0.3-0.5-0.5c-0.2-0.2-0.4-0.3-0.6-0.5
					c-0.3-0.2-0.5-0.4-0.8-0.6c-0.1-0.1-0.2-0.1-0.3-0.2c0,0-0.1,0-0.1-0.1c-0.1-0.1-0.2-0.1-0.3-0.2c-0.3-0.2-0.5-0.3-0.8-0.4
					s-0.5-0.3-0.8-0.4c-0.2-0.1-0.4-0.2-0.7-0.2c0,0-0.1,0-0.1,0c-0.1,0-0.2-0.1-0.3-0.1c-0.2-0.1-0.3-0.1-0.5-0.1
					c-0.2-0.1-0.4-0.1-0.6-0.1c-0.3-0.1-0.6-0.1-0.9-0.1c0,0-0.1,0-0.1,0c0,0-0.1,0-0.1,0c0,0-0.1,0-0.1,0c-0.1,0-0.2,0-0.3,0
					c0,0-0.1,0-0.1,0c-0.2,0-0.4,0-0.6,0c-0.2,0-0.4,0-0.6,0c-0.2,0-0.4,0-0.6,0c-0.1,0-0.2,0-0.2,0c-0.1,0-0.3,0-0.4,0
					c-0.5,0.1-1,0.2-1.4,0.3c-0.1,0-0.2,0-0.3,0.1c-0.1,0-0.1,0-0.2,0.1c-0.4,0.1-0.7,0.3-1.1,0.4c-0.2,0.1-0.4,0.2-0.6,0.3
					c-0.1,0.1-0.2,0.1-0.3,0.2c-0.4,0.2-0.8,0.4-1.1,0.7l-0.5,0.4c0,0,0,0,0,0c0,0,0,0-0.1,0.1c-0.2,0.1-0.3,0.3-0.5,0.4
					c-0.1,0.1-0.2,0.2-0.3,0.3c-0.1,0.1-0.2,0.2-0.3,0.3c-0.1,0.1-0.2,0.2-0.3,0.3c0,0,0,0,0,0.1c-0.2,0.2-0.4,0.4-0.5,0.7
					c-0.1,0.1-0.2,0.2-0.2,0.3c-0.1,0.1-0.2,0.3-0.3,0.4c-0.2,0.2-0.3,0.5-0.5,0.7c-0.1,0.2-0.3,0.5-0.4,0.7
					c-0.1,0.1-0.1,0.2-0.2,0.4c0,0.1-0.1,0.2-0.1,0.3c-0.1,0.2-0.1,0.3-0.2,0.5c-0.1,0.2-0.1,0.3-0.2,0.5c-0.1,0.2-0.1,0.4-0.2,0.6
					c0,0.1-0.1,0.2-0.1,0.4c-0.1,0.3-0.1,0.5-0.1,0.8c0,0,0,0,0,0c0,0.2-0.1,0.3-0.1,0.5c0,0.1,0,0.1,0,0.2c0,0,0,0,0,0.1
					c0,0.2,0,0.3,0,0.5c0,0.2,0,0.4,0,0.6c0,0.1,0,0.3,0,0.4c0,0.1,0,0.1,0,0.2c0,0.1,0,0.2,0,0.3v0.1c0,0,0,0.1,0,0.1
					c0,0,0,0.1,0,0.1c0,0.1,0,0.2,0,0.2c0,0.2,0,0.4,0.1,0.6c0,0.1,0,0.3,0.1,0.5c0,0,0,0,0,0.1c0,0.1,0,0.2,0.1,0.2
					c0,0,0,0.1,0,0.1c0,0.2,0.1,0.4,0.2,0.6c0,0,0,0,0,0.1c0,0.2,0.1,0.3,0.2,0.5c0.1,0.2,0.2,0.4,0.3,0.6c0,0.1,0.1,0.2,0.1,0.3
					c0,0.1,0.1,0.2,0.2,0.4c0,0.1,0.1,0.2,0.1,0.3c0,0,0,0.1,0.1,0.1c0.1,0.1,0.1,0.3,0.2,0.4c0.2,0.3,0.3,0.5,0.5,0.7
					c0.1,0.1,0.2,0.2,0.3,0.4c0.2,0.2,0.4,0.5,0.6,0.7c0.1,0.1,0.2,0.2,0.3,0.3c0.2,0.2,0.4,0.4,0.6,0.6c0.2,0.2,0.4,0.3,0.5,0.5
					c0.2,0.2,0.4,0.3,0.7,0.5c0,0,0.1,0.1,0.2,0.1c0.1,0,0.1,0.1,0.2,0.1c0.1,0.1,0.2,0.1,0.3,0.2c0.1,0.1,0.1,0.1,0.2,0.1
					c0,0,0.1,0,0.1,0.1h0c0.1,0,0.1,0.1,0.2,0.1c0.1,0,0.1,0.1,0.2,0.1c0.1,0.1,0.3,0.1,0.4,0.2c0.3,0.1,0.5,0.2,0.8,0.3
					c0.2,0.1,0.3,0.1,0.5,0.2c0.1,0,0.3,0.1,0.4,0.1c0.2,0.1,0.4,0.1,0.6,0.2c0.1,0,0.3,0.1,0.4,0.1c0.4,0.1,0.8,0.1,1.2,0.2
					c0.4,0,0.7,0,1.1,0c1.2,0,2.4-0.2,3.5-0.5l-10.3-10.7l11.2,0l4.6,7.1c1.8-2.1,2.9-4.8,2.9-7.8
					C252.9,289.4,252.9,289.2,252.9,289.1z M252.9,289.1c0-0.3,0-0.5,0-0.8c0,0,0-0.1,0-0.1c0,0,0,0,0,0c0-0.1,0-0.2,0-0.3
					c0,0,0-0.1,0-0.1c0-0.1,0-0.3-0.1-0.4c0-0.1,0-0.2-0.1-0.3c0-0.2-0.1-0.3-0.1-0.5c0-0.2-0.1-0.3-0.1-0.5
					c-0.1-0.2-0.1-0.4-0.2-0.6c0-0.1,0-0.2-0.1-0.2c0-0.1-0.1-0.3-0.2-0.4c0-0.1-0.1-0.2-0.1-0.3c-0.2-0.4-0.4-0.8-0.6-1.1
					c-0.1-0.1-0.1-0.2-0.2-0.4c0-0.1-0.1-0.2-0.2-0.2c-0.1-0.1-0.2-0.2-0.2-0.3c0,0,0,0,0,0c-0.1-0.2-0.2-0.3-0.4-0.5
					c-0.1-0.1-0.2-0.2-0.3-0.3c-0.1-0.1-0.2-0.2-0.3-0.3c0,0,0,0,0,0c-0.2-0.2-0.3-0.3-0.5-0.5c-0.2-0.2-0.4-0.3-0.6-0.5
					c-0.3-0.2-0.5-0.4-0.8-0.6c-0.1-0.1-0.2-0.1-0.3-0.2c0,0-0.1,0-0.1-0.1c-0.1-0.1-0.2-0.1-0.3-0.2c-0.3-0.2-0.5-0.3-0.8-0.4
					s-0.5-0.3-0.8-0.4c-0.2-0.1-0.4-0.2-0.7-0.2c0,0-0.1,0-0.1,0c-0.1,0-0.2-0.1-0.3-0.1c-0.2-0.1-0.3-0.1-0.5-0.1
					c-0.2-0.1-0.4-0.1-0.6-0.1c-0.3-0.1-0.6-0.1-0.9-0.1c0,0-0.1,0-0.1,0c0,0-0.1,0-0.1,0c0,0-0.1,0-0.1,0c-0.1,0-0.2,0-0.3,0
					c0,0-0.1,0-0.1,0c-0.2,0-0.4,0-0.6,0c-0.2,0-0.4,0-0.6,0c-0.2,0-0.4,0-0.6,0c-0.1,0-0.2,0-0.2,0c-0.1,0-0.3,0-0.4,0
					c-0.5,0.1-1,0.2-1.4,0.3c-0.1,0-0.2,0-0.3,0.1c-0.1,0-0.1,0-0.2,0.1c-0.4,0.1-0.7,0.3-1.1,0.4c-0.2,0.1-0.4,0.2-0.6,0.3
					c-0.1,0.1-0.2,0.1-0.3,0.2c-0.4,0.2-0.8,0.4-1.1,0.7l-0.5,0.4c0,0,0,0,0,0c0,0,0,0-0.1,0.1c-0.2,0.1-0.3,0.3-0.5,0.4
					c-0.1,0.1-0.2,0.2-0.3,0.3c-0.1,0.1-0.2,0.2-0.3,0.3c-0.1,0.1-0.2,0.2-0.3,0.3c0,0,0,0,0,0.1c-0.2,0.2-0.4,0.4-0.5,0.7
					c-0.1,0.1-0.2,0.2-0.2,0.3c-0.1,0.1-0.2,0.3-0.3,0.4c-0.2,0.2-0.3,0.5-0.5,0.7c-0.1,0.2-0.3,0.5-0.4,0.7
					c-0.1,0.1-0.1,0.2-0.2,0.4c0,0.1-0.1,0.2-0.1,0.3c-0.1,0.2-0.1,0.3-0.2,0.5c-0.1,0.2-0.1,0.3-0.2,0.5c-0.1,0.2-0.1,0.4-0.2,0.6
					c0,0.1-0.1,0.2-0.1,0.4c-0.1,0.3-0.1,0.5-0.1,0.8c0,0,0,0,0,0c0,0.2-0.1,0.3-0.1,0.5c0,0.1,0,0.1,0,0.2c0,0,0,0,0,0.1
					c0,0.2,0,0.3,0,0.5c0,0.2,0,0.4,0,0.6c0,0.1,0,0.3,0,0.4c0,0.1,0,0.1,0,0.2c0,0.1,0,0.2,0,0.3v0.1c0,0,0,0.1,0,0.1
					c0,0,0,0.1,0,0.1c0,0.1,0,0.2,0,0.2c0,0.2,0,0.4,0.1,0.6c0,0.1,0,0.3,0.1,0.5c0,0,0,0,0,0.1c0,0.1,0,0.2,0.1,0.2
					c0,0,0,0.1,0,0.1c0,0.2,0.1,0.4,0.2,0.6c0,0,0,0,0,0.1c0,0.2,0.1,0.3,0.2,0.5c0.1,0.2,0.2,0.4,0.3,0.6c0,0.1,0.1,0.2,0.1,0.3
					c0,0.1,0.1,0.2,0.2,0.4c0,0.1,0.1,0.2,0.1,0.3c0,0,0,0.1,0.1,0.1c0.1,0.1,0.1,0.3,0.2,0.4c0.2,0.3,0.3,0.5,0.5,0.7
					c0.1,0.1,0.2,0.2,0.3,0.4c0.2,0.2,0.4,0.5,0.6,0.7c0.1,0.1,0.2,0.2,0.3,0.3c0.2,0.2,0.4,0.4,0.6,0.6c0.2,0.2,0.4,0.3,0.5,0.5
					c0.2,0.2,0.4,0.3,0.7,0.5c0,0,0.1,0.1,0.2,0.1c0.1,0,0.1,0.1,0.2,0.1c0.1,0.1,0.2,0.1,0.3,0.2c0.1,0.1,0.1,0.1,0.2,0.1
					c0,0,0.1,0,0.1,0.1h0c0.1,0,0.1,0.1,0.2,0.1c0.1,0,0.1,0.1,0.2,0.1c0.1,0.1,0.3,0.1,0.4,0.2c0.3,0.1,0.5,0.2,0.8,0.3
					c0.2,0.1,0.3,0.1,0.5,0.2c0.1,0,0.3,0.1,0.4,0.1c0.2,0.1,0.4,0.1,0.6,0.2c0.1,0,0.3,0.1,0.4,0.1c0.4,0.1,0.8,0.1,1.2,0.2
					c0.4,0,0.7,0,1.1,0c1.2,0,2.4-0.2,3.5-0.5l-10.3-10.7l11.2,0l4.6,7.1c1.8-2.1,2.9-4.8,2.9-7.8
					C252.9,289.4,252.9,289.2,252.9,289.1z M222.9,284.9c0,0.1-0.1,0.3-0.1,0.4c0-0.2,0.1-0.4,0.2-0.6
					C222.9,284.7,222.9,284.8,222.9,284.9z M252.9,289.1c0-0.3,0-0.5,0-0.8c0,0,0-0.1,0-0.1c0,0,0,0,0,0c0-0.1,0-0.2,0-0.3
					c0,0,0-0.1,0-0.1c0-0.1,0-0.3-0.1-0.4c0-0.1,0-0.2-0.1-0.3c0-0.2-0.1-0.3-0.1-0.5c0-0.2-0.1-0.3-0.1-0.5
					c-0.1-0.2-0.1-0.4-0.2-0.6c0-0.1,0-0.2-0.1-0.2c0-0.1-0.1-0.3-0.2-0.4c0-0.1-0.1-0.2-0.1-0.3c-0.2-0.4-0.4-0.8-0.6-1.1
					c-0.1-0.1-0.1-0.2-0.2-0.4c0-0.1-0.1-0.2-0.2-0.2c-0.1-0.1-0.2-0.2-0.2-0.3c0,0,0,0,0,0c-0.1-0.2-0.2-0.3-0.4-0.5
					c-0.1-0.1-0.2-0.2-0.3-0.3c-0.1-0.1-0.2-0.2-0.3-0.3c0,0,0,0,0,0c-0.2-0.2-0.3-0.3-0.5-0.5c-0.2-0.2-0.4-0.3-0.6-0.5
					c-0.3-0.2-0.5-0.4-0.8-0.6c-0.1-0.1-0.2-0.1-0.3-0.2c0,0-0.1,0-0.1-0.1c-0.1-0.1-0.2-0.1-0.3-0.2c-0.3-0.2-0.5-0.3-0.8-0.4
					s-0.5-0.3-0.8-0.4c-0.2-0.1-0.4-0.2-0.7-0.2c0,0-0.1,0-0.1,0c-0.1,0-0.2-0.1-0.3-0.1c-0.2-0.1-0.3-0.1-0.5-0.1
					c-0.2-0.1-0.4-0.1-0.6-0.1c-0.3-0.1-0.6-0.1-0.9-0.1c0,0-0.1,0-0.1,0c0,0-0.1,0-0.1,0c0,0-0.1,0-0.1,0c-0.1,0-0.2,0-0.3,0
					c0,0-0.1,0-0.1,0c-0.2,0-0.4,0-0.6,0c-0.2,0-0.4,0-0.6,0c-0.2,0-0.4,0-0.6,0c-0.1,0-0.2,0-0.2,0c-0.1,0-0.3,0-0.4,0
					c-0.5,0.1-1,0.2-1.4,0.3c-0.1,0-0.2,0-0.3,0.1c-0.1,0-0.1,0-0.2,0.1c-0.4,0.1-0.7,0.3-1.1,0.4c-0.2,0.1-0.4,0.2-0.6,0.3
					c-0.1,0.1-0.2,0.1-0.3,0.2c-0.4,0.2-0.8,0.4-1.1,0.7l-0.5,0.4c0,0,0,0,0,0c0,0,0,0-0.1,0.1c-0.2,0.1-0.3,0.3-0.5,0.4
					c-0.1,0.1-0.2,0.2-0.3,0.3c-0.1,0.1-0.2,0.2-0.3,0.3c-0.1,0.1-0.2,0.2-0.3,0.3c0,0,0,0,0,0.1c-0.2,0.2-0.4,0.4-0.5,0.7
					c-0.1,0.1-0.2,0.2-0.2,0.3c-0.1,0.1-0.2,0.3-0.3,0.4c-0.2,0.2-0.3,0.5-0.5,0.7c-0.1,0.2-0.3,0.5-0.4,0.7
					c-0.1,0.1-0.1,0.2-0.2,0.4c0,0.1-0.1,0.2-0.1,0.3c-0.1,0.2-0.1,0.3-0.2,0.5c-0.1,0.2-0.1,0.3-0.2,0.5c-0.1,0.2-0.1,0.4-0.2,0.6
					c0,0.1-0.1,0.2-0.1,0.4c-0.1,0.3-0.1,0.5-0.1,0.8c0,0,0,0,0,0c0,0.2-0.1,0.3-0.1,0.5c0,0.1,0,0.1,0,0.2c0,0,0,0,0,0.1
					c0,0.2,0,0.3,0,0.5c0,0.2,0,0.4,0,0.6c0,0.1,0,0.3,0,0.4c0,0.1,0,0.1,0,0.2c0,0.1,0,0.2,0,0.3v0.1c0,0,0,0.1,0,0.1
					c0,0,0,0.1,0,0.1c0,0.1,0,0.2,0,0.2c0,0.2,0,0.4,0.1,0.6c0,0.1,0,0.3,0.1,0.5c0,0,0,0,0,0.1c0,0.1,0,0.2,0.1,0.2
					c0,0,0,0.1,0,0.1c0,0.2,0.1,0.4,0.2,0.6c0,0,0,0,0,0.1c0,0.2,0.1,0.3,0.2,0.5c0.1,0.2,0.2,0.4,0.3,0.6c0,0.1,0.1,0.2,0.1,0.3
					c0,0.1,0.1,0.2,0.2,0.4c0,0.1,0.1,0.2,0.1,0.3c0,0,0,0.1,0.1,0.1c0.1,0.1,0.1,0.3,0.2,0.4c0.2,0.3,0.3,0.5,0.5,0.7
					c0.1,0.1,0.2,0.2,0.3,0.4c0.2,0.2,0.4,0.5,0.6,0.7c0.1,0.1,0.2,0.2,0.3,0.3c0.2,0.2,0.4,0.4,0.6,0.6c0.2,0.2,0.4,0.3,0.5,0.5
					c0.2,0.2,0.4,0.3,0.7,0.5c0,0,0.1,0.1,0.2,0.1c0.1,0,0.1,0.1,0.2,0.1c0.1,0.1,0.2,0.1,0.3,0.2c0.1,0.1,0.1,0.1,0.2,0.1
					c0,0,0.1,0,0.1,0.1h0c0.1,0,0.1,0.1,0.2,0.1c0.1,0,0.1,0.1,0.2,0.1c0.1,0.1,0.3,0.1,0.4,0.2c0.3,0.1,0.5,0.2,0.8,0.3
					c0.2,0.1,0.3,0.1,0.5,0.2c0.1,0,0.3,0.1,0.4,0.1c0.2,0.1,0.4,0.1,0.6,0.2c0.1,0,0.3,0.1,0.4,0.1c0.4,0.1,0.8,0.1,1.2,0.2
					c0.4,0,0.7,0,1.1,0c1.2,0,2.4-0.2,3.5-0.5l-10.3-10.7l11.2,0l4.6,7.1c1.8-2.1,2.9-4.8,2.9-7.8
					C252.9,289.4,252.9,289.2,252.9,289.1z M222.9,284.9c0,0.1-0.1,0.3-0.1,0.4c0-0.2,0.1-0.4,0.2-0.6
					C222.9,284.7,222.9,284.8,222.9,284.9z M225,279.8c0,0-0.1,0.1-0.1,0.2c0.1-0.2,0.2-0.4,0.4-0.6
					C225.1,279.6,225.1,279.7,225,279.8z M225.4,299.9c0.1,0.2,0.3,0.5,0.5,0.7c0.2,0.2,0.3,0.5,0.5,0.7
					C226,300.8,225.7,300.4,225.4,299.9z M252.9,289.1c0-0.3,0-0.5,0-0.8c0,0,0-0.1,0-0.1c0,0,0,0,0,0c0-0.1,0-0.2,0-0.3
					c0,0,0-0.1,0-0.1c0-0.1,0-0.3-0.1-0.4c0-0.1,0-0.2-0.1-0.3c0-0.2-0.1-0.3-0.1-0.5c0-0.2-0.1-0.3-0.1-0.5
					c-0.1-0.2-0.1-0.4-0.2-0.6c0-0.1,0-0.2-0.1-0.2c0-0.1-0.1-0.3-0.2-0.4c0-0.1-0.1-0.2-0.1-0.3c-0.2-0.4-0.4-0.8-0.6-1.1
					c-0.1-0.1-0.1-0.2-0.2-0.4c0-0.1-0.1-0.2-0.2-0.2c-0.1-0.1-0.2-0.2-0.2-0.3c0,0,0,0,0,0c-0.1-0.2-0.2-0.3-0.4-0.5
					c-0.1-0.1-0.2-0.2-0.3-0.3c-0.1-0.1-0.2-0.2-0.3-0.3c0,0,0,0,0,0c-0.2-0.2-0.3-0.3-0.5-0.5c-0.2-0.2-0.4-0.3-0.6-0.5
					c-0.3-0.2-0.5-0.4-0.8-0.6c-0.1-0.1-0.2-0.1-0.3-0.2c0,0-0.1,0-0.1-0.1c-0.1-0.1-0.2-0.1-0.3-0.2c-0.3-0.2-0.5-0.3-0.8-0.4
					s-0.5-0.3-0.8-0.4c-0.2-0.1-0.4-0.2-0.7-0.2c0,0-0.1,0-0.1,0c-0.1,0-0.2-0.1-0.3-0.1c-0.2-0.1-0.3-0.1-0.5-0.1
					c-0.2-0.1-0.4-0.1-0.6-0.1c-0.3-0.1-0.6-0.1-0.9-0.1c0,0-0.1,0-0.1,0c0,0-0.1,0-0.1,0c0,0-0.1,0-0.1,0c-0.1,0-0.2,0-0.3,0
					c0,0-0.1,0-0.1,0c-0.2,0-0.4,0-0.6,0c-0.2,0-0.4,0-0.6,0c-0.2,0-0.4,0-0.6,0c-0.1,0-0.2,0-0.2,0c-0.1,0-0.3,0-0.4,0
					c-0.5,0.1-1,0.2-1.4,0.3c-0.1,0-0.2,0-0.3,0.1c-0.1,0-0.1,0-0.2,0.1c-0.4,0.1-0.7,0.3-1.1,0.4c-0.2,0.1-0.4,0.2-0.6,0.3
					c-0.1,0.1-0.2,0.1-0.3,0.2c-0.4,0.2-0.8,0.4-1.1,0.7l-0.5,0.4c0,0,0,0,0,0c0,0,0,0-0.1,0.1c-0.2,0.1-0.3,0.3-0.5,0.4
					c-0.1,0.1-0.2,0.2-0.3,0.3c-0.1,0.1-0.2,0.2-0.3,0.3c-0.1,0.1-0.2,0.2-0.3,0.3c0,0,0,0,0,0.1c-0.2,0.2-0.4,0.4-0.5,0.7
					c-0.1,0.1-0.2,0.2-0.2,0.3c-0.1,0.1-0.2,0.3-0.3,0.4c-0.2,0.2-0.3,0.5-0.5,0.7c-0.1,0.2-0.3,0.5-0.4,0.7
					c-0.1,0.1-0.1,0.2-0.2,0.4c0,0.1-0.1,0.2-0.1,0.3c-0.1,0.2-0.1,0.3-0.2,0.5c-0.1,0.2-0.1,0.3-0.2,0.5c-0.1,0.2-0.1,0.4-0.2,0.6
					c0,0.1-0.1,0.2-0.1,0.4c-0.1,0.3-0.1,0.5-0.1,0.8c0,0,0,0,0,0c0,0.2-0.1,0.3-0.1,0.5c0,0.1,0,0.1,0,0.2c0,0,0,0,0,0.1
					c0,0.2,0,0.3,0,0.5c0,0.2,0,0.4,0,0.6c0,0.1,0,0.3,0,0.4c0,0.1,0,0.1,0,0.2c0,0.1,0,0.2,0,0.3v0.1c0,0,0,0.1,0,0.1
					c0,0,0,0.1,0,0.1c0,0.1,0,0.2,0,0.2c0,0.2,0,0.4,0.1,0.6c0,0.1,0,0.3,0.1,0.5c0,0,0,0,0,0.1c0,0.1,0,0.2,0.1,0.2
					c0,0,0,0.1,0,0.1c0,0.2,0.1,0.4,0.2,0.6c0,0,0,0,0,0.1c0,0.2,0.1,0.3,0.2,0.5c0.1,0.2,0.2,0.4,0.3,0.6c0,0.1,0.1,0.2,0.1,0.3
					c0,0.1,0.1,0.2,0.2,0.4c0,0.1,0.1,0.2,0.1,0.3c0,0,0,0.1,0.1,0.1c0.1,0.1,0.1,0.3,0.2,0.4c0.2,0.3,0.3,0.5,0.5,0.7
					c0.1,0.1,0.2,0.2,0.3,0.4c0.2,0.2,0.4,0.5,0.6,0.7c0.1,0.1,0.2,0.2,0.3,0.3c0.2,0.2,0.4,0.4,0.6,0.6c0.2,0.2,0.4,0.3,0.5,0.5
					c0.2,0.2,0.4,0.3,0.7,0.5c0,0,0.1,0.1,0.2,0.1c0.1,0,0.1,0.1,0.2,0.1c0.1,0.1,0.2,0.1,0.3,0.2c0.1,0.1,0.1,0.1,0.2,0.1
					c0,0,0.1,0,0.1,0.1h0c0.1,0,0.1,0.1,0.2,0.1c0.1,0,0.1,0.1,0.2,0.1c0.1,0.1,0.3,0.1,0.4,0.2c0.3,0.1,0.5,0.2,0.8,0.3
					c0.2,0.1,0.3,0.1,0.5,0.2c0.1,0,0.3,0.1,0.4,0.1c0.2,0.1,0.4,0.1,0.6,0.2c0.1,0,0.3,0.1,0.4,0.1c0.4,0.1,0.8,0.1,1.2,0.2
					c0.4,0,0.7,0,1.1,0c1.2,0,2.4-0.2,3.5-0.5l-10.3-10.7l11.2,0l4.6,7.1c1.8-2.1,2.9-4.8,2.9-7.8
					C252.9,289.4,252.9,289.2,252.9,289.1z M236.8,263.6h6.9v-0.2L236.8,263.6z M252.9,289.1c0-0.3,0-0.5,0-0.8c0,0,0-0.1,0-0.1
					c0,0,0,0,0,0c0-0.1,0-0.2,0-0.3c0,0,0-0.1,0-0.1c0-0.1,0-0.3-0.1-0.4c0-0.1,0-0.2-0.1-0.3c0-0.2-0.1-0.3-0.1-0.5
					c0-0.2-0.1-0.3-0.1-0.5c-0.1-0.2-0.1-0.4-0.2-0.6c0-0.1,0-0.2-0.1-0.2c0-0.1-0.1-0.3-0.2-0.4c0-0.1-0.1-0.2-0.1-0.3
					c-0.2-0.4-0.4-0.8-0.6-1.1c-0.1-0.1-0.1-0.2-0.2-0.4c0-0.1-0.1-0.2-0.2-0.2c-0.1-0.1-0.2-0.2-0.2-0.3c0,0,0,0,0,0
					c-0.1-0.2-0.2-0.3-0.4-0.5c-0.1-0.1-0.2-0.2-0.3-0.3c-0.1-0.1-0.2-0.2-0.3-0.3c0,0,0,0,0,0c-0.2-0.2-0.3-0.3-0.5-0.5
					c-0.2-0.2-0.4-0.3-0.6-0.5c-0.3-0.2-0.5-0.4-0.8-0.6c-0.1-0.1-0.2-0.1-0.3-0.2c0,0-0.1,0-0.1-0.1c-0.1-0.1-0.2-0.1-0.3-0.2
					c-0.3-0.2-0.5-0.3-0.8-0.4s-0.5-0.3-0.8-0.4c-0.2-0.1-0.4-0.2-0.7-0.2c0,0-0.1,0-0.1,0c-0.1,0-0.2-0.1-0.3-0.1
					c-0.2-0.1-0.3-0.1-0.5-0.1c-0.2-0.1-0.4-0.1-0.6-0.1c-0.3-0.1-0.6-0.1-0.9-0.1c0,0-0.1,0-0.1,0c0,0-0.1,0-0.1,0c0,0-0.1,0-0.1,0
					c-0.1,0-0.2,0-0.3,0c0,0-0.1,0-0.1,0c-0.2,0-0.4,0-0.6,0c-0.2,0-0.4,0-0.6,0c-0.2,0-0.4,0-0.6,0c-0.1,0-0.2,0-0.2,0
					c-0.1,0-0.3,0-0.4,0c-0.5,0.1-1,0.2-1.4,0.3c-0.1,0-0.2,0-0.3,0.1c-0.1,0-0.1,0-0.2,0.1c-0.4,0.1-0.7,0.3-1.1,0.4
					c-0.2,0.1-0.4,0.2-0.6,0.3c-0.1,0.1-0.2,0.1-0.3,0.2c-0.4,0.2-0.8,0.4-1.1,0.7l-0.5,0.4c0,0,0,0,0,0c0,0,0,0-0.1,0.1
					c-0.2,0.1-0.3,0.3-0.5,0.4c-0.1,0.1-0.2,0.2-0.3,0.3c-0.1,0.1-0.2,0.2-0.3,0.3c-0.1,0.1-0.2,0.2-0.3,0.3c0,0,0,0,0,0.1
					c-0.2,0.2-0.4,0.4-0.5,0.7c-0.1,0.1-0.2,0.2-0.2,0.3c-0.1,0.1-0.2,0.3-0.3,0.4c-0.2,0.2-0.3,0.5-0.5,0.7
					c-0.1,0.2-0.3,0.5-0.4,0.7c-0.1,0.1-0.1,0.2-0.2,0.4c0,0.1-0.1,0.2-0.1,0.3c-0.1,0.2-0.1,0.3-0.2,0.5c-0.1,0.2-0.1,0.3-0.2,0.5
					c-0.1,0.2-0.1,0.4-0.2,0.6c0,0.1-0.1,0.2-0.1,0.4c-0.1,0.3-0.1,0.5-0.1,0.8c0,0,0,0,0,0c0,0.2-0.1,0.3-0.1,0.5
					c0,0.1,0,0.1,0,0.2c0,0,0,0,0,0.1c0,0.2,0,0.3,0,0.5c0,0.2,0,0.4,0,0.6c0,0.1,0,0.3,0,0.4c0,0.1,0,0.1,0,0.2c0,0.1,0,0.2,0,0.3
					v0.1c0,0,0,0.1,0,0.1c0,0,0,0.1,0,0.1c0,0.1,0,0.2,0,0.2c0,0.2,0,0.4,0.1,0.6c0,0.1,0,0.3,0.1,0.5c0,0,0,0,0,0.1
					c0,0.1,0,0.2,0.1,0.2c0,0,0,0.1,0,0.1c0,0.2,0.1,0.4,0.2,0.6c0,0,0,0,0,0.1c0,0.2,0.1,0.3,0.2,0.5c0.1,0.2,0.2,0.4,0.3,0.6
					c0,0.1,0.1,0.2,0.1,0.3c0,0.1,0.1,0.2,0.2,0.4c0,0.1,0.1,0.2,0.1,0.3c0,0,0,0.1,0.1,0.1c0.1,0.1,0.1,0.3,0.2,0.4
					c0.2,0.3,0.3,0.5,0.5,0.7c0.1,0.1,0.2,0.2,0.3,0.4c0.2,0.2,0.4,0.5,0.6,0.7c0.1,0.1,0.2,0.2,0.3,0.3c0.2,0.2,0.4,0.4,0.6,0.6
					c0.2,0.2,0.4,0.3,0.5,0.5c0.2,0.2,0.4,0.3,0.7,0.5c0,0,0.1,0.1,0.2,0.1c0.1,0,0.1,0.1,0.2,0.1c0.1,0.1,0.2,0.1,0.3,0.2
					c0.1,0.1,0.1,0.1,0.2,0.1c0,0,0.1,0,0.1,0.1h0c0.1,0,0.1,0.1,0.2,0.1c0.1,0,0.1,0.1,0.2,0.1c0.1,0.1,0.3,0.1,0.4,0.2
					c0.3,0.1,0.5,0.2,0.8,0.3c0.2,0.1,0.3,0.1,0.5,0.2c0.1,0,0.3,0.1,0.4,0.1c0.2,0.1,0.4,0.1,0.6,0.2c0.1,0,0.3,0.1,0.4,0.1
					c0.4,0.1,0.8,0.1,1.2,0.2c0.4,0,0.7,0,1.1,0c1.2,0,2.4-0.2,3.5-0.5l-10.3-10.7l11.2,0l4.6,7.1c1.8-2.1,2.9-4.8,2.9-7.8
					C252.9,289.4,252.9,289.2,252.9,289.1z M252.9,289.1c0-0.3,0-0.5,0-0.8c0,0,0-0.1,0-0.1c0,0,0,0,0,0c0-0.1,0-0.2,0-0.3
					c0,0,0-0.1,0-0.1c0-0.1,0-0.3-0.1-0.4c0-0.1,0-0.2-0.1-0.3c0-0.2-0.1-0.3-0.1-0.5c0-0.2-0.1-0.3-0.1-0.5
					c-0.1-0.2-0.1-0.4-0.2-0.6c0-0.1,0-0.2-0.1-0.2c0-0.1-0.1-0.3-0.2-0.4c0-0.1-0.1-0.2-0.1-0.3c-0.2-0.4-0.4-0.8-0.6-1.1
					c-0.1-0.1-0.1-0.2-0.2-0.4c0-0.1-0.1-0.2-0.2-0.2c-0.1-0.1-0.2-0.2-0.2-0.3c0,0,0,0,0,0c-0.1-0.2-0.2-0.3-0.4-0.5
					c-0.1-0.1-0.2-0.2-0.3-0.3c-0.1-0.1-0.2-0.2-0.3-0.3c0,0,0,0,0,0c-0.2-0.2-0.3-0.3-0.5-0.5c-0.2-0.2-0.4-0.3-0.6-0.5
					c-0.3-0.2-0.5-0.4-0.8-0.6c-0.1-0.1-0.2-0.1-0.3-0.2c0,0-0.1,0-0.1-0.1c-0.1-0.1-0.2-0.1-0.3-0.2c-0.3-0.2-0.5-0.3-0.8-0.4
					s-0.5-0.3-0.8-0.4c-0.2-0.1-0.4-0.2-0.7-0.2c0,0-0.1,0-0.1,0c-0.1,0-0.2-0.1-0.3-0.1c-0.2-0.1-0.3-0.1-0.5-0.1
					c-0.2-0.1-0.4-0.1-0.6-0.1c-0.3-0.1-0.6-0.1-0.9-0.1c0,0-0.1,0-0.1,0c0,0-0.1,0-0.1,0c0,0-0.1,0-0.1,0c-0.1,0-0.2,0-0.3,0
					c0,0-0.1,0-0.1,0c-0.2,0-0.4,0-0.6,0c-0.2,0-0.4,0-0.6,0c-0.2,0-0.4,0-0.6,0c-0.1,0-0.2,0-0.2,0c-0.1,0-0.3,0-0.4,0
					c-0.5,0.1-1,0.2-1.4,0.3c-0.1,0-0.2,0-0.3,0.1c-0.1,0-0.1,0-0.2,0.1c-0.4,0.1-0.7,0.3-1.1,0.4c-0.2,0.1-0.4,0.2-0.6,0.3
					c-0.1,0.1-0.2,0.1-0.3,0.2c-0.4,0.2-0.8,0.4-1.1,0.7l-0.5,0.4c0,0,0,0,0,0c0,0,0,0-0.1,0.1c-0.2,0.1-0.3,0.3-0.5,0.4
					c-0.1,0.1-0.2,0.2-0.3,0.3c-0.1,0.1-0.2,0.2-0.3,0.3c-0.1,0.1-0.2,0.2-0.3,0.3c0,0,0,0,0,0.1c-0.2,0.2-0.4,0.4-0.5,0.7
					c-0.1,0.1-0.2,0.2-0.2,0.3c-0.1,0.1-0.2,0.3-0.3,0.4c-0.2,0.2-0.3,0.5-0.5,0.7c-0.1,0.2-0.3,0.5-0.4,0.7
					c-0.1,0.1-0.1,0.2-0.2,0.4c0,0.1-0.1,0.2-0.1,0.3c-0.1,0.2-0.1,0.3-0.2,0.5c-0.1,0.2-0.1,0.3-0.2,0.5c-0.1,0.2-0.1,0.4-0.2,0.6
					c0,0.1-0.1,0.2-0.1,0.4c-0.1,0.3-0.1,0.5-0.1,0.8c0,0,0,0,0,0c0,0.2-0.1,0.3-0.1,0.5c0,0.1,0,0.1,0,0.2c0,0,0,0,0,0.1
					c0,0.2,0,0.3,0,0.5c0,0.2,0,0.4,0,0.6c0,0.1,0,0.3,0,0.4c0,0.1,0,0.1,0,0.2c0,0.1,0,0.2,0,0.3v0.1c0,0,0,0.1,0,0.1
					c0,0,0,0.1,0,0.1c0,0.1,0,0.2,0,0.2c0,0.2,0,0.4,0.1,0.6c0,0.1,0,0.3,0.1,0.5c0,0,0,0,0,0.1c0,0.1,0,0.2,0.1,0.2
					c0,0,0,0.1,0,0.1c0,0.2,0.1,0.4,0.2,0.6c0,0,0,0,0,0.1c0,0.2,0.1,0.3,0.2,0.5c0.1,0.2,0.2,0.4,0.3,0.6c0,0.1,0.1,0.2,0.1,0.3
					c0,0.1,0.1,0.2,0.2,0.4c0,0.1,0.1,0.2,0.1,0.3c0,0,0,0.1,0.1,0.1c0.1,0.1,0.1,0.3,0.2,0.4c0.2,0.3,0.3,0.5,0.5,0.7
					c0.1,0.1,0.2,0.2,0.3,0.4c0.2,0.2,0.4,0.5,0.6,0.7c0.1,0.1,0.2,0.2,0.3,0.3c0.2,0.2,0.4,0.4,0.6,0.6c0.2,0.2,0.4,0.3,0.5,0.5
					c0.2,0.2,0.4,0.3,0.7,0.5c0,0,0.1,0.1,0.2,0.1c0.1,0,0.1,0.1,0.2,0.1c0.1,0.1,0.2,0.1,0.3,0.2c0.1,0.1,0.1,0.1,0.2,0.1
					c0,0,0.1,0,0.1,0.1h0c0.1,0,0.1,0.1,0.2,0.1c0.1,0,0.1,0.1,0.2,0.1c0.1,0.1,0.3,0.1,0.4,0.2c0.3,0.1,0.5,0.2,0.8,0.3
					c0.2,0.1,0.3,0.1,0.5,0.2c0.1,0,0.3,0.1,0.4,0.1c0.2,0.1,0.4,0.1,0.6,0.2c0.1,0,0.3,0.1,0.4,0.1c0.4,0.1,0.8,0.1,1.2,0.2
					c0.4,0,0.7,0,1.1,0c1.2,0,2.4-0.2,3.5-0.5l-10.3-10.7l11.2,0l4.6,7.1c1.8-2.1,2.9-4.8,2.9-7.8
					C252.9,289.4,252.9,289.2,252.9,289.1z M252.9,289.1c0-0.3,0-0.5,0-0.8c0,0,0-0.1,0-0.1c0,0,0,0,0,0c0-0.1,0-0.2,0-0.3
					c0,0,0-0.1,0-0.1c0-0.1,0-0.3-0.1-0.4c0-0.1,0-0.2-0.1-0.3c0-0.2-0.1-0.3-0.1-0.5c0-0.2-0.1-0.3-0.1-0.5
					c-0.1-0.2-0.1-0.4-0.2-0.6c0-0.1,0-0.2-0.1-0.2c0-0.1-0.1-0.3-0.2-0.4c0-0.1-0.1-0.2-0.1-0.3c-0.2-0.4-0.4-0.8-0.6-1.1
					c-0.1-0.1-0.1-0.2-0.2-0.4c0-0.1-0.1-0.2-0.2-0.2c-0.1-0.1-0.2-0.2-0.2-0.3c0,0,0,0,0,0c-0.1-0.2-0.2-0.3-0.4-0.5
					c-0.1-0.1-0.2-0.2-0.3-0.3c-0.1-0.1-0.2-0.2-0.3-0.3c0,0,0,0,0,0c-0.2-0.2-0.3-0.3-0.5-0.5c-0.2-0.2-0.4-0.3-0.6-0.5
					c-0.3-0.2-0.5-0.4-0.8-0.6c-0.1-0.1-0.2-0.1-0.3-0.2c0,0-0.1,0-0.1-0.1c-0.1-0.1-0.2-0.1-0.3-0.2c-0.3-0.2-0.5-0.3-0.8-0.4
					s-0.5-0.3-0.8-0.4c-0.2-0.1-0.4-0.2-0.7-0.2c0,0-0.1,0-0.1,0c-0.1,0-0.2-0.1-0.3-0.1c-0.2-0.1-0.3-0.1-0.5-0.1
					c-0.2-0.1-0.4-0.1-0.6-0.1c-0.3-0.1-0.6-0.1-0.9-0.1c0,0-0.1,0-0.1,0c0,0-0.1,0-0.1,0c0,0-0.1,0-0.1,0c-0.1,0-0.2,0-0.3,0
					c0,0-0.1,0-0.1,0c-0.2,0-0.4,0-0.6,0c-0.2,0-0.4,0-0.6,0c-0.2,0-0.4,0-0.6,0c-0.1,0-0.2,0-0.2,0c-0.1,0-0.3,0-0.4,0
					c-0.5,0.1-1,0.2-1.4,0.3c-0.1,0-0.2,0-0.3,0.1c-0.1,0-0.1,0-0.2,0.1c-0.4,0.1-0.7,0.3-1.1,0.4c-0.2,0.1-0.4,0.2-0.6,0.3
					c-0.1,0.1-0.2,0.1-0.3,0.2c-0.4,0.2-0.8,0.4-1.1,0.7l-0.5,0.4c0,0,0,0,0,0c0,0,0,0-0.1,0.1c-0.2,0.1-0.3,0.3-0.5,0.4
					c-0.1,0.1-0.2,0.2-0.3,0.3c-0.1,0.1-0.2,0.2-0.3,0.3c-0.1,0.1-0.2,0.2-0.3,0.3c0,0,0,0,0,0.1c-0.2,0.2-0.4,0.4-0.5,0.7
					c-0.1,0.1-0.2,0.2-0.2,0.3c-0.1,0.1-0.2,0.3-0.3,0.4c-0.2,0.2-0.3,0.5-0.5,0.7c-0.1,0.2-0.3,0.5-0.4,0.7
					c-0.1,0.1-0.1,0.2-0.2,0.4c0,0.1-0.1,0.2-0.1,0.3c-0.1,0.2-0.1,0.3-0.2,0.5c-0.1,0.2-0.1,0.3-0.2,0.5c-0.1,0.2-0.1,0.4-0.2,0.6
					c0,0.1-0.1,0.2-0.1,0.4c-0.1,0.3-0.1,0.5-0.1,0.8c0,0,0,0,0,0c0,0.2-0.1,0.3-0.1,0.5c0,0.1,0,0.1,0,0.2c0,0,0,0,0,0.1
					c0,0.2,0,0.3,0,0.5c0,0.2,0,0.4,0,0.6c0,0.1,0,0.3,0,0.4c0,0.1,0,0.1,0,0.2c0,0.1,0,0.2,0,0.3v0.1c0,0,0,0.1,0,0.1
					c0,0,0,0.1,0,0.1c0,0.1,0,0.2,0,0.2c0,0.2,0,0.4,0.1,0.6c0,0.1,0,0.3,0.1,0.5c0,0,0,0,0,0.1c0,0.1,0,0.2,0.1,0.2
					c0,0,0,0.1,0,0.1c0,0.2,0.1,0.4,0.2,0.6c0,0,0,0,0,0.1c0,0.2,0.1,0.3,0.2,0.5c0.1,0.2,0.2,0.4,0.3,0.6c0,0.1,0.1,0.2,0.1,0.3
					c0,0.1,0.1,0.2,0.2,0.4c0,0.1,0.1,0.2,0.1,0.3c0,0,0,0.1,0.1,0.1c0.1,0.1,0.1,0.3,0.2,0.4c0.2,0.3,0.3,0.5,0.5,0.7
					c0.1,0.1,0.2,0.2,0.3,0.4c0.2,0.2,0.4,0.5,0.6,0.7c0.1,0.1,0.2,0.2,0.3,0.3c0.2,0.2,0.4,0.4,0.6,0.6c0.2,0.2,0.4,0.3,0.5,0.5
					c0.2,0.2,0.4,0.3,0.7,0.5c0,0,0.1,0.1,0.2,0.1c0.1,0,0.1,0.1,0.2,0.1c0.1,0.1,0.2,0.1,0.3,0.2c0.1,0.1,0.1,0.1,0.2,0.1
					c0,0,0.1,0,0.1,0.1h0c0.1,0,0.1,0.1,0.2,0.1c0.1,0,0.1,0.1,0.2,0.1c0.1,0.1,0.3,0.1,0.4,0.2c0.3,0.1,0.5,0.2,0.8,0.3
					c0.2,0.1,0.3,0.1,0.5,0.2c0.1,0,0.3,0.1,0.4,0.1c0.2,0.1,0.4,0.1,0.6,0.2c0.1,0,0.3,0.1,0.4,0.1c0.4,0.1,0.8,0.1,1.2,0.2
					c0.4,0,0.7,0,1.1,0c1.2,0,2.4-0.2,3.5-0.5l-10.3-10.7l11.2,0l4.6,7.1c1.8-2.1,2.9-4.8,2.9-7.8
					C252.9,289.4,252.9,289.2,252.9,289.1z M252.9,289.1c0-0.3,0-0.5,0-0.8c0,0,0-0.1,0-0.1c0,0,0,0,0,0c0-0.1,0-0.2,0-0.3
					c0,0,0-0.1,0-0.1c0-0.1,0-0.3-0.1-0.4c0-0.1,0-0.2-0.1-0.3c0-0.2-0.1-0.3-0.1-0.5c0-0.2-0.1-0.3-0.1-0.5
					c-0.1-0.2-0.1-0.4-0.2-0.6c0-0.1,0-0.2-0.1-0.2c0-0.1-0.1-0.3-0.2-0.4c0-0.1-0.1-0.2-0.1-0.3c-0.2-0.4-0.4-0.8-0.6-1.1
					c-0.1-0.1-0.1-0.2-0.2-0.4c0-0.1-0.1-0.2-0.2-0.2c-0.1-0.1-0.2-0.2-0.2-0.3c0,0,0,0,0,0c-0.1-0.2-0.2-0.3-0.4-0.5
					c-0.1-0.1-0.2-0.2-0.3-0.3c-0.1-0.1-0.2-0.2-0.3-0.3c0,0,0,0,0,0c-0.2-0.2-0.3-0.3-0.5-0.5c-0.2-0.2-0.4-0.3-0.6-0.5
					c-0.3-0.2-0.5-0.4-0.8-0.6c-0.1-0.1-0.2-0.1-0.3-0.2c0,0-0.1,0-0.1-0.1c-0.1-0.1-0.2-0.1-0.3-0.2c-0.3-0.2-0.5-0.3-0.8-0.4
					s-0.5-0.3-0.8-0.4c-0.2-0.1-0.4-0.2-0.7-0.2c0,0-0.1,0-0.1,0c-0.1,0-0.2-0.1-0.3-0.1c-0.2-0.1-0.3-0.1-0.5-0.1
					c-0.2-0.1-0.4-0.1-0.6-0.1c-0.3-0.1-0.6-0.1-0.9-0.1c0,0-0.1,0-0.1,0c0,0-0.1,0-0.1,0c0,0-0.1,0-0.1,0c-0.1,0-0.2,0-0.3,0
					c0,0-0.1,0-0.1,0c-0.2,0-0.4,0-0.6,0c-0.2,0-0.4,0-0.6,0c-0.2,0-0.4,0-0.6,0c-0.1,0-0.2,0-0.2,0c-0.1,0-0.3,0-0.4,0
					c-0.5,0.1-1,0.2-1.4,0.3c-0.1,0-0.2,0-0.3,0.1c-0.1,0-0.1,0-0.2,0.1c-0.4,0.1-0.7,0.3-1.1,0.4c-0.2,0.1-0.4,0.2-0.6,0.3
					c-0.1,0.1-0.2,0.1-0.3,0.2c-0.4,0.2-0.8,0.4-1.1,0.7l-0.5,0.4c0,0,0,0,0,0c0,0,0,0-0.1,0.1c-0.2,0.1-0.3,0.3-0.5,0.4
					c-0.1,0.1-0.2,0.2-0.3,0.3c-0.1,0.1-0.2,0.2-0.3,0.3c-0.1,0.1-0.2,0.2-0.3,0.3c0,0,0,0,0,0.1c-0.2,0.2-0.4,0.4-0.5,0.7
					c-0.1,0.1-0.2,0.2-0.2,0.3c-0.1,0.1-0.2,0.3-0.3,0.4c-0.2,0.2-0.3,0.5-0.5,0.7c-0.1,0.2-0.3,0.5-0.4,0.7
					c-0.1,0.1-0.1,0.2-0.2,0.4c0,0.1-0.1,0.2-0.1,0.3c-0.1,0.2-0.1,0.3-0.2,0.5c-0.1,0.2-0.1,0.3-0.2,0.5c-0.1,0.2-0.1,0.4-0.2,0.6
					c0,0.1-0.1,0.2-0.1,0.4c-0.1,0.3-0.1,0.5-0.1,0.8c0,0,0,0,0,0c0,0.2-0.1,0.3-0.1,0.5c0,0.1,0,0.1,0,0.2c0,0,0,0,0,0.1
					c0,0.2,0,0.3,0,0.5c0,0.2,0,0.4,0,0.6c0,0.1,0,0.3,0,0.4c0,0.1,0,0.1,0,0.2c0,0.1,0,0.2,0,0.3v0.1c0,0,0,0.1,0,0.1
					c0,0,0,0.1,0,0.1c0,0.1,0,0.2,0,0.2c0,0.2,0,0.4,0.1,0.6c0,0.1,0,0.3,0.1,0.5c0,0,0,0,0,0.1c0,0.1,0,0.2,0.1,0.2
					c0,0,0,0.1,0,0.1c0,0.2,0.1,0.4,0.2,0.6c0,0,0,0,0,0.1c0,0.2,0.1,0.3,0.2,0.5c0.1,0.2,0.2,0.4,0.3,0.6c0,0.1,0.1,0.2,0.1,0.3
					c0,0.1,0.1,0.2,0.2,0.4c0,0.1,0.1,0.2,0.1,0.3c0,0,0,0.1,0.1,0.1c0.1,0.1,0.1,0.3,0.2,0.4c0.2,0.3,0.3,0.5,0.5,0.7
					c0.1,0.1,0.2,0.2,0.3,0.4c0.2,0.2,0.4,0.5,0.6,0.7c0.1,0.1,0.2,0.2,0.3,0.3c0.2,0.2,0.4,0.4,0.6,0.6c0.2,0.2,0.4,0.3,0.5,0.5
					c0.2,0.2,0.4,0.3,0.7,0.5c0,0,0.1,0.1,0.2,0.1c0.1,0,0.1,0.1,0.2,0.1c0.1,0.1,0.2,0.1,0.3,0.2c0.1,0.1,0.1,0.1,0.2,0.1
					c0,0,0.1,0,0.1,0.1h0c0.1,0,0.1,0.1,0.2,0.1c0.1,0,0.1,0.1,0.2,0.1c0.1,0.1,0.3,0.1,0.4,0.2c0.3,0.1,0.5,0.2,0.8,0.3
					c0.2,0.1,0.3,0.1,0.5,0.2c0.1,0,0.3,0.1,0.4,0.1c0.2,0.1,0.4,0.1,0.6,0.2c0.1,0,0.3,0.1,0.4,0.1c0.4,0.1,0.8,0.1,1.2,0.2
					c0.4,0,0.7,0,1.1,0c1.2,0,2.4-0.2,3.5-0.5l-10.3-10.7l11.2,0l4.6,7.1c1.8-2.1,2.9-4.8,2.9-7.8
					C252.9,289.4,252.9,289.2,252.9,289.1z M252.9,289.1c0-0.3,0-0.5,0-0.8c0,0,0-0.1,0-0.1c0,0,0,0,0,0c0-0.1,0-0.2,0-0.3
					c0,0,0-0.1,0-0.1c0-0.1,0-0.3-0.1-0.4c0-0.1,0-0.2-0.1-0.3c0-0.2-0.1-0.3-0.1-0.5c0-0.2-0.1-0.3-0.1-0.5
					c-0.1-0.2-0.1-0.4-0.2-0.6c0-0.1,0-0.2-0.1-0.2c0-0.1-0.1-0.3-0.2-0.4c0-0.1-0.1-0.2-0.1-0.3c-0.2-0.4-0.4-0.8-0.6-1.1
					c-0.1-0.1-0.1-0.2-0.2-0.4c0-0.1-0.1-0.2-0.2-0.2c-0.1-0.1-0.2-0.2-0.2-0.3c0,0,0,0,0,0c-0.1-0.2-0.2-0.3-0.4-0.5
					c-0.1-0.1-0.2-0.2-0.3-0.3c-0.1-0.1-0.2-0.2-0.3-0.3c0,0,0,0,0,0c-0.2-0.2-0.3-0.3-0.5-0.5c-0.2-0.2-0.4-0.3-0.6-0.5
					c-0.3-0.2-0.5-0.4-0.8-0.6c-0.1-0.1-0.2-0.1-0.3-0.2c0,0-0.1,0-0.1-0.1c-0.1-0.1-0.2-0.1-0.3-0.2c-0.3-0.2-0.5-0.3-0.8-0.4
					s-0.5-0.3-0.8-0.4c-0.2-0.1-0.4-0.2-0.7-0.2c0,0-0.1,0-0.1,0c-0.1,0-0.2-0.1-0.3-0.1c-0.2-0.1-0.3-0.1-0.5-0.1
					c-0.2-0.1-0.4-0.1-0.6-0.1c-0.3-0.1-0.6-0.1-0.9-0.1c0,0-0.1,0-0.1,0c0,0-0.1,0-0.1,0c0,0-0.1,0-0.1,0c-0.1,0-0.2,0-0.3,0
					c0,0-0.1,0-0.1,0c-0.2,0-0.4,0-0.6,0c-0.2,0-0.4,0-0.6,0c-0.2,0-0.4,0-0.6,0c-0.1,0-0.2,0-0.2,0c-0.1,0-0.3,0-0.4,0
					c-0.5,0.1-1,0.2-1.4,0.3c-0.1,0-0.2,0-0.3,0.1c-0.1,0-0.1,0-0.2,0.1c-0.4,0.1-0.7,0.3-1.1,0.4c-0.2,0.1-0.4,0.2-0.6,0.3
					c-0.1,0.1-0.2,0.1-0.3,0.2c-0.4,0.2-0.8,0.4-1.1,0.7l-0.5,0.4c0,0,0,0,0,0c0,0,0,0-0.1,0.1c-0.2,0.1-0.3,0.3-0.5,0.4
					c-0.1,0.1-0.2,0.2-0.3,0.3c-0.1,0.1-0.2,0.2-0.3,0.3c-0.1,0.1-0.2,0.2-0.3,0.3c0,0,0,0,0,0.1c-0.2,0.2-0.4,0.4-0.5,0.7
					c-0.1,0.1-0.2,0.2-0.2,0.3c-0.1,0.1-0.2,0.3-0.3,0.4c-0.2,0.2-0.3,0.5-0.5,0.7c-0.1,0.2-0.3,0.5-0.4,0.7
					c-0.1,0.1-0.1,0.2-0.2,0.4c0,0.1-0.1,0.2-0.1,0.3c-0.1,0.2-0.1,0.3-0.2,0.5c-0.1,0.2-0.1,0.3-0.2,0.5c-0.1,0.2-0.1,0.4-0.2,0.6
					c0,0.1-0.1,0.2-0.1,0.4c-0.1,0.3-0.1,0.5-0.1,0.8c0,0,0,0,0,0c0,0.2-0.1,0.3-0.1,0.5c0,0.1,0,0.1,0,0.2c0,0,0,0,0,0.1
					c0,0.2,0,0.3,0,0.5c0,0.2,0,0.4,0,0.6c0,0.1,0,0.3,0,0.4c0,0.1,0,0.1,0,0.2c0,0.1,0,0.2,0,0.3v0.1c0,0,0,0.1,0,0.1
					c0,0,0,0.1,0,0.1c0,0.1,0,0.2,0,0.2c0,0.2,0,0.4,0.1,0.6c0,0.1,0,0.3,0.1,0.5c0,0,0,0,0,0.1c0,0.1,0,0.2,0.1,0.2
					c0,0,0,0.1,0,0.1c0,0.2,0.1,0.4,0.2,0.6c0,0,0,0,0,0.1c0,0.2,0.1,0.3,0.2,0.5c0.1,0.2,0.2,0.4,0.3,0.6c0,0.1,0.1,0.2,0.1,0.3
					c0,0.1,0.1,0.2,0.2,0.4c0,0.1,0.1,0.2,0.1,0.3c0,0,0,0.1,0.1,0.1c0.1,0.1,0.1,0.3,0.2,0.4c0.2,0.3,0.3,0.5,0.5,0.7
					c0.1,0.1,0.2,0.2,0.3,0.4c0.2,0.2,0.4,0.5,0.6,0.7c0.1,0.1,0.2,0.2,0.3,0.3c0.2,0.2,0.4,0.4,0.6,0.6c0.2,0.2,0.4,0.3,0.5,0.5
					c0.2,0.2,0.4,0.3,0.7,0.5c0,0,0.1,0.1,0.2,0.1c0.1,0,0.1,0.1,0.2,0.1c0.1,0.1,0.2,0.1,0.3,0.2c0.1,0.1,0.1,0.1,0.2,0.1
					c0,0,0.1,0,0.1,0.1h0c0.1,0,0.1,0.1,0.2,0.1c0.1,0,0.1,0.1,0.2,0.1c0.1,0.1,0.3,0.1,0.4,0.2c0.3,0.1,0.5,0.2,0.8,0.3
					c0.2,0.1,0.3,0.1,0.5,0.2c0.1,0,0.3,0.1,0.4,0.1c0.2,0.1,0.4,0.1,0.6,0.2c0.1,0,0.3,0.1,0.4,0.1c0.4,0.1,0.8,0.1,1.2,0.2
					c0.4,0,0.7,0,1.1,0c1.2,0,2.4-0.2,3.5-0.5l-10.3-10.7l11.2,0l4.6,7.1c1.8-2.1,2.9-4.8,2.9-7.8
					C252.9,289.4,252.9,289.2,252.9,289.1z M252.9,289.1c0-0.3,0-0.5,0-0.8c0,0,0-0.1,0-0.1c0,0,0,0,0,0c0-0.1,0-0.2,0-0.3
					c0,0,0-0.1,0-0.1c0-0.1,0-0.3-0.1-0.4c0-0.1,0-0.2-0.1-0.3c0-0.2-0.1-0.3-0.1-0.5c0-0.2-0.1-0.3-0.1-0.5
					c-0.1-0.2-0.1-0.4-0.2-0.6c0-0.1,0-0.2-0.1-0.2c0-0.1-0.1-0.3-0.2-0.4c0-0.1-0.1-0.2-0.1-0.3c-0.2-0.4-0.4-0.8-0.6-1.1
					c-0.1-0.1-0.1-0.2-0.2-0.4c0-0.1-0.1-0.2-0.2-0.2c-0.1-0.1-0.2-0.2-0.2-0.3c0,0,0,0,0,0c-0.1-0.2-0.2-0.3-0.4-0.5
					c-0.1-0.1-0.2-0.2-0.3-0.3c-0.1-0.1-0.2-0.2-0.3-0.3c0,0,0,0,0,0c-0.2-0.2-0.3-0.3-0.5-0.5c-0.2-0.2-0.4-0.3-0.6-0.5
					c-0.3-0.2-0.5-0.4-0.8-0.6c-0.1-0.1-0.2-0.1-0.3-0.2c0,0-0.1,0-0.1-0.1c-0.1-0.1-0.2-0.1-0.3-0.2c-0.3-0.2-0.5-0.3-0.8-0.4
					s-0.5-0.3-0.8-0.4c-0.2-0.1-0.4-0.2-0.7-0.2c0,0-0.1,0-0.1,0c-0.1,0-0.2-0.1-0.3-0.1c-0.2-0.1-0.3-0.1-0.5-0.1
					c-0.2-0.1-0.4-0.1-0.6-0.1c-0.3-0.1-0.6-0.1-0.9-0.1c0,0-0.1,0-0.1,0c0,0-0.1,0-0.1,0c0,0-0.1,0-0.1,0c-0.1,0-0.2,0-0.3,0
					c0,0-0.1,0-0.1,0c-0.2,0-0.4,0-0.6,0c-0.2,0-0.4,0-0.6,0c-0.2,0-0.4,0-0.6,0c-0.1,0-0.2,0-0.2,0c-0.1,0-0.3,0-0.4,0
					c-0.5,0.1-1,0.2-1.4,0.3c-0.1,0-0.2,0-0.3,0.1c-0.1,0-0.1,0-0.2,0.1c-0.4,0.1-0.7,0.3-1.1,0.4c-0.2,0.1-0.4,0.2-0.6,0.3
					c-0.1,0.1-0.2,0.1-0.3,0.2c-0.4,0.2-0.8,0.4-1.1,0.7l-0.5,0.4c0,0,0,0,0,0c0,0,0,0-0.1,0.1c-0.2,0.1-0.3,0.3-0.5,0.4
					c-0.1,0.1-0.2,0.2-0.3,0.3c-0.1,0.1-0.2,0.2-0.3,0.3c-0.1,0.1-0.2,0.2-0.3,0.3c0,0,0,0,0,0.1c-0.2,0.2-0.4,0.4-0.5,0.7
					c-0.1,0.1-0.2,0.2-0.2,0.3c-0.1,0.1-0.2,0.3-0.3,0.4c-0.2,0.2-0.3,0.5-0.5,0.7c-0.1,0.2-0.3,0.5-0.4,0.7
					c-0.1,0.1-0.1,0.2-0.2,0.4c0,0.1-0.1,0.2-0.1,0.3c-0.1,0.2-0.1,0.3-0.2,0.5c-0.1,0.2-0.1,0.3-0.2,0.5c-0.1,0.2-0.1,0.4-0.2,0.6
					c0,0.1-0.1,0.2-0.1,0.4c-0.1,0.3-0.1,0.5-0.1,0.8c0,0,0,0,0,0c0,0.2-0.1,0.3-0.1,0.5c0,0.1,0,0.1,0,0.2c0,0,0,0,0,0.1
					c0,0.2,0,0.3,0,0.5c0,0.2,0,0.4,0,0.6c0,0.1,0,0.3,0,0.4c0,0.1,0,0.1,0,0.2c0,0.1,0,0.2,0,0.3v0.1c0,0,0,0.1,0,0.1
					c0,0,0,0.1,0,0.1c0,0.1,0,0.2,0,0.2c0,0.2,0,0.4,0.1,0.6c0,0.1,0,0.3,0.1,0.5c0,0,0,0,0,0.1c0,0.1,0,0.2,0.1,0.2
					c0,0,0,0.1,0,0.1c0,0.2,0.1,0.4,0.2,0.6c0,0,0,0,0,0.1c0,0.2,0.1,0.3,0.2,0.5c0.1,0.2,0.2,0.4,0.3,0.6c0,0.1,0.1,0.2,0.1,0.3
					c0,0.1,0.1,0.2,0.2,0.4c0,0.1,0.1,0.2,0.1,0.3c0,0,0,0.1,0.1,0.1c0.1,0.1,0.1,0.3,0.2,0.4c0.2,0.3,0.3,0.5,0.5,0.7
					c0.1,0.1,0.2,0.2,0.3,0.4c0.2,0.2,0.4,0.5,0.6,0.7c0.1,0.1,0.2,0.2,0.3,0.3c0.2,0.2,0.4,0.4,0.6,0.6c0.2,0.2,0.4,0.3,0.5,0.5
					c0.2,0.2,0.4,0.3,0.7,0.5c0,0,0.1,0.1,0.2,0.1c0.1,0,0.1,0.1,0.2,0.1c0.1,0.1,0.2,0.1,0.3,0.2c0.1,0.1,0.1,0.1,0.2,0.1
					c0,0,0.1,0,0.1,0.1h0c0.1,0,0.1,0.1,0.2,0.1c0.1,0,0.1,0.1,0.2,0.1c0.1,0.1,0.3,0.1,0.4,0.2c0.3,0.1,0.5,0.2,0.8,0.3
					c0.2,0.1,0.3,0.1,0.5,0.2c0.1,0,0.3,0.1,0.4,0.1c0.2,0.1,0.4,0.1,0.6,0.2c0.1,0,0.3,0.1,0.4,0.1c0.4,0.1,0.8,0.1,1.2,0.2
					c0.4,0,0.7,0,1.1,0c1.2,0,2.4-0.2,3.5-0.5l-10.3-10.7l11.2,0l4.6,7.1c1.8-2.1,2.9-4.8,2.9-7.8
					C252.9,289.4,252.9,289.2,252.9,289.1z M252.9,289.1c0-0.3,0-0.5,0-0.8c0,0,0-0.1,0-0.1c0,0,0,0,0,0c0-0.1,0-0.2,0-0.3
					c0,0,0-0.1,0-0.1c0-0.1,0-0.3-0.1-0.4c0-0.1,0-0.2-0.1-0.3c0-0.2-0.1-0.3-0.1-0.5c0-0.2-0.1-0.3-0.1-0.5
					c-0.1-0.2-0.1-0.4-0.2-0.6c0-0.1,0-0.2-0.1-0.2c0-0.1-0.1-0.3-0.2-0.4c0-0.1-0.1-0.2-0.1-0.3c-0.2-0.4-0.4-0.8-0.6-1.1
					c-0.1-0.1-0.1-0.2-0.2-0.4c0-0.1-0.1-0.2-0.2-0.2c-0.1-0.1-0.2-0.2-0.2-0.3c0,0,0,0,0,0c-0.1-0.2-0.2-0.3-0.4-0.5
					c-0.1-0.1-0.2-0.2-0.3-0.3c-0.1-0.1-0.2-0.2-0.3-0.3c0,0,0,0,0,0c-0.2-0.2-0.3-0.3-0.5-0.5c-0.2-0.2-0.4-0.3-0.6-0.5
					c-0.3-0.2-0.5-0.4-0.8-0.6c-0.1-0.1-0.2-0.1-0.3-0.2c0,0-0.1,0-0.1-0.1c-0.1-0.1-0.2-0.1-0.3-0.2c-0.3-0.2-0.5-0.3-0.8-0.4
					s-0.5-0.3-0.8-0.4c-0.2-0.1-0.4-0.2-0.7-0.2c0,0-0.1,0-0.1,0c-0.1,0-0.2-0.1-0.3-0.1c-0.2-0.1-0.3-0.1-0.5-0.1
					c-0.2-0.1-0.4-0.1-0.6-0.1c-0.3-0.1-0.6-0.1-0.9-0.1c0,0-0.1,0-0.1,0c0,0-0.1,0-0.1,0c0,0-0.1,0-0.1,0c-0.1,0-0.2,0-0.3,0
					c0,0-0.1,0-0.1,0c-0.2,0-0.4,0-0.6,0c-0.2,0-0.4,0-0.6,0c-0.2,0-0.4,0-0.6,0c-0.1,0-0.2,0-0.2,0c-0.1,0-0.3,0-0.4,0
					c-0.5,0.1-1,0.2-1.4,0.3c-0.1,0-0.2,0-0.3,0.1c-0.1,0-0.1,0-0.2,0.1c-0.4,0.1-0.7,0.3-1.1,0.4c-0.2,0.1-0.4,0.2-0.6,0.3
					c-0.1,0.1-0.2,0.1-0.3,0.2c-0.4,0.2-0.8,0.4-1.1,0.7l-0.5,0.4c0,0,0,0,0,0c0,0,0,0-0.1,0.1c-0.2,0.1-0.3,0.3-0.5,0.4
					c-0.1,0.1-0.2,0.2-0.3,0.3c-0.1,0.1-0.2,0.2-0.3,0.3c-0.1,0.1-0.2,0.2-0.3,0.3c0,0,0,0,0,0.1c-0.2,0.2-0.4,0.4-0.5,0.7
					c-0.1,0.1-0.2,0.2-0.2,0.3c-0.1,0.1-0.2,0.3-0.3,0.4c-0.2,0.2-0.3,0.5-0.5,0.7c-0.1,0.2-0.3,0.5-0.4,0.7
					c-0.1,0.1-0.1,0.2-0.2,0.4c0,0.1-0.1,0.2-0.1,0.3c-0.1,0.2-0.1,0.3-0.2,0.5c-0.1,0.2-0.1,0.3-0.2,0.5c-0.1,0.2-0.1,0.4-0.2,0.6
					c0,0.1-0.1,0.2-0.1,0.4c-0.1,0.3-0.1,0.5-0.1,0.8c0,0,0,0,0,0c0,0.2-0.1,0.3-0.1,0.5c0,0.1,0,0.1,0,0.2c0,0,0,0,0,0.1
					c0,0.2,0,0.3,0,0.5c0,0.2,0,0.4,0,0.6c0,0.1,0,0.3,0,0.4c0,0.1,0,0.1,0,0.2c0,0.1,0,0.2,0,0.3v0.1c0,0,0,0.1,0,0.1
					c0,0,0,0.1,0,0.1c0,0.1,0,0.2,0,0.2c0,0.2,0,0.4,0.1,0.6c0,0.1,0,0.3,0.1,0.5c0,0,0,0,0,0.1c0,0.1,0,0.2,0.1,0.2
					c0,0,0,0.1,0,0.1c0,0.2,0.1,0.4,0.2,0.6c0,0,0,0,0,0.1c0,0.2,0.1,0.3,0.2,0.5c0.1,0.2,0.2,0.4,0.3,0.6c0,0.1,0.1,0.2,0.1,0.3
					c0,0.1,0.1,0.2,0.2,0.4c0,0.1,0.1,0.2,0.1,0.3c0,0,0,0.1,0.1,0.1c0.1,0.1,0.1,0.3,0.2,0.4c0.2,0.3,0.3,0.5,0.5,0.7
					c0.1,0.1,0.2,0.2,0.3,0.4c0.2,0.2,0.4,0.5,0.6,0.7c0.1,0.1,0.2,0.2,0.3,0.3c0.2,0.2,0.4,0.4,0.6,0.6c0.2,0.2,0.4,0.3,0.5,0.5
					c0.2,0.2,0.4,0.3,0.7,0.5c0,0,0.1,0.1,0.2,0.1c0.1,0,0.1,0.1,0.2,0.1c0.1,0.1,0.2,0.1,0.3,0.2c0.1,0.1,0.1,0.1,0.2,0.1
					c0,0,0.1,0,0.1,0.1h0c0.1,0,0.1,0.1,0.2,0.1c0.1,0,0.1,0.1,0.2,0.1c0.1,0.1,0.3,0.1,0.4,0.2c0.3,0.1,0.5,0.2,0.8,0.3
					c0.2,0.1,0.3,0.1,0.5,0.2c0.1,0,0.3,0.1,0.4,0.1c0.2,0.1,0.4,0.1,0.6,0.2c0.1,0,0.3,0.1,0.4,0.1c0.4,0.1,0.8,0.1,1.2,0.2
					c0.4,0,0.7,0,1.1,0c1.2,0,2.4-0.2,3.5-0.5l-10.3-10.7l11.2,0l4.6,7.1c1.8-2.1,2.9-4.8,2.9-7.8
					C252.9,289.4,252.9,289.2,252.9,289.1z M252.9,289.1c0-0.3,0-0.5,0-0.8c0,0,0-0.1,0-0.1c0,0,0,0,0,0c0-0.1,0-0.2,0-0.3
					c0,0,0-0.1,0-0.1c0-0.1,0-0.3-0.1-0.4c0-0.1,0-0.2-0.1-0.3c0-0.2-0.1-0.3-0.1-0.5c0-0.2-0.1-0.3-0.1-0.5
					c-0.1-0.2-0.1-0.4-0.2-0.6c0-0.1,0-0.2-0.1-0.2c0-0.1-0.1-0.3-0.2-0.4c0-0.1-0.1-0.2-0.1-0.3c-0.2-0.4-0.4-0.8-0.6-1.1
					c-0.1-0.1-0.1-0.2-0.2-0.4c0-0.1-0.1-0.2-0.2-0.2c-0.1-0.1-0.2-0.2-0.2-0.3c0,0,0,0,0,0c-0.1-0.2-0.2-0.3-0.4-0.5
					c-0.1-0.1-0.2-0.2-0.3-0.3c-0.1-0.1-0.2-0.2-0.3-0.3c0,0,0,0,0,0c-0.2-0.2-0.3-0.3-0.5-0.5c-0.2-0.2-0.4-0.3-0.6-0.5
					c-0.3-0.2-0.5-0.4-0.8-0.6c-0.1-0.1-0.2-0.1-0.3-0.2c0,0-0.1,0-0.1-0.1c-0.1-0.1-0.2-0.1-0.3-0.2c-0.3-0.2-0.5-0.3-0.8-0.4
					s-0.5-0.3-0.8-0.4c-0.2-0.1-0.4-0.2-0.7-0.2c0,0-0.1,0-0.1,0c-0.1,0-0.2-0.1-0.3-0.1c-0.2-0.1-0.3-0.1-0.5-0.1
					c-0.2-0.1-0.4-0.1-0.6-0.1c-0.3-0.1-0.6-0.1-0.9-0.1c0,0-0.1,0-0.1,0c0,0-0.1,0-0.1,0c0,0-0.1,0-0.1,0c-0.1,0-0.2,0-0.3,0
					c0,0-0.1,0-0.1,0c-0.2,0-0.4,0-0.6,0c-0.2,0-0.4,0-0.6,0c-0.2,0-0.4,0-0.6,0c-0.1,0-0.2,0-0.2,0c-0.1,0-0.3,0-0.4,0
					c-0.5,0.1-1,0.2-1.4,0.3c-0.1,0-0.2,0-0.3,0.1c-0.1,0-0.1,0-0.2,0.1c-0.4,0.1-0.7,0.3-1.1,0.4c-0.2,0.1-0.4,0.2-0.6,0.3
					c-0.1,0.1-0.2,0.1-0.3,0.2c-0.4,0.2-0.8,0.4-1.1,0.7l-0.5,0.4c0,0,0,0,0,0c0,0,0,0-0.1,0.1c-0.2,0.1-0.3,0.3-0.5,0.4
					c-0.1,0.1-0.2,0.2-0.3,0.3c-0.1,0.1-0.2,0.2-0.3,0.3c-0.1,0.1-0.2,0.2-0.3,0.3c0,0,0,0,0,0.1c-0.2,0.2-0.4,0.4-0.5,0.7
					c-0.1,0.1-0.2,0.2-0.2,0.3c-0.1,0.1-0.2,0.3-0.3,0.4c-0.2,0.2-0.3,0.5-0.5,0.7c-0.1,0.2-0.3,0.5-0.4,0.7
					c-0.1,0.1-0.1,0.2-0.2,0.4c0,0.1-0.1,0.2-0.1,0.3c-0.1,0.2-0.1,0.3-0.2,0.5c-0.1,0.2-0.1,0.3-0.2,0.5c-0.1,0.2-0.1,0.4-0.2,0.6
					c0,0.1-0.1,0.2-0.1,0.4c-0.1,0.3-0.1,0.5-0.1,0.8c0,0,0,0,0,0c0,0.2-0.1,0.3-0.1,0.5c0,0.1,0,0.1,0,0.2c0,0,0,0,0,0.1
					c0,0.2,0,0.3,0,0.5c0,0.2,0,0.4,0,0.6c0,0.1,0,0.3,0,0.4c0,0.1,0,0.1,0,0.2c0,0.1,0,0.2,0,0.3v0.1c0,0,0,0.1,0,0.1
					c0,0,0,0.1,0,0.1c0,0.1,0,0.2,0,0.2c0,0.2,0,0.4,0.1,0.6c0,0.1,0,0.3,0.1,0.5c0,0,0,0,0,0.1c0,0.1,0,0.2,0.1,0.2
					c0,0,0,0.1,0,0.1c0,0.2,0.1,0.4,0.2,0.6c0,0,0,0,0,0.1c0,0.2,0.1,0.3,0.2,0.5c0.1,0.2,0.2,0.4,0.3,0.6c0,0.1,0.1,0.2,0.1,0.3
					c0,0.1,0.1,0.2,0.2,0.4c0,0.1,0.1,0.2,0.1,0.3c0,0,0,0.1,0.1,0.1c0.1,0.1,0.1,0.3,0.2,0.4c0.2,0.3,0.3,0.5,0.5,0.7
					c0.1,0.1,0.2,0.2,0.3,0.4c0.2,0.2,0.4,0.5,0.6,0.7c0.1,0.1,0.2,0.2,0.3,0.3c0.2,0.2,0.4,0.4,0.6,0.6c0.2,0.2,0.4,0.3,0.5,0.5
					c0.2,0.2,0.4,0.3,0.7,0.5c0,0,0.1,0.1,0.2,0.1c0.1,0,0.1,0.1,0.2,0.1c0.1,0.1,0.2,0.1,0.3,0.2c0.1,0.1,0.1,0.1,0.2,0.1
					c0,0,0.1,0,0.1,0.1h0c0.1,0,0.1,0.1,0.2,0.1c0.1,0,0.1,0.1,0.2,0.1c0.1,0.1,0.3,0.1,0.4,0.2c0.3,0.1,0.5,0.2,0.8,0.3
					c0.2,0.1,0.3,0.1,0.5,0.2c0.1,0,0.3,0.1,0.4,0.1c0.2,0.1,0.4,0.1,0.6,0.2c0.1,0,0.3,0.1,0.4,0.1c0.4,0.1,0.8,0.1,1.2,0.2
					c0.4,0,0.7,0,1.1,0c1.2,0,2.4-0.2,3.5-0.5l-10.3-10.7l11.2,0l4.6,7.1c1.8-2.1,2.9-4.8,2.9-7.8
					C252.9,289.4,252.9,289.2,252.9,289.1z M252.9,289.1c0-0.3,0-0.5,0-0.8c0,0,0-0.1,0-0.1c0,0,0,0,0,0c0-0.1,0-0.2,0-0.3
					c0,0,0-0.1,0-0.1c0-0.1,0-0.3-0.1-0.4c0-0.1,0-0.2-0.1-0.3c0-0.2-0.1-0.3-0.1-0.5c0-0.2-0.1-0.3-0.1-0.5
					c-0.1-0.2-0.1-0.4-0.2-0.6c0-0.1,0-0.2-0.1-0.2c0-0.1-0.1-0.3-0.2-0.4c0-0.1-0.1-0.2-0.1-0.3c-0.2-0.4-0.4-0.8-0.6-1.1
					c-0.1-0.1-0.1-0.2-0.2-0.4c0-0.1-0.1-0.2-0.2-0.2c-0.1-0.1-0.2-0.2-0.2-0.3c0,0,0,0,0,0c-0.1-0.2-0.2-0.3-0.4-0.5
					c-0.1-0.1-0.2-0.2-0.3-0.3c-0.1-0.1-0.2-0.2-0.3-0.3c0,0,0,0,0,0c-0.2-0.2-0.3-0.3-0.5-0.5c-0.2-0.2-0.4-0.3-0.6-0.5
					c-0.3-0.2-0.5-0.4-0.8-0.6c-0.1-0.1-0.2-0.1-0.3-0.2c0,0-0.1,0-0.1-0.1c-0.1-0.1-0.2-0.1-0.3-0.2c-0.3-0.2-0.5-0.3-0.8-0.4
					s-0.5-0.3-0.8-0.4c-0.2-0.1-0.4-0.2-0.7-0.2c0,0-0.1,0-0.1,0c-0.1,0-0.2-0.1-0.3-0.1c-0.2-0.1-0.3-0.1-0.5-0.1
					c-0.2-0.1-0.4-0.1-0.6-0.1c-0.3-0.1-0.6-0.1-0.9-0.1c0,0-0.1,0-0.1,0c0,0-0.1,0-0.1,0c0,0-0.1,0-0.1,0c-0.1,0-0.2,0-0.3,0
					c0,0-0.1,0-0.1,0c-0.2,0-0.4,0-0.6,0c-0.2,0-0.4,0-0.6,0c-0.2,0-0.4,0-0.6,0c-0.1,0-0.2,0-0.2,0c-0.1,0-0.3,0-0.4,0
					c-0.5,0.1-1,0.2-1.4,0.3c-0.1,0-0.2,0-0.3,0.1c-0.1,0-0.1,0-0.2,0.1c-0.4,0.1-0.7,0.3-1.1,0.4c-0.2,0.1-0.4,0.2-0.6,0.3
					c-0.1,0.1-0.2,0.1-0.3,0.2c-0.4,0.2-0.8,0.4-1.1,0.7l-0.5,0.4c0,0,0,0,0,0c0,0,0,0-0.1,0.1c-0.2,0.1-0.3,0.3-0.5,0.4
					c-0.1,0.1-0.2,0.2-0.3,0.3c-0.1,0.1-0.2,0.2-0.3,0.3c-0.1,0.1-0.2,0.2-0.3,0.3c0,0,0,0,0,0.1c-0.2,0.2-0.4,0.4-0.5,0.7
					c-0.1,0.1-0.2,0.2-0.2,0.3c-0.1,0.1-0.2,0.3-0.3,0.4c-0.2,0.2-0.3,0.5-0.5,0.7c-0.1,0.2-0.3,0.5-0.4,0.7
					c-0.1,0.1-0.1,0.2-0.2,0.4c0,0.1-0.1,0.2-0.1,0.3c-0.1,0.2-0.1,0.3-0.2,0.5c-0.1,0.2-0.1,0.3-0.2,0.5c-0.1,0.2-0.1,0.4-0.2,0.6
					c0,0.1-0.1,0.2-0.1,0.4c-0.1,0.3-0.1,0.5-0.1,0.8c0,0,0,0,0,0c0,0.2-0.1,0.3-0.1,0.5c0,0.1,0,0.1,0,0.2c0,0,0,0,0,0.1
					c0,0.2,0,0.3,0,0.5c0,0.2,0,0.4,0,0.6c0,0.1,0,0.3,0,0.4c0,0.1,0,0.1,0,0.2c0,0.1,0,0.2,0,0.3v0.1c0,0,0,0.1,0,0.1
					c0,0,0,0.1,0,0.1c0,0.1,0,0.2,0,0.2c0,0.2,0,0.4,0.1,0.6c0,0.1,0,0.3,0.1,0.5c0,0,0,0,0,0.1c0,0.1,0,0.2,0.1,0.2
					c0,0,0,0.1,0,0.1c0,0.2,0.1,0.4,0.2,0.6c0,0,0,0,0,0.1c0,0.2,0.1,0.3,0.2,0.5c0.1,0.2,0.2,0.4,0.3,0.6c0,0.1,0.1,0.2,0.1,0.3
					c0,0.1,0.1,0.2,0.2,0.4c0,0.1,0.1,0.2,0.1,0.3c0,0,0,0.1,0.1,0.1c0.1,0.1,0.1,0.3,0.2,0.4c0.2,0.3,0.3,0.5,0.5,0.7
					c0.1,0.1,0.2,0.2,0.3,0.4c0.2,0.2,0.4,0.5,0.6,0.7c0.1,0.1,0.2,0.2,0.3,0.3c0.2,0.2,0.4,0.4,0.6,0.6c0.2,0.2,0.4,0.3,0.5,0.5
					c0.2,0.2,0.4,0.3,0.7,0.5c0,0,0.1,0.1,0.2,0.1c0.1,0,0.1,0.1,0.2,0.1c0.1,0.1,0.2,0.1,0.3,0.2c0.1,0.1,0.1,0.1,0.2,0.1
					c0,0,0.1,0,0.1,0.1h0c0.1,0,0.1,0.1,0.2,0.1c0.1,0,0.1,0.1,0.2,0.1c0.1,0.1,0.3,0.1,0.4,0.2c0.3,0.1,0.5,0.2,0.8,0.3
					c0.2,0.1,0.3,0.1,0.5,0.2c0.1,0,0.3,0.1,0.4,0.1c0.2,0.1,0.4,0.1,0.6,0.2c0.1,0,0.3,0.1,0.4,0.1c0.4,0.1,0.8,0.1,1.2,0.2
					c0.4,0,0.7,0,1.1,0c1.2,0,2.4-0.2,3.5-0.5l-10.3-10.7l11.2,0l4.6,7.1c1.8-2.1,2.9-4.8,2.9-7.8
					C252.9,289.4,252.9,289.2,252.9,289.1z M252.9,289.1c0-0.3,0-0.5,0-0.8c0,0,0-0.1,0-0.1c0,0,0,0,0,0c0-0.1,0-0.2,0-0.3
					c0,0,0-0.1,0-0.1c0-0.1,0-0.3-0.1-0.4c0-0.1,0-0.2-0.1-0.3c0-0.2-0.1-0.3-0.1-0.5c0-0.2-0.1-0.3-0.1-0.5
					c-0.1-0.2-0.1-0.4-0.2-0.6c0-0.1,0-0.2-0.1-0.2c0-0.1-0.1-0.3-0.2-0.4c0-0.1-0.1-0.2-0.1-0.3c-0.2-0.4-0.4-0.8-0.6-1.1
					c-0.1-0.1-0.1-0.2-0.2-0.4c0-0.1-0.1-0.2-0.2-0.2c-0.1-0.1-0.2-0.2-0.2-0.3c0,0,0,0,0,0c-0.1-0.2-0.2-0.3-0.4-0.5
					c-0.1-0.1-0.2-0.2-0.3-0.3c-0.1-0.1-0.2-0.2-0.3-0.3c0,0,0,0,0,0c-0.2-0.2-0.3-0.3-0.5-0.5c-0.2-0.2-0.4-0.3-0.6-0.5
					c-0.3-0.2-0.5-0.4-0.8-0.6c-0.1-0.1-0.2-0.1-0.3-0.2c0,0-0.1,0-0.1-0.1c-0.1-0.1-0.2-0.1-0.3-0.2c-0.3-0.2-0.5-0.3-0.8-0.4
					s-0.5-0.3-0.8-0.4c-0.2-0.1-0.4-0.2-0.7-0.2c0,0-0.1,0-0.1,0c-0.1,0-0.2-0.1-0.3-0.1c-0.2-0.1-0.3-0.1-0.5-0.1
					c-0.2-0.1-0.4-0.1-0.6-0.1c-0.3-0.1-0.6-0.1-0.9-0.1c0,0-0.1,0-0.1,0c0,0-0.1,0-0.1,0c0,0-0.1,0-0.1,0c-0.1,0-0.2,0-0.3,0
					c0,0-0.1,0-0.1,0c-0.2,0-0.4,0-0.6,0c-0.2,0-0.4,0-0.6,0c-0.2,0-0.4,0-0.6,0c-0.1,0-0.2,0-0.2,0c-0.1,0-0.3,0-0.4,0
					c-0.5,0.1-1,0.2-1.4,0.3c-0.1,0-0.2,0-0.3,0.1c-0.1,0-0.1,0-0.2,0.1c-0.4,0.1-0.7,0.3-1.1,0.4c-0.2,0.1-0.4,0.2-0.6,0.3
					c-0.1,0.1-0.2,0.1-0.3,0.2c-0.4,0.2-0.8,0.4-1.1,0.7l-0.5,0.4c0,0,0,0,0,0c0,0,0,0-0.1,0.1c-0.2,0.1-0.3,0.3-0.5,0.4
					c-0.1,0.1-0.2,0.2-0.3,0.3c-0.1,0.1-0.2,0.2-0.3,0.3c-0.1,0.1-0.2,0.2-0.3,0.3c0,0,0,0,0,0.1c-0.2,0.2-0.4,0.4-0.5,0.7
					c-0.1,0.1-0.2,0.2-0.2,0.3c-0.1,0.1-0.2,0.3-0.3,0.4c-0.2,0.2-0.3,0.5-0.5,0.7c-0.1,0.2-0.3,0.5-0.4,0.7
					c-0.1,0.1-0.1,0.2-0.2,0.4c0,0.1-0.1,0.2-0.1,0.3c-0.1,0.2-0.1,0.3-0.2,0.5c-0.1,0.2-0.1,0.3-0.2,0.5c-0.1,0.2-0.1,0.4-0.2,0.6
					c0,0.1-0.1,0.2-0.1,0.4c-0.1,0.3-0.1,0.5-0.1,0.8c0,0,0,0,0,0c0,0.2-0.1,0.3-0.1,0.5c0,0.1,0,0.1,0,0.2c0,0,0,0,0,0.1
					c0,0.2,0,0.3,0,0.5c0,0.2,0,0.4,0,0.6c0,0.1,0,0.3,0,0.4c0,0.1,0,0.1,0,0.2c0,0.1,0,0.2,0,0.3v0.1c0,0,0,0.1,0,0.1
					c0,0,0,0.1,0,0.1c0,0.1,0,0.2,0,0.2c0,0.2,0,0.4,0.1,0.6c0,0.1,0,0.3,0.1,0.5c0,0,0,0,0,0.1c0,0.1,0,0.2,0.1,0.2
					c0,0,0,0.1,0,0.1c0,0.2,0.1,0.4,0.2,0.6c0,0,0,0,0,0.1c0,0.2,0.1,0.3,0.2,0.5c0.1,0.2,0.2,0.4,0.3,0.6c0,0.1,0.1,0.2,0.1,0.3
					c0,0.1,0.1,0.2,0.2,0.4c0,0.1,0.1,0.2,0.1,0.3c0,0,0,0.1,0.1,0.1c0.1,0.1,0.1,0.3,0.2,0.4c0.2,0.3,0.3,0.5,0.5,0.7
					c0.1,0.1,0.2,0.2,0.3,0.4c0.2,0.2,0.4,0.5,0.6,0.7c0.1,0.1,0.2,0.2,0.3,0.3c0.2,0.2,0.4,0.4,0.6,0.6c0.2,0.2,0.4,0.3,0.5,0.5
					c0.2,0.2,0.4,0.3,0.7,0.5c0,0,0.1,0.1,0.2,0.1c0.1,0,0.1,0.1,0.2,0.1c0.1,0.1,0.2,0.1,0.3,0.2c0.1,0.1,0.1,0.1,0.2,0.1
					c0,0,0.1,0,0.1,0.1h0c0.1,0,0.1,0.1,0.2,0.1c0.1,0,0.1,0.1,0.2,0.1c0.1,0.1,0.3,0.1,0.4,0.2c0.3,0.1,0.5,0.2,0.8,0.3
					c0.2,0.1,0.3,0.1,0.5,0.2c0.1,0,0.3,0.1,0.4,0.1c0.2,0.1,0.4,0.1,0.6,0.2c0.1,0,0.3,0.1,0.4,0.1c0.4,0.1,0.8,0.1,1.2,0.2
					c0.4,0,0.7,0,1.1,0c1.2,0,2.4-0.2,3.5-0.5l-10.3-10.7l11.2,0l4.6,7.1c1.8-2.1,2.9-4.8,2.9-7.8
					C252.9,289.4,252.9,289.2,252.9,289.1z M252.9,289.1c0-0.3,0-0.5,0-0.8c0,0,0-0.1,0-0.1c0,0,0,0,0,0c0-0.1,0-0.2,0-0.3
					c0,0,0-0.1,0-0.1c0-0.1,0-0.3-0.1-0.4c0-0.1,0-0.2-0.1-0.3c0-0.2-0.1-0.3-0.1-0.5c0-0.2-0.1-0.3-0.1-0.5
					c-0.1-0.2-0.1-0.4-0.2-0.6c0-0.1,0-0.2-0.1-0.2c0-0.1-0.1-0.3-0.2-0.4c0-0.1-0.1-0.2-0.1-0.3c-0.2-0.4-0.4-0.8-0.6-1.1
					c-0.1-0.1-0.1-0.2-0.2-0.4c0-0.1-0.1-0.2-0.2-0.2c-0.1-0.1-0.2-0.2-0.2-0.3c0,0,0,0,0,0c-0.1-0.2-0.2-0.3-0.4-0.5
					c-0.1-0.1-0.2-0.2-0.3-0.3c-0.1-0.1-0.2-0.2-0.3-0.3c0,0,0,0,0,0c-0.2-0.2-0.3-0.3-0.5-0.5c-0.2-0.2-0.4-0.3-0.6-0.5
					c-0.3-0.2-0.5-0.4-0.8-0.6c-0.1-0.1-0.2-0.1-0.3-0.2c0,0-0.1,0-0.1-0.1c-0.1-0.1-0.2-0.1-0.3-0.2c-0.3-0.2-0.5-0.3-0.8-0.4
					s-0.5-0.3-0.8-0.4c-0.2-0.1-0.4-0.2-0.7-0.2c0,0-0.1,0-0.1,0c-0.1,0-0.2-0.1-0.3-0.1c-0.2-0.1-0.3-0.1-0.5-0.1
					c-0.2-0.1-0.4-0.1-0.6-0.1c-0.3-0.1-0.6-0.1-0.9-0.1c0,0-0.1,0-0.1,0c0,0-0.1,0-0.1,0c0,0-0.1,0-0.1,0c-0.1,0-0.2,0-0.3,0
					c0,0-0.1,0-0.1,0c-0.2,0-0.4,0-0.6,0c-0.2,0-0.4,0-0.6,0c-0.2,0-0.4,0-0.6,0c-0.1,0-0.2,0-0.2,0c-0.1,0-0.3,0-0.4,0
					c-0.5,0.1-1,0.2-1.4,0.3c-0.1,0-0.2,0-0.3,0.1c-0.1,0-0.1,0-0.2,0.1c-0.4,0.1-0.7,0.3-1.1,0.4c-0.2,0.1-0.4,0.2-0.6,0.3
					c-0.1,0.1-0.2,0.1-0.3,0.2c-0.4,0.2-0.8,0.4-1.1,0.7l-0.5,0.4c0,0,0,0,0,0c0,0,0,0-0.1,0.1c-0.2,0.1-0.3,0.3-0.5,0.4
					c-0.1,0.1-0.2,0.2-0.3,0.3c-0.1,0.1-0.2,0.2-0.3,0.3c-0.1,0.1-0.2,0.2-0.3,0.3c0,0,0,0,0,0.1c-0.2,0.2-0.4,0.4-0.5,0.7
					c-0.1,0.1-0.2,0.2-0.2,0.3c-0.1,0.1-0.2,0.3-0.3,0.4c-0.2,0.2-0.3,0.5-0.5,0.7c-0.1,0.2-0.3,0.5-0.4,0.7
					c-0.1,0.1-0.1,0.2-0.2,0.4c0,0.1-0.1,0.2-0.1,0.3c-0.1,0.2-0.1,0.3-0.2,0.5c-0.1,0.2-0.1,0.3-0.2,0.5c-0.1,0.2-0.1,0.4-0.2,0.6
					c0,0.1-0.1,0.2-0.1,0.4c-0.1,0.3-0.1,0.5-0.1,0.8c0,0,0,0,0,0c0,0.2-0.1,0.3-0.1,0.5c0,0.1,0,0.1,0,0.2c0,0,0,0,0,0.1
					c0,0.2,0,0.3,0,0.5c0,0.2,0,0.4,0,0.6c0,0.1,0,0.3,0,0.4c0,0.1,0,0.1,0,0.2c0,0.1,0,0.2,0,0.3v0.1c0,0,0,0.1,0,0.1
					c0,0,0,0.1,0,0.1c0,0.1,0,0.2,0,0.2c0,0.2,0,0.4,0.1,0.6c0,0.1,0,0.3,0.1,0.5c0,0,0,0,0,0.1c0,0.1,0,0.2,0.1,0.2
					c0,0,0,0.1,0,0.1c0,0.2,0.1,0.4,0.2,0.6c0,0,0,0,0,0.1c0,0.2,0.1,0.3,0.2,0.5c0.1,0.2,0.2,0.4,0.3,0.6c0,0.1,0.1,0.2,0.1,0.3
					c0,0.1,0.1,0.2,0.2,0.4c0,0.1,0.1,0.2,0.1,0.3c0,0,0,0.1,0.1,0.1c0.1,0.1,0.1,0.3,0.2,0.4c0.2,0.3,0.3,0.5,0.5,0.7
					c0.1,0.1,0.2,0.2,0.3,0.4c0.2,0.2,0.4,0.5,0.6,0.7c0.1,0.1,0.2,0.2,0.3,0.3c0.2,0.2,0.4,0.4,0.6,0.6c0.2,0.2,0.4,0.3,0.5,0.5
					c0.2,0.2,0.4,0.3,0.7,0.5c0,0,0.1,0.1,0.2,0.1c0.1,0,0.1,0.1,0.2,0.1c0.1,0.1,0.2,0.1,0.3,0.2c0.1,0.1,0.1,0.1,0.2,0.1
					c0,0,0.1,0,0.1,0.1h0c0.1,0,0.1,0.1,0.2,0.1c0.1,0,0.1,0.1,0.2,0.1c0.1,0.1,0.3,0.1,0.4,0.2c0.3,0.1,0.5,0.2,0.8,0.3
					c0.2,0.1,0.3,0.1,0.5,0.2c0.1,0,0.3,0.1,0.4,0.1c0.2,0.1,0.4,0.1,0.6,0.2c0.1,0,0.3,0.1,0.4,0.1c0.4,0.1,0.8,0.1,1.2,0.2
					c0.4,0,0.7,0,1.1,0c1.2,0,2.4-0.2,3.5-0.5l-10.3-10.7l11.2,0l4.6,7.1c1.8-2.1,2.9-4.8,2.9-7.8
					C252.9,289.4,252.9,289.2,252.9,289.1z M252.9,289.1c0-0.3,0-0.5,0-0.8c0,0,0-0.1,0-0.1c0,0,0,0,0,0c0-0.1,0-0.2,0-0.3
					c0,0,0-0.1,0-0.1c0-0.1,0-0.3-0.1-0.4c0-0.1,0-0.2-0.1-0.3c0-0.2-0.1-0.3-0.1-0.5c0-0.2-0.1-0.3-0.1-0.5
					c-0.1-0.2-0.1-0.4-0.2-0.6c0-0.1,0-0.2-0.1-0.2c0-0.1-0.1-0.3-0.2-0.4c0-0.1-0.1-0.2-0.1-0.3c-0.2-0.4-0.4-0.8-0.6-1.1
					c-0.1-0.1-0.1-0.2-0.2-0.4c0-0.1-0.1-0.2-0.2-0.2c-0.1-0.1-0.2-0.2-0.2-0.3c0,0,0,0,0,0c-0.1-0.2-0.2-0.3-0.4-0.5
					c-0.1-0.1-0.2-0.2-0.3-0.3c-0.1-0.1-0.2-0.2-0.3-0.3c0,0,0,0,0,0c-0.2-0.2-0.3-0.3-0.5-0.5c-0.2-0.2-0.4-0.3-0.6-0.5
					c-0.3-0.2-0.5-0.4-0.8-0.6c-0.1-0.1-0.2-0.1-0.3-0.2c0,0-0.1,0-0.1-0.1c-0.1-0.1-0.2-0.1-0.3-0.2c-0.3-0.2-0.5-0.3-0.8-0.4
					s-0.5-0.3-0.8-0.4c-0.2-0.1-0.4-0.2-0.7-0.2c0,0-0.1,0-0.1,0c-0.1,0-0.2-0.1-0.3-0.1c-0.2-0.1-0.3-0.1-0.5-0.1
					c-0.2-0.1-0.4-0.1-0.6-0.1c-0.3-0.1-0.6-0.1-0.9-0.1c0,0-0.1,0-0.1,0c0,0-0.1,0-0.1,0c0,0-0.1,0-0.1,0c-0.1,0-0.2,0-0.3,0
					c0,0-0.1,0-0.1,0c-0.2,0-0.4,0-0.6,0c-0.2,0-0.4,0-0.6,0c-0.2,0-0.4,0-0.6,0c-0.1,0-0.2,0-0.2,0c-0.1,0-0.3,0-0.4,0
					c-0.5,0.1-1,0.2-1.4,0.3c-0.1,0-0.2,0-0.3,0.1c-0.1,0-0.1,0-0.2,0.1c-0.4,0.1-0.7,0.3-1.1,0.4c-0.2,0.1-0.4,0.2-0.6,0.3
					c-0.1,0.1-0.2,0.1-0.3,0.2c-0.4,0.2-0.8,0.4-1.1,0.7l-0.5,0.4c0,0,0,0,0,0c0,0,0,0-0.1,0.1c-0.2,0.1-0.3,0.3-0.5,0.4
					c-0.1,0.1-0.2,0.2-0.3,0.3c-0.1,0.1-0.2,0.2-0.3,0.3c-0.1,0.1-0.2,0.2-0.3,0.3c0,0,0,0,0,0.1c-0.2,0.2-0.4,0.4-0.5,0.7
					c-0.1,0.1-0.2,0.2-0.2,0.3c-0.1,0.1-0.2,0.3-0.3,0.4c-0.2,0.2-0.3,0.5-0.5,0.7c-0.1,0.2-0.3,0.5-0.4,0.7
					c-0.1,0.1-0.1,0.2-0.2,0.4c0,0.1-0.1,0.2-0.1,0.3c-0.1,0.2-0.1,0.3-0.2,0.5c-0.1,0.2-0.1,0.3-0.2,0.5c-0.1,0.2-0.1,0.4-0.2,0.6
					c0,0.1-0.1,0.2-0.1,0.4c-0.1,0.3-0.1,0.5-0.1,0.8c0,0,0,0,0,0c0,0.2-0.1,0.3-0.1,0.5c0,0.1,0,0.1,0,0.2c0,0,0,0,0,0.1
					c0,0.2,0,0.3,0,0.5c0,0.2,0,0.4,0,0.6c0,0.1,0,0.3,0,0.4c0,0.1,0,0.1,0,0.2c0,0.1,0,0.2,0,0.3v0.1c0,0,0,0.1,0,0.1
					c0,0,0,0.1,0,0.1c0,0.1,0,0.2,0,0.2c0,0.2,0,0.4,0.1,0.6c0,0.1,0,0.3,0.1,0.5c0,0,0,0,0,0.1c0,0.1,0,0.2,0.1,0.2
					c0,0,0,0.1,0,0.1c0,0.2,0.1,0.4,0.2,0.6c0,0,0,0,0,0.1c0,0.2,0.1,0.3,0.2,0.5c0.1,0.2,0.2,0.4,0.3,0.6c0,0.1,0.1,0.2,0.1,0.3
					c0,0.1,0.1,0.2,0.2,0.4c0,0.1,0.1,0.2,0.1,0.3c0,0,0,0.1,0.1,0.1c0.1,0.1,0.1,0.3,0.2,0.4c0.2,0.3,0.3,0.5,0.5,0.7
					c0.1,0.1,0.2,0.2,0.3,0.4c0.2,0.2,0.4,0.5,0.6,0.7c0.1,0.1,0.2,0.2,0.3,0.3c0.2,0.2,0.4,0.4,0.6,0.6c0.2,0.2,0.4,0.3,0.5,0.5
					c0.2,0.2,0.4,0.3,0.7,0.5c0,0,0.1,0.1,0.2,0.1c0.1,0,0.1,0.1,0.2,0.1c0.1,0.1,0.2,0.1,0.3,0.2c0.1,0.1,0.1,0.1,0.2,0.1
					c0,0,0.1,0,0.1,0.1h0c0.1,0,0.1,0.1,0.2,0.1c0.1,0,0.1,0.1,0.2,0.1c0.1,0.1,0.3,0.1,0.4,0.2c0.3,0.1,0.5,0.2,0.8,0.3
					c0.2,0.1,0.3,0.1,0.5,0.2c0.1,0,0.3,0.1,0.4,0.1c0.2,0.1,0.4,0.1,0.6,0.2c0.1,0,0.3,0.1,0.4,0.1c0.4,0.1,0.8,0.1,1.2,0.2
					c0.4,0,0.7,0,1.1,0c1.2,0,2.4-0.2,3.5-0.5l-10.3-10.7l11.2,0l4.6,7.1c1.8-2.1,2.9-4.8,2.9-7.8
					C252.9,289.4,252.9,289.2,252.9,289.1z"/>
			</g>
		</g>
	</g>
	<path class="st1" d="M389.2,320.8c-4.2,0-8,2.7-9.4,6.6c-1.4,3.9-0.2,8.5,3,11.1c3.2,2.7,7.9,3,11.5,0.9c3.6-2.1,5.5-6.4,4.7-10.5
		C398.1,324.3,393.9,320.8,389.2,320.8z"/>
	<g>
		<path class="st1" d="M494.6,114.8L447.2,79c-17.3-13.1-35.7-24.5-54.5-34c0,0,0,0,0,0c-4.4-2.2-8.9-4.4-13.4-6.3
			C358,29.1,342.9,25,333,26.1c0,0,0,0,0,0c-2,0.2-3.7,0.6-5.4,1.2c-2.9,1.1-7.1,2.2-12.3,3.5c-39.1,9.4-80.5,9.4-119.6,0
			c-5.3-1.3-9.4-2.4-12.3-3.5c-1.6-0.6-3.4-1-5.4-1.2c0,0,0,0,0,0c-9.9-1.1-25,3.1-46.3,12.6c-4.5,2-8.9,4.1-13.4,6.3
			c-18.9,9.5-37.2,20.9-54.5,34l-47.4,35.8c-7.4,5.6-9.8,15.8-5.7,24.1l38.6,77.6c4.2,8.4,13.7,12.6,22.7,10l34.9-10l5.4,120.2
			l2.2,117.8v20.9c0,5.3,4.3,9.7,9.7,9.7H387c5.3,0,9.7-4.3,9.7-9.7v-20.9l1.6-86.9c0.1-5.3-4.2-9.7-9.5-9.8
			c-5.4-0.1-9.7,4.2-9.8,9.5l-1.6,87v0.2v11.3H133.7v-11.3c0-0.1,0-0.1,0-0.2l-2.2-118c0-0.1,0-0.2,0-0.3L126,211c0,0,0-0.1,0-0.1
			c0-0.3,0-0.7-0.1-1c-1.7-20-2.4-38.5-2.4-55.4c0-48.6,5.5-82.7,7.7-94.4c2.8-1.3,5.6-2.7,8.4-3.9c14.7-6.6,23.9-9.3,29.5-10.4
			c3.5,10.6,11.7,18.9,20.8,25c2.9,1.9,5.9,3.6,9,5.2c15.7,7.8,35.6,12.1,56.5,12.1c22.3,0,43.5-4.9,59.6-13.7
			c11.6-6.3,22.5-15.7,26.8-28.6c5.6,1.1,14.8,3.8,29.5,10.4c2.8,1.2,5.6,2.6,8.4,3.9c1.7,9.3,5.6,32.8,7.1,66.5
			c0,0.8,0.1,1.7,0.1,2.5c0.8,21.9,0.7,47.1-1.3,74.4c0,0.3,0,0.7-0.1,1c-0.2,2-0.3,4-0.5,6c0,0.1,0,0.2,0,0.3c0,0,0,0,0,0.1v0
			c0,0,0,0,0,0l-3.5,79.3c-0.2,5.3,3.9,9.8,9.2,10.1c5.3,0.2,9.9-3.9,10.1-9.2l3.3-74.6l34.9,10c1.8,0.5,3.6,0.8,5.4,0.8
			c7.2,0,14-4,17.4-10.8l38.6-77.6C504.5,130.6,502.1,120.4,494.6,114.8z M104.2,154c0,13.3,0.4,27.6,1.4,42.8L66.6,208L28,130.2
			l47.4-35.8c11-8.3,22.5-16,34.3-22.8C107.2,89.2,104.2,117.6,104.2,154z M262.6,68.6c-2.3,0.1-4.7,0.2-7.1,0.2
			c-2.4,0-4.8-0.1-7.1-0.2c-16.4-0.9-31.6-4.7-43.3-11.1c-3.6-2-7-4.3-10.1-7c39.6,8.9,81.2,8.9,120.9,0c-3,2.7-6.5,5-10.1,7
			C294.2,63.8,279,67.7,262.6,68.6C260.3,68.7,279,67.7,262.6,68.6z M444.3,208l-38.9-11.2c1.1-16.6,1.5-33.3,1.3-49.9
			c-0.2-16.7-1-33.3-2.5-49.9c-0.8-8.5-1.8-17-3-25.4c11.7,6.8,23.2,14.4,34.3,22.8l47.4,35.8l0,0.1L444.3,208z"/>
	</g>
	<g>
		<g>
			<g>
				<g>
					<g>
						<path class="st2" d="M268.5,338.4 M262,345.1"/>
					</g>
				</g>
			</g>
		</g>
	</g>
</g>
</svg>
